{
.appVersion = "3341";
.formatVersion = 3;
DisplayStrings = (

glyphs = (
{
glyphname = A;
lastChange = "2025-01-27 09:18:17 +0000";
layers = (
{
anchors = (
{
name = bottom;
pos = (351,0);
},
{
name = ogonek;
pos = (632,10);
},
{
name = top;
pos = (351,616);
}
);
color = 4;
layerId = m005;
shapes = (
{
closed = 1;
nodes = (
(684,0,l),
(684,25,l),
(614,39,o),
(593,64,o),
(563,135,cs),
(495,306,o),
(428,477,o),
(360,648,c),
(320,576,l),
(313,550,l),
(470,139,ls),
(507,42,o),
(496,43,o),
(414,25,c),
(414,0,l)
);
},
{
closed = 1;
nodes = (
(270,0,l),
(270,25,l),
(195,31,o),
(167,57,o),
(194,130,cs),
(353,564,l),
(320,576,l),
(255,404,o),
(187,198,o),
(125,83,cs),
(106,49,o),
(62,25,o),
(18,25,c),
(18,0,l)
);
},
{
closed = 1;
nodes = (
(468,258,l),
(454,298,l),
(231,298,l),
(214,258,l)
);
}
);
width = 702;
}
);
unicode = 65;
},
{
glyphname = AE;
lastChange = "2025-01-27 09:18:17 +0000";
layers = (
{
anchors = (
{
name = bottom;
pos = (450,0);
},
{
name = top;
pos = (450,616);
}
);
color = 10;
layerId = m005;
shapes = (
{
closed = 1;
nodes = (
(270,0,l),
(270,23,l),
(193,23,o),
(156,60,o),
(195,130,cs),
(457,596,l),
(406,617,l),
(325,451,o),
(185,198,o),
(123,83,cs),
(104,49,o),
(60,25,o),
(18,25,c),
(18,0,l)
);
},
{
closed = 1;
nodes = (
(528,274,l),
(514,314,l),
(253,314,l),
(236,274,l)
);
},
{
closed = 1;
nodes = (
(401,-1,o),
(449,0,o),
(494,0,c),
(639,0,o),
(765,-1,o),
(842,-3,c),
(856,44,o),
(866,110,o),
(866,157,c),
(837,157,l),
(825,90,o),
(786,45,o),
(743,42,cs),
(711,40,o),
(679,39,o),
(624,39,cs),
(586,39,o),
(554,51,o),
(546,68,cs),
(543,74,o),
(541,90,o),
(541,107,cs),
(539,309,ls),
(539,328,o),
(541,407,o),
(541,509,c),
(541,577,l),
(619,577,o),
(623,579,o),
(692,575,cs),
(717,573,o),
(740,544,o),
(748,499,c),
(782,499,l),
(783,536,o),
(788,586,o),
(795,619,c),
(730,617,o),
(627,616,o),
(504,616,c),
(455,616,o),
(358,617,o),
(333,619,c),
(330,598,l),
(372,586,o),
(380,574,o),
(393,567,c),
(464,567,l),
(465,312,l),
(463,91,ls),
(463,64,o),
(451,40,o),
(435,32,cs),
(433,31,o),
(413,25,o),
(378,21,c),
(378,-3,l)
);
},
{
closed = 1;
nodes = (
(729,184,l),
(723,250,o),
(723,342,o),
(729,408,c),
(701,408,l),
(700,402,o),
(697,388,o),
(692,374,c),
(678,338,o),
(684,314,o),
(626,314,cs),
(486,314,l),
(486,274,l),
(626,274,ls),
(691,274,o),
(683,253,o),
(693,220,cs),
(697,208,o),
(700,196,o),
(703,184,c)
);
}
);
width = 900;
}
);
unicode = 198;
},
{
glyphname = B;
lastChange = "2025-01-27 09:18:17 +0000";
layers = (
{
anchors = (
{
name = bottom;
pos = (288,0);
},
{
name = center;
pos = (144,154);
},
{
name = top;
pos = (288,616);
}
);
color = 2;
guides = (
{
angle = 270;
pos = (18,13);
}
);
layerId = m005;
shapes = (
{
closed = 1;
nodes = (
(18,0,l),
(309,0,l),
(309,40,l),
(264,40,o),
(223,34,o),
(204,50,cs),
(195,58,o),
(185,73,o),
(185,91,cs),
(185,307,o),
(185,377,o),
(185,574,c),
(202,576,o),
(266,576,o),
(289,576,c),
(289,616,l),
(18,616,l),
(18,591,l),
(54,586,o),
(78,582,o),
(92,572,cs),
(102,565,o),
(107,552,o),
(107,525,cs),
(108,341,o),
(109,253,o),
(109,312,cs),
(109,373,o),
(108,282,o),
(107,91,cs),
(107,65,o),
(101,51,o),
(92,43,cs),
(76,29,o),
(50,31,o),
(18,25,c)
);
},
{
closed = 1;
nodes = (
(177,318,o),
(189,318,o),
(217,318,cs),
(379,318,o),
(482,378,o),
(482,481,cs),
(482,560,o),
(402,616,o),
(289,616,c),
(289,576,l),
(350,576,o),
(393,529,o),
(393,462,cs),
(393,387,o),
(324,348,o),
(210,348,cs),
(150,348,l),
(151,318,l)
);
},
{
closed = 1;
nodes = (
(434,0,o),
(522,79,o),
(522,191,cs),
(522,280,o),
(437,333,o),
(316,338,cs),
(132,346,l),
(132,314,l),
(154,314,o),
(166,314,o),
(203,314,cs),
(338,314,o),
(431,263,o),
(431,171,cs),
(431,94,o),
(379,40,o),
(309,40,c),
(309,0,l)
);
}
);
width = 576;
}
);
unicode = 66;
},
{
glyphname = C;
lastChange = "2025-01-27 09:18:17 +0000";
layers = (
{
anchors = (
{
name = bottom;
pos = (408,0);
},
{
name = top;
pos = (407,627);
}
);
background = {
shapes = (
{
closed = 1;
nodes = (
(418,588,l),
(514,588,o),
(584,528,o),
(589,444,c),
(620,444,l),
(622,495,o),
(629,558,o),
(636,595,c),
(586,614,o),
(492,627,o),
(410,627,c)
);
}
);
};
backgroundImage = {
imagePath = "../../Desktop/Bildschirmfoto 2024-12-24 um 08.52.09.png";
pos = (714,-952);
scale = (-1.4,1.4);
};
color = 4;
layerId = m005;
shapes = (
{
closed = 1;
nodes = (
(479,-11,o),
(572,9,o),
(628,38,c),
(646,106,o),
(662,174,o),
(666,201,c),
(630,200,l),
(606,102,o),
(520,33,o),
(422,33,cs),
(268,33,o),
(149,158,o),
(149,335,cs),
(149,482,o),
(267,588,o),
(416,588,cs),
(514,588,o),
(585,528,o),
(589,444,c),
(620,444,l),
(622,489,o),
(629,551,o),
(636,595,c),
(586,614,o),
(490,627,o),
(404,627,cs),
(197,627,o),
(54,496,o),
(54,312,cs),
(54,123,o),
(197,-11,o),
(404,-11,cs)
);
}
);
width = 720;
},
{
anchors = (
{
name = bottom;
pos = (408,0);
},
{
name = top;
pos = (407,616);
}
);
associatedMasterId = m005;
background = {
shapes = (
{
closed = 1;
nodes = (
(418,588,l),
(514,588,o),
(584,528,o),
(589,444,c),
(620,444,l),
(622,495,o),
(629,558,o),
(636,595,c),
(586,614,o),
(492,627,o),
(410,627,c)
);
}
);
};
backgroundImage = {
imagePath = "../../Desktop/Bildschirmfoto 2024-12-24 um 08.52.09.png";
pos = (714,-952);
scale = (-1.4,1.4);
};
color = 4;
layerId = "A8205263-60D0-4B63-B521-8F6B441CF343";
name = "11. Jan. 25, 13:19";
shapes = (
{
closed = 1;
nodes = (
(479,-11,o),
(572,9,o),
(628,38,c),
(646,106,o),
(662,174,o),
(666,201,c),
(630,200,l),
(606,102,o),
(520,33,o),
(422,33,cs),
(268,33,o),
(156,158,o),
(156,335,cs),
(156,482,o),
(265,586,o),
(414,586,cs),
(506,586,o),
(582,522,o),
(597,432,c),
(637,432,l),
(634,599,l),
(584,573,l),
(551,605,o),
(477,627,o),
(404,627,cs),
(197,627,o),
(54,496,o),
(54,312,cs),
(54,123,o),
(197,-11,o),
(404,-11,cs)
);
}
);
width = 720;
}
);
unicode = 67;
},
{
glyphname = D;
lastChange = "2025-01-27 09:18:17 +0000";
layers = (
{
anchors = (
{
name = bottom;
pos = (351,0);
},
{
name = center;
pos = (176,308);
},
{
name = top;
pos = (351,616);
}
);
background = {
shapes = (
{
closed = 1;
nodes = (
(20,0,l),
(303,0,l),
(303,40,l),
(258,40,o),
(223,38,o),
(204,54,cs),
(195,62,o),
(190,73,o),
(190,91,cs),
(188,307,o),
(187,377,o),
(191,574,c),
(208,576,o),
(260,576,o),
(283,576,c),
(283,616,l),
(20,616,l),
(20,591,l),
(54,581,o),
(78,582,o),
(92,572,cs),
(102,565,o),
(107,552,o),
(107,525,cs),
(108,341,o),
(109,253,o),
(109,312,cs),
(109,373,o),
(108,282,o),
(107,91,cs),
(107,65,o),
(101,51,o),
(92,43,cs),
(76,29,o),
(50,31,o),
(20,25,c)
);
}
);
};
backgroundImage = {
imagePath = "../../Desktop/Bildschirmfoto 2024-12-24 um 13.06.05.png";
pos = (759,-1011);
scale = (-1.4,1.4);
};
color = 2;
layerId = m005;
shapes = (
{
closed = 1;
nodes = (
(18,0,l),
(41,0,o),
(103,0,o),
(145,0,cs),
(145,0,o),
(186,1,o),
(304,-3,c),
(318,38,l),
(266,38,o),
(227,33,o),
(204,55,cs),
(195,63,o),
(190,74,o),
(190,91,cs),
(190,189,o),
(190,476,o),
(191,574,c),
(237,577,o),
(269,578,o),
(315,578,c),
(331,619,l),
(250,618,o),
(188,616,o),
(148,616,c),
(102,616,o),
(49,616,o),
(18,616,c),
(18,590,l),
(56,583,o),
(79,582,o),
(92,572,cs),
(103,565,o),
(107,552,o),
(107,525,cs),
(108,411,o),
(109,323,o),
(109,312,cs),
(109,302,o),
(108,210,o),
(107,91,cs),
(107,66,o),
(102,52,o),
(92,43,cs),
(78,31,o),
(53,30,o),
(18,25,c)
);
},
{
closed = 1;
nodes = (
(304,-3,l),
(505,-2,o),
(648,135,o),
(648,327,cs),
(648,498,o),
(517,619,o),
(331,619,c),
(315,578,l),
(456,578,o),
(555,462,o),
(555,298,cs),
(555,146,o),
(457,38,o),
(318,38,c)
);
}
);
width = 702;
}
);
unicode = 68;
},
{
glyphname = Dcroat;
lastChange = "2025-01-27 09:18:17 +0000";
layers = (
{
layerId = m005;
shapes = (
{
closed = 1;
nodes = (
(43,268,l),
(270,351,l),
(258,388,l),
(30,305,l)
);
},
{
ref = D;
}
);
width = 702;
}
);
unicode = 272;
},
{
glyphname = Dtail;
lastChange = "2025-01-27 09:18:17 +0000";
layers = (
{
layerId = m005;
shapes = (
{
ref = D;
},
{
closed = 1;
nodes = (
(36,298,l),
(261,299,l),
(261,339,l),
(36,339,l)
);
}
);
width = 702;
}
);
unicode = 393;
},
{
glyphname = E;
lastChange = "2025-01-27 09:18:17 +0000";
layers = (
{
anchors = (
{
name = bottom;
pos = (288,0);
},
{
name = ogonek;
pos = (500,10);
},
{
name = top;
pos = (283,616);
},
{
name = topleft;
pos = (20,616);
}
);
background = {
shapes = (
{
closed = 1;
nodes = (
(20,0,l),
(303,0,l),
(303,40,l),
(258,40,o),
(223,38,o),
(204,54,cs),
(195,62,o),
(190,73,o),
(190,91,cs),
(188,307,o),
(187,377,o),
(191,574,c),
(208,576,o),
(260,576,o),
(283,576,c),
(283,616,l),
(20,616,l),
(20,591,l),
(54,581,o),
(78,582,o),
(92,572,cs),
(102,565,o),
(107,552,o),
(107,525,cs),
(108,341,o),
(109,253,o),
(109,312,cs),
(109,373,o),
(108,282,o),
(107,91,cs),
(107,65,o),
(101,51,o),
(92,43,cs),
(76,29,o),
(50,31,o),
(20,25,c)
);
}
);
};
color = 2;
layerId = m005;
shapes = (
{
closed = 1;
nodes = (
(45,-1,o),
(93,0,o),
(138,0,c),
(281,0,o),
(439,-1,o),
(516,-3,c),
(528,44,o),
(538,110,o),
(540,157,c),
(511,157,l),
(499,90,o),
(460,43,o),
(417,40,cs),
(385,38,o),
(321,37,o),
(264,37,cs),
(230,37,o),
(214,42,o),
(203,52,cs),
(193,62,o),
(190,76,o),
(190,96,cs),
(190,265,o),
(189,416,o),
(191,576,c),
(228,578,o),
(257,578,o),
(279,578,cs),
(307,578,o),
(342,578,o),
(374,576,cs),
(399,574,o),
(422,544,o),
(430,499,c),
(464,499,l),
(465,536,o),
(470,586,o),
(477,619,c),
(412,617,o),
(269,616,o),
(148,616,c),
(99,616,o),
(47,617,o),
(18,618,c),
(18,589,l),
(53,584,o),
(77,581,o),
(92,567,cs),
(101,558,o),
(107,544,o),
(107,521,cs),
(109,376,o),
(109,236,o),
(107,91,cs),
(107,67,o),
(102,52,o),
(92,42,cs),
(78,29,o),
(55,26,o),
(18,23,c),
(18,-2,l)
);
},
{
closed = 1;
nodes = (
(398,206,l),
(393,272,o),
(393,364,o),
(398,430,c),
(372,430,l),
(371,424,o),
(366,410,o),
(361,396,c),
(344,360,o),
(321,336,o),
(261,336,cs),
(131,336,l),
(131,296,l),
(261,296,ls),
(328,296,o),
(350,274,o),
(362,242,cs),
(373,206,l)
);
}
);
width = 576;
}
);
unicode = 69;
},
{
glyphname = Eopen;
lastChange = "2025-01-27 09:18:17 +0000";
layers = (
{
anchors = (
{
name = bottom;
pos = (408,0);
},
{
name = top;
pos = (407,616);
}
);
layerId = m005;
shapes = (
{
closed = 1;
nodes = (
(347,-11,o),
(445,37,o),
(498,104,c),
(476,126,l),
(438,83,o),
(374,53,o),
(321,53,cs),
(215,53,o),
(140,110,o),
(140,191,cs),
(140,224,o),
(178,264,o),
(231,287,c),
(235,286,l),
(240,290,l),
(266,301,o),
(307,312,o),
(339,317,c),
(329,351,l),
(220,370,o),
(143,434,o),
(143,505,cs),
(143,554,o),
(206,589,o),
(294,589,cs),
(359,589,o),
(407,529,o),
(409,444,c),
(440,444,l),
(443,494,o),
(449,557,o),
(456,595,c),
(420,614,o),
(363,627,o),
(318,627,cs),
(173,627,o),
(70,554,o),
(70,451,cs),
(70,398,o),
(120,340,o),
(191,310,c),
(111,272,o),
(54,198,o),
(54,131,cs),
(54,48,o),
(141,-11,o),
(263,-11,cs)
);
}
);
width = 540;
}
);
unicode = 400;
},
{
glyphname = Schwa;
lastChange = "2025-01-27 09:18:17 +0000";
layers = (
{
anchors = (
{
name = bottom;
pos = (256,8);
},
{
name = ogonek;
pos = (138,593);
},
{
name = top;
pos = (239,616);
}
);
layerId = m005;
shapes = (
{
closed = 1;
nodes = (
(77,529,l),
(113,551,o),
(176,566,o),
(229,566,cs),
(332,566,o),
(405,442,o),
(405,279,cs),
(405,133,o),
(357,30,o),
(267,30,cs),
(197,30,o),
(129,104,o),
(125,209,c),
(417,214,l),
(423,246,l),
(36,251,l),
(36,234,l),
(36,91,o),
(133,-11,o),
(248,-11,cs),
(397,-11,o),
(486,124,o),
(486,314,cs),
(486,497,o),
(391,626,o),
(256,626,cs),
(188,626,o),
(108,597,o),
(61,557,c)
);
}
);
width = 522;
}
);
unicode = 399;
},
{
glyphname = F;
lastChange = "2025-01-27 09:18:17 +0000";
layers = (
{
anchors = (
{
name = bottom;
pos = (243,0);
},
{
name = top;
pos = (261,616);
}
);
background = {
shapes = (
{
closed = 1;
nodes = (
(20,0,l),
(303,0,l),
(303,40,l),
(258,40,o),
(223,38,o),
(204,54,cs),
(195,62,o),
(190,73,o),
(190,91,cs),
(188,307,o),
(187,377,o),
(191,574,c),
(208,576,o),
(260,576,o),
(283,576,c),
(283,616,l),
(20,616,l),
(20,591,l),
(54,581,o),
(78,582,o),
(92,572,cs),
(102,565,o),
(107,552,o),
(107,525,cs),
(108,341,o),
(109,253,o),
(109,312,cs),
(109,373,o),
(108,282,o),
(107,91,cs),
(107,65,o),
(101,51,o),
(92,43,cs),
(76,29,o),
(50,31,o),
(20,25,c)
);
}
);
};
color = 2;
layerId = m005;
shapes = (
{
closed = 1;
nodes = (
(45,0,o),
(251,0,o),
(306,0,c),
(306,29,l),
(254,35,o),
(221,35,o),
(203,54,cs),
(194,64,o),
(189,79,o),
(189,103,cs),
(187,260,o),
(188,421,o),
(191,578,c),
(212,579,o),
(261,580,o),
(283,580,cs),
(311,580,o),
(333,580,o),
(365,578,cs),
(390,576,o),
(412,544,o),
(420,499,c),
(452,499,l),
(454,536,o),
(461,586,o),
(468,619,c),
(403,617,o),
(268,616,o),
(148,616,c),
(99,616,o),
(48,617,o),
(19,618,c),
(19,592,l),
(54,586,o),
(77,584,o),
(92,572,cs),
(101,563,o),
(107,550,o),
(107,525,cs),
(109,380,o),
(109,236,o),
(107,91,cs),
(107,67,o),
(103,53,o),
(94,44,cs),
(81,30,o),
(58,27,o),
(18,23,c),
(18,-1,l)
);
},
{
closed = 1;
nodes = (
(393,206,l),
(387,272,o),
(387,364,o),
(393,430,c),
(368,430,l),
(367,424,o),
(362,410,o),
(357,396,c),
(340,360,o),
(317,336,o),
(275,336,cs),
(141,336,l),
(141,296,l),
(275,296,ls),
(324,296,o),
(346,274,o),
(358,242,cs),
(369,206,l)
);
}
);
width = 486;
}
);
unicode = 70;
},
{
glyphname = Fhook;
lastChange = "2025-01-27 09:18:17 +0000";
layers = (
{
layerId = m005;
shapes = (
{
closed = 1;
nodes = (
(189,148,l),
(187,305,o),
(188,421,o),
(191,578,c),
(212,579,o),
(261,580,o),
(283,580,cs),
(311,580,o),
(333,580,o),
(365,578,cs),
(390,576,o),
(412,544,o),
(420,499,c),
(452,499,l),
(454,536,o),
(461,586,o),
(468,619,c),
(403,617,o),
(268,616,o),
(148,616,c),
(99,616,o),
(48,617,o),
(19,618,c),
(19,592,l),
(54,586,o),
(77,584,o),
(92,572,cs),
(101,563,o),
(107,550,o),
(107,525,cs),
(109,380,o),
(110,226,o),
(108,81,c)
);
},
{
closed = 1;
nodes = (
(393,206,l),
(387,272,o),
(387,364,o),
(393,430,c),
(368,430,l),
(367,424,o),
(362,410,o),
(357,396,c),
(340,360,o),
(317,336,o),
(275,336,cs),
(141,336,l),
(141,296,l),
(275,296,ls),
(324,296,o),
(346,274,o),
(358,242,cs),
(369,206,l)
);
},
{
closed = 1;
nodes = (
(108,81,l),
(108,33,o),
(108,-90,o),
(77,-138,cs),
(70,-150,o),
(60,-157,o),
(48,-157,cs),
(29,-158,o),
(27,-135,o),
(8,-134,cs),
(-25,-134,o),
(-48,-163,o),
(-48,-205,cs),
(-48,-220,o),
(-30,-232,o),
(-4,-232,cs),
(30,-232,o),
(85,-190,o),
(103,-164,cs),
(150,-96,o),
(191,29,o),
(189,148,c)
);
}
);
width = 486;
}
);
unicode = 401;
},
{
glyphname = G;
lastChange = "2025-01-27 09:18:17 +0000";
layers = (
{
anchors = (
{
name = bottom;
pos = (360,0);
},
{
name = top;
pos = (396,626);
}
);
backgroundImage = {
imagePath = "../../Desktop/Bildschirmfoto 2024-12-23 um 19.38.00.png";
pos = (715,-876);
scale = (-1.37,1.3692);
};
color = 3;
layerId = m005;
shapes = (
{
closed = 1;
nodes = (
(488,-11,o),
(589,11,o),
(644,43,c),
(640,56,l),
(622,57,o),
(612,67,o),
(612,79,c),
(612,200,l),
(612,225,o),
(625,247,o),
(648,252,c),
(684,258,l),
(684,287,l),
(432,287,l),
(432,253,l),
(485,244,o),
(529,225,o),
(529,188,c),
(529,76,l),
(529,55,o),
(494,33,o),
(449,33,cs),
(267,33,o),
(149,141,o),
(149,333,cs),
(149,482,o),
(263,588,o),
(418,588,cs),
(514,588,o),
(584,528,o),
(589,444,c),
(620,444,l),
(622,495,o),
(629,558,o),
(636,595,c),
(586,614,o),
(492,627,o),
(410,627,cs),
(205,627,o),
(54,495,o),
(54,308,cs),
(54,121,o),
(203,-11,o),
(404,-11,cs)
);
}
);
width = 720;
}
);
unicode = 71;
},
{
glyphname = H;
lastChange = "2025-01-27 09:18:17 +0000";
layers = (
{
anchors = (
{
name = bottom;
pos = (378,0);
},
{
name = center;
pos = (378,462);
},
{
name = top;
pos = (378,616);
},
{
name = topleft;
pos = (20,616);
}
);
background = {
shapes = (
{
closed = 1;
nodes = (
(180,609,l,{
"Letterink-NibData" = {
AngleInDegrees = "0";
};
}),
(176,616,l,{
"Letterink-NibData" = {
AngleInDegrees = "360";
};
}),
(107,576,l),
(107,7,l,{
"Letterink-NibData" = {
AngleInDegrees = "360";
};
}),
(111,0,l,{
"Letterink-NibData" = {
AngleInDegrees = "360";
};
}),
(180,40,l),
(180,304,l),
(594,304,l),
(594,7,l,{
"Letterink-NibData" = {
AngleInDegrees = "360";
};
}),
(598,0,l,{
"Letterink-NibData" = {
AngleInDegrees = "360";
};
}),
(668,40,l),
(668,609,l,{
"Letterink-NibData" = {
AngleInDegrees = "0";
};
}),
(664,616,l,{
"Letterink-NibData" = {
AngleInDegrees = "359.99999";
};
}),
(594,576,l),
(594,351,l),
(180,351,l)
);
},
{
closed = 0;
nodes = (
(252,616,l),
(252,591,l),
(224,583,o),
(206,576,o),
(195,564,cs),
(186,553,o),
(182,538,o),
(182,512,cs)
);
}
);
};
color = 1;
layerId = m005;
shapes = (
{
closed = 1;
nodes = (
(288,0,l),
(288,25,l),
(257,33,o),
(214,39,o),
(203,51,cs),
(193,61,o),
(188,77,o),
(188,104,cs),
(187,178,o),
(187,252,o),
(186,326,cs),
(185,388,o),
(187,450,o),
(188,512,cs),
(188,539,o),
(194,556,o),
(203,565,cs),
(214,577,o),
(257,583,o),
(288,591,c),
(288,616,l),
(18,616,l),
(18,591,l),
(40,583,o),
(83,576,o),
(94,564,cs),
(103,553,o),
(107,538,o),
(107,512,cs),
(108,450,o),
(109,389,o),
(109,327,cs),
(109,253,o),
(108,178,o),
(107,104,cs),
(107,78,o),
(103,63,o),
(94,52,cs),
(83,40,o),
(40,33,o),
(18,25,c),
(18,0,l)
);
},
{
closed = 1;
nodes = (
(738,0,l),
(738,25,l),
(717,33,o),
(675,39,o),
(664,51,cs),
(654,61,o),
(649,77,o),
(649,104,cs),
(648,179,o),
(648,255,o),
(647,330,cs),
(646,391,o),
(648,451,o),
(649,512,cs),
(649,539,o),
(653,554,o),
(664,565,cs),
(675,577,o),
(717,583,o),
(738,591,c),
(738,616,l),
(468,616,l),
(468,591,l),
(500,583,o),
(544,576,o),
(555,564,cs),
(564,553,o),
(568,538,o),
(568,512,cs),
(569,451,o),
(570,390,o),
(570,329,cs),
(570,254,o),
(569,179,o),
(568,104,cs),
(568,78,o),
(564,63,o),
(555,52,cs),
(544,40,o),
(500,33,o),
(468,25,c),
(468,0,l)
);
},
{
closed = 1;
nodes = (
(601,304,l),
(601,349,l),
(154,349,l),
(154,304,l)
);
}
);
width = 756;
}
);
note = H;
unicode = 72;
},
{
glyphname = Hbar;
lastChange = "2025-01-27 09:18:17 +0000";
layers = (
{
layerId = m005;
shapes = (
{
ref = H;
},
{
closed = 1;
nodes = (
(55,469,l),
(703,469,l),
(703,509,l),
(55,509,l)
);
}
);
width = 756;
}
);
unicode = 294;
},
{
glyphname = I;
lastChange = "2025-01-27 09:18:17 +0000";
layers = (
{
anchors = (
{
name = bottom;
pos = (144,0);
},
{
name = ogonek;
pos = (259,10);
},
{
name = top;
pos = (144,616);
},
{
name = topleft;
pos = (20,616);
}
);
background = {
shapes = (
{
closed = 1;
nodes = (
(182,40,l),
(182,609,l,{
"Letterink-NibData" = {
AngleInDegrees = "0";
};
}),
(178,616,l,{
"Letterink-NibData" = {
AngleInDegrees = "360";
};
}),
(109,576,l),
(109,7,l,{
"Letterink-NibData" = {
AngleInDegrees = "360";
};
}),
(113,0,l,{
"Letterink-NibData" = {
AngleInDegrees = "360";
};
})
);
}
);
};
color = 1;
layerId = m005;
shapes = (
{
closed = 1;
nodes = (
(18,0,l),
(270,0,l),
(270,25,l),
(231,31,o),
(208,32,o),
(196,41,cs),
(185,49,o),
(181,63,o),
(181,91,cs),
(179,217,o),
(181,327,o),
(181,525,cs),
(181,555,o),
(190,570,o),
(205,577,cs),
(222,586,o),
(246,586,o),
(270,591,c),
(270,616,l),
(18,616,l),
(18,593,l),
(55,587,o),
(79,586,o),
(92,575,cs),
(102,566,o),
(107,552,o),
(107,525,cs),
(109,382,o),
(109,234,o),
(107,91,cs),
(107,62,o),
(103,47,o),
(93,39,cs),
(78,27,o),
(53,30,o),
(18,25,c)
);
}
);
width = 288;
}
);
note = I;
unicode = 73;
},
{
glyphname = J;
lastChange = "2025-01-27 09:18:17 +0000";
layers = (
{
anchors = (
{
name = bottom;
pos = (135,0);
},
{
name = top;
pos = (135,616);
}
);
color = 1;
layerId = m005;
shapes = (
{
closed = 1;
nodes = (
(30,-232,o),
(85,-190,o),
(103,-164,cs),
(150,-96,o),
(183,29,o),
(181,148,cs),
(179,341,o),
(179,332,o),
(181,525,cs),
(181,555,o),
(186,569,o),
(199,577,cs),
(213,584,o),
(236,585,o),
(270,591,c),
(270,616,l),
(18,616,l),
(18,591,l),
(53,587,o),
(77,586,o),
(92,574,cs),
(103,565,o),
(108,551,o),
(108,525,cs),
(108,81,ls),
(108,33,o),
(108,-90,o),
(77,-138,cs),
(70,-150,o),
(60,-157,o),
(48,-157,cs),
(29,-158,o),
(27,-135,o),
(8,-134,cs),
(-25,-134,o),
(-48,-163,o),
(-48,-205,cs),
(-48,-220,o),
(-30,-232,o),
(-4,-232,cs)
);
}
);
width = 270;
}
);
unicode = 74;
},
{
glyphname = K;
lastChange = "2025-01-27 09:18:17 +0000";
layers = (
{
anchors = (
{
name = bottom;
pos = (315,0);
},
{
name = top;
pos = (315,616);
}
);
background = {
shapes = (
{
closed = 0;
nodes = (
(471,91,l),
(471,55,o),
(465,41,o),
(444,31,cs),
(433,26,o),
(415,25,o),
(388,18,c),
(388,0,l),
(633,0,l),
(633,18,l),
(587,31,o),
(564,33,o),
(555,51,cs),
(551,60,o),
(549,73,o),
(549,91,c)
);
},
{
closed = 0;
nodes = (
(493,525,l),
(493,561,o),
(499,575,o),
(520,585,cs),
(531,590,o),
(549,591,o),
(576,598,c),
(576,616,l),
(331,616,l),
(331,598,l),
(377,585,o),
(400,583,o),
(409,565,cs),
(413,556,o),
(415,543,o),
(415,525,cs)
);
}
);
};
color = 2;
layerId = m005;
shapes = (
{
closed = 1;
nodes = (
(18,0,l),
(270,0,l),
(270,18,l),
(235,27,o),
(215,29,o),
(204,36,cs),
(192,44,o),
(184,58,o),
(184,91,cs),
(183,156,o),
(184,424,o),
(185,525,cs),
(185,556,o),
(191,572,o),
(204,581,cs),
(217,590,o),
(238,594,o),
(270,598,c),
(270,616,l),
(18,616,l),
(18,592,l),
(69,585,o),
(92,583,o),
(101,565,cs),
(105,556,o),
(107,543,o),
(107,525,cs),
(109,382,o),
(109,234,o),
(107,91,cs),
(107,66,o),
(102,52,o),
(92,44,cs),
(78,33,o),
(54,33,o),
(18,25,c)
);
},
{
closed = 1;
nodes = (
(417,503,l),
(453,540,o),
(498,574,o),
(526,586,cs),
(540,592,o),
(570,597,o),
(576,598,c),
(576,616,l),
(342,616,l),
(342,598,l),
(366,593,o),
(390,580,o),
(390,557,cs),
(390,543,o),
(381,526,o),
(363,505,c),
(138,267,l),
(161,240,l)
);
},
{
closed = 1;
nodes = (
(630,18,l),
(567,34,o),
(536,48,o),
(486,99,c),
(251,362,l),
(193,301,l),
(265,217,o),
(393,72,o),
(422,40,cs),
(451,8,o),
(477,-4,o),
(520,-3,cs),
(630,0,l)
);
}
);
width = 630;
}
);
unicode = 75;
},
{
glyphname = L;
lastChange = "2025-01-27 09:18:17 +0000";
layers = (
{
anchors = (
{
name = bottom;
pos = (268,0);
},
{
name = center;
pos = (306,308);
},
{
name = top;
pos = (151,616);
},
{
name = topright;
pos = (323,616);
}
);
color = 2;
layerId = m005;
shapes = (
{
closed = 1;
nodes = (
(18,-3,l),
(108,-1,o),
(188,0,o),
(268,0,c),
(268,41,l),
(206,43,o),
(189,43,o),
(189,105,cs),
(187,234,o),
(186,318,o),
(189,517,cs),
(189,553,o),
(191,567,o),
(212,577,cs),
(223,582,o),
(241,585,o),
(270,588,c),
(270,616,l),
(20,616,l),
(20,592,l),
(55,587,o),
(78,585,o),
(91,576,cs),
(102,568,o),
(106,554,o),
(107,525,cs),
(110,382,o),
(109,234,o),
(106,91,cs),
(105,63,o),
(102,49,o),
(92,40,cs),
(79,30,o),
(57,29,o),
(18,23,c)
);
},
{
closed = 1;
nodes = (
(330,2,o),
(441,1,o),
(510,-3,c),
(546,102,o),
(576,177,o),
(576,177,c),
(549,189,l),
(508,98,o),
(428,47,o),
(356,45,c),
(312,44,o),
(289,41,o),
(268,41,c),
(268,0,l)
);
}
);
width = 612;
}
);
unicode = 76;
},
{
glyphname = Lslash;
lastChange = "2025-01-27 09:18:17 +0000";
layers = (
{
layerId = m005;
shapes = (
{
ref = L;
},
{
closed = 1;
nodes = (
(43,268,l),
(270,351,l),
(258,388,l),
(30,305,l)
);
}
);
width = 612;
}
);
unicode = 321;
},
{
glyphname = M;
lastChange = "2025-01-27 09:18:17 +0000";
layers = (
{
anchors = (
{
name = bottom;
pos = (432,0);
},
{
name = top;
pos = (432,616);
}
);
backgroundImage = {
angle = -0.3;
imagePath = "../../Desktop/Bildschirmfoto 2024-12-24 um 15.40.08.png";
pos = (847,-1015);
scale = (-1.4,1.4);
};
color = 1;
layerId = m005;
shapes = (
{
closed = 1;
nodes = (
(702,586,l),
(672,616,l),
(419,107,l),
(437,117,l),
(213,616,l),
(36,616,l),
(36,591,l),
(84,587,ls),
(113,584,o),
(143,565,o),
(154,540,cs),
(405,-16,l)
);
},
{
closed = 1;
nodes = (
(252,0,l),
(252,25,l),
(216,33,o),
(168,40,o),
(157,52,cs),
(148,63,o),
(143,79,o),
(144,105,cs),
(164,561,l),
(124,591,l),
(104,105,ls),
(103,78,o),
(98,60,o),
(89,51,cs),
(78,39,o),
(41,33,o),
(18,25,c),
(18,0,l)
);
},
{
closed = 1;
nodes = (
(846,0,l),
(846,25,l),
(806,33,o),
(782,41,o),
(772,51,cs),
(758,65,o),
(759,82,o),
(759,104,cs),
(757,216,o),
(755,401,o),
(755,529,cs),
(755,544,o),
(759,556,o),
(768,566,cs),
(780,578,o),
(798,586,o),
(828,591,c),
(828,616,l),
(672,616,l),
(679,104,ls),
(679,80,o),
(679,63,o),
(666,50,cs),
(650,34,o),
(613,27,o),
(594,25,c),
(594,0,l)
);
}
);
width = 866;
}
);
unicode = 77;
},
{
glyphname = N;
lastChange = "2025-01-27 09:18:17 +0000";
layers = (
{
anchors = (
{
name = bottom;
pos = (369,0);
},
{
name = top;
pos = (369,616);
}
);
color = 1;
layerId = m005;
shapes = (
{
closed = 1;
nodes = (
(648,-11,l),
(648,157,o),
(648,443,o),
(648,512,c),
(608,512,l),
(608,97,l),
(628,106,l),
(149,616,l),
(18,616,l),
(18,591,l),
(41,587,o),
(62,579,o),
(76,566,cs),
(95,548,o),
(129,514,o),
(129,514,c),
(622,-11,l)
);
},
{
closed = 1;
nodes = (
(252,0,l),
(252,25,l),
(216,28,o),
(175,35,o),
(161,52,cs),
(148,68,o),
(148,78,o),
(148,104,c),
(108,104,l),
(108,77,o),
(107,65,o),
(93,51,cs),
(76,34,o),
(39,33,o),
(18,25,c),
(18,0,l)
);
},
{
closed = 1;
nodes = (
(148,104,l),
(148,561,l),
(108,591,l),
(108,104,l)
);
},
{
closed = 1;
nodes = (
(648,512,l),
(648,542,o),
(653,558,o),
(665,567,cs),
(677,577,o),
(697,581,o),
(720,588,c),
(720,616,l),
(504,616,l),
(504,591,l),
(550,584,o),
(577,582,o),
(592,568,cs),
(603,557,o),
(608,541,o),
(608,512,c)
);
}
);
width = 738;
}
);
unicode = 78;
},
{
glyphname = Eng;
lastChange = "2025-01-27 09:18:17 +0000";
layers = (
{
layerId = m005;
shapes = (
{
closed = 1;
nodes = (
(628,96,l),
(149,616,l),
(18,616,l),
(18,591,l),
(41,587,o),
(62,579,o),
(76,566,cs),
(129,514,l),
(622,-11,l)
);
},
{
closed = 1;
nodes = (
(252,0,l),
(252,25,l),
(216,28,o),
(175,35,o),
(161,52,cs),
(148,68,o),
(148,78,o),
(148,104,c),
(108,104,l),
(108,77,o),
(107,65,o),
(93,51,cs),
(76,34,o),
(39,33,o),
(18,25,c),
(18,0,l)
);
},
{
closed = 1;
nodes = (
(148,104,l),
(148,561,l),
(108,591,l),
(108,104,l)
);
},
{
closed = 1;
nodes = (
(498,-232,o),
(553,-190,o),
(571,-164,cs),
(618,-96,o),
(651,29,o),
(650,130,cs),
(647,341,o),
(647,332,o),
(649,525,cs),
(649,555,o),
(654,569,o),
(667,577,cs),
(681,584,o),
(704,585,o),
(738,591,c),
(738,616,l),
(486,616,l),
(486,591,l),
(521,587,o),
(545,586,o),
(560,574,cs),
(571,565,o),
(576,551,o),
(576,525,cs),
(576,65,l),
(574,110,l),
(574,4,ls),
(574,-48,o),
(565,-107,o),
(545,-138,cs),
(538,-150,o),
(528,-157,o),
(516,-157,cs),
(497,-158,o),
(495,-135,o),
(476,-134,cs),
(443,-134,o),
(420,-163,o),
(420,-205,cs),
(420,-220,o),
(438,-232,o),
(464,-232,cs)
);
}
);
width = 738;
}
);
unicode = 330;
},
{
glyphname = O;
lastChange = "2025-01-27 09:18:17 +0000";
layers = (
{
anchors = (
{
name = bottom;
pos = (378,0);
},
{
name = center;
pos = (378,308);
},
{
name = ogonek;
pos = (680,10);
},
{
name = top;
pos = (378,626);
},
{
name = topleft;
pos = (20,616);
},
{
name = topright;
pos = (614,383);
}
);
background = {
shapes = (
{
closed = 1;
nodes = (
(646,111,o),
(701,209,o),
(704,323,c,{
"Letterink-NibData" = {
AngleInDegrees = "359.99999";
};
}),
(701,395,o),
(690,434,o),
(660,483,cs,{
"Letterink-NibData" = {
AngleInDegrees = "0";
};
}),
(599,582,o),
(513,633,o),
(409,633,cs),
(360,633,o),
(312,621,o),
(271,597,cs,{
"Letterink-NibData" = {
AngleInDegrees = "359.99999";
};
}),
(201,557,ls,{
"Letterink-NibData" = {
AngleInDegrees = "359.99999";
};
}),
(175,542,o),
(123,495,o),
(106,471,cs,{
"Letterink-NibData" = {
AngleInDegrees = "360";
};
}),
(66,415,o),
(48,359,o),
(48,290,cs),
(48,121,o),
(183,-21,o),
(343,-21,cs),
(392,-21,o),
(444,-7,o),
(488,19,cs,{
"Letterink-NibData" = {
AngleInDegrees = "360";
};
}),
(557,59,ls,{
"Letterink-NibData" = {
AngleInDegrees = "0";
};
})
);
},
{
closed = 1;
nodes = (
(482,32,o),
(450,26,o),
(409,26,cs),
(335,26,o),
(252,61,o),
(207,111,cs,{
"Letterink-NibData" = {
AngleInDegrees = "360";
};
}),
(195,123,o),
(182,141,o),
(162,168,c,{
"Letterink-NibData" = {
AngleInDegrees = "359.99999";
};
}),
(131,236,o),
(121,271,o),
(121,323,cs),
(121,425,o),
(159,501,o),
(243,566,c,{
"Letterink-NibData" = {
AngleInDegrees = "0";
};
}),
(285,583,o),
(301,586,o),
(343,586,cs),
(448,586,o),
(529,538,o),
(593,438,c,{
"Letterink-NibData" = {
AngleInDegrees = "359.99999";
};
}),
(620,389,o),
(631,347,o),
(631,289,cs,{
"Letterink-NibData" = {
AngleInDegrees = "359.99999";
};
}),
(629,192,o),
(586,102,o),
(515,47,c,{
"Letterink-NibData" = {
AngleInDegrees = "0";
};
})
);
}
);
};
color = 4;
layerId = m005;
shapes = (
{
closed = 1;
nodes = (
(570,-11,o),
(702,121,o),
(702,308,cs),
(702,494,o),
(570,626,o),
(375,626,cs),
(192,626,o),
(54,494,o),
(54,308,cs),
(54,121,o),
(192,-11,o),
(375,-11,cs)
);
},
{
closed = 1;
nodes = (
(150,474,o),
(241,585,o),
(358,585,cs),
(507,585,o),
(606,466,o),
(606,298,cs),
(606,141,o),
(521,30,o),
(392,30,cs),
(256,30,o),
(150,149,o),
(150,318,cs)
);
}
);
width = 756;
}
);
note = O;
unicode = 79;
},
{
glyphname = Oopen;
lastChange = "2025-01-27 09:18:17 +0000";
layers = (
{
layerId = m005;
shapes = (
{
closed = 1;
nodes = (
(241,627,o),
(148,607,o),
(92,578,c),
(74,510,o),
(58,442,o),
(54,415,c),
(90,416,l),
(114,514,o),
(200,583,o),
(298,583,cs),
(452,583,o),
(571,458,o),
(571,281,cs),
(571,134,o),
(453,28,o),
(304,28,cs),
(206,28,o),
(135,88,o),
(131,172,c),
(100,172,l),
(98,127,o),
(91,65,o),
(84,21,c),
(134,2,o),
(230,-11,o),
(316,-11,cs),
(523,-11,o),
(666,120,o),
(666,304,cs),
(666,493,o),
(523,627,o),
(316,627,cs)
);
}
);
width = 720;
}
);
unicode = 390;
},
{
glyphname = Oslash;
lastChange = "2025-01-27 09:18:17 +0000";
layers = (
{
layerId = m005;
shapes = (
{
ref = O;
},
{
closed = 1;
nodes = (
(79,38,l),
(107,10,l),
(675,578,l),
(647,606,l)
);
}
);
width = 756;
}
);
unicode = 216;
},
{
glyphname = OE;
lastChange = "2025-01-27 09:18:17 +0000";
layers = (
{
anchors = (
{
name = bottom;
pos = (540,0);
},
{
name = top;
pos = (540,616);
}
);
color = 10;
layerId = m005;
shapes = (
{
closed = 1;
nodes = (
(569,-11,o),
(656,121,o),
(656,308,cs),
(656,494,o),
(569,626,o),
(378,626,cs),
(189,626,o),
(56,494,o),
(56,308,cs),
(56,121,o),
(189,-11,o),
(378,-11,cs)
);
},
{
closed = 1;
nodes = (
(152,471,o),
(239,585,o),
(361,585,cs),
(506,585,o),
(584,463,o),
(584,298,cs),
(584,144,o),
(520,30,o),
(395,30,cs),
(253,30,o),
(152,152,o),
(152,318,cs)
);
},
{
closed = 1;
nodes = (
(590,-1,o),
(601,0,o),
(614,0,c),
(761,0,o),
(919,-1,o),
(996,-3,c),
(1010,44,o),
(1020,110,o),
(1020,157,c),
(991,157,l),
(979,90,o),
(940,45,o),
(897,42,cs),
(865,40,o),
(801,39,o),
(744,39,cs),
(706,39,o),
(674,51,o),
(666,68,cs),
(663,74,o),
(661,90,o),
(661,107,cs),
(659,309,ls),
(659,402,o),
(660,443,o),
(661,577,c),
(744,577,l),
(772,577,o),
(814,577,o),
(846,575,cs),
(871,573,o),
(894,544,o),
(902,499,c),
(936,499,l),
(937,536,o),
(942,586,o),
(949,619,c),
(884,617,o),
(749,616,o),
(624,616,c),
(592,617,o),
(601,617,o),
(576,619,c),
(584,529,l),
(583,525,l),
(585,312,l),
(583,91,l),
(584,88,l),
(576,-3,l)
);
},
{
closed = 1;
nodes = (
(883,206,l),
(877,272,o),
(877,364,o),
(883,430,c),
(856,430,l),
(856,424,o),
(851,410,o),
(846,396,c),
(829,360,o),
(806,336,o),
(746,336,cs),
(607,336,l),
(607,296,l),
(746,296,ls),
(813,296,o),
(835,274,o),
(847,242,cs),
(857,206,l)
);
}
);
width = 1080;
}
);
unicode = 338;
},
{
glyphname = P;
lastChange = "2025-01-27 09:18:17 +0000";
layers = (
{
anchors = (
{
name = bottom;
pos = (252,0);
},
{
name = top;
pos = (252,616);
}
);
background = {
anchors = (
{
name = bottom;
pos = (280,0);
},
{
name = center;
pos = (138,154);
},
{
name = top;
pos = (280,616);
}
);
shapes = (
{
closed = 1;
nodes = (
(20,0,l),
(303,0,l),
(303,40,l),
(258,40,o),
(223,38,o),
(204,54,cs),
(195,62,o),
(190,73,o),
(190,91,cs),
(188,307,o),
(187,377,o),
(191,574,c),
(208,576,o),
(260,576,o),
(283,576,c),
(283,616,l),
(20,616,l),
(20,591,l),
(54,581,o),
(78,582,o),
(92,572,cs),
(102,565,o),
(107,552,o),
(107,525,cs),
(108,341,o),
(109,253,o),
(109,312,cs),
(109,373,o),
(108,282,o),
(107,91,cs),
(107,65,o),
(101,51,o),
(92,43,cs),
(76,29,o),
(50,31,o),
(20,25,c)
);
},
{
closed = 1;
nodes = (
(177,318,o),
(189,318,o),
(217,318,cs),
(373,318,o),
(476,378,o),
(476,481,cs),
(476,560,o),
(396,616,o),
(283,616,c),
(283,576,l),
(344,576,o),
(387,529,o),
(387,462,cs),
(387,387,o),
(318,348,o),
(210,348,cs),
(150,348,l),
(151,318,l)
);
}
);
};
color = 2;
layerId = m005;
shapes = (
{
closed = 1;
nodes = (
(231,271,o),
(241,271,o),
(251,271,cs),
(380,271,o),
(468,337,o),
(468,448,cs),
(468,552,o),
(391,620,o),
(279,618,c),
(260,584,l),
(334,584,o),
(382,528,o),
(382,436,cs),
(382,346,o),
(319,295,o),
(220,295,c),
(220,272,l)
);
},
{
closed = 1;
nodes = (
(288,0,l),
(288,25,l),
(237,36,o),
(216,39,o),
(204,51,cs),
(194,61,o),
(191,78,o),
(190,111,cs),
(188,188,o),
(188,379,o),
(191,583,c),
(260,584,l),
(279,618,l),
(240,617,o),
(179,616,o),
(147,616,c),
(108,616,o),
(43,617,o),
(0,618,c),
(0,587,l),
(45,580,o),
(75,576,o),
(92,556,cs),
(102,545,o),
(107,531,o),
(107,507,cs),
(109,369,o),
(109,235,o),
(107,101,cs),
(107,75,o),
(103,60,o),
(94,49,cs),
(83,35,o),
(41,30,o),
(18,25,c),
(18,0,l)
);
}
);
width = 504;
}
);
unicode = 80;
},
{
glyphname = Thorn;
lastChange = "2025-01-27 09:18:17 +0000";
layers = (
{
layerId = m005;
shapes = (
{
closed = 1;
nodes = (
(270,0,l),
(270,25,l),
(237,36,o),
(216,39,o),
(204,51,cs),
(195,60,o),
(190,81,o),
(190,111,cs),
(190,113,o),
(188,302,o),
(191,506,cs),
(191,532,o),
(195,556,o),
(204,567,cs),
(215,581,o),
(257,586,o),
(288,591,c),
(288,616,l),
(18,616,l),
(18,591,l),
(61,580,o),
(83,576,o),
(94,565,cs),
(103,556,o),
(107,538,o),
(108,505,cs),
(108,474,o),
(109,156,o),
(107,101,cs),
(106,75,o),
(103,60,o),
(94,49,cs),
(83,35,o),
(41,30,o),
(18,25,c),
(18,0,l)
);
},
{
closed = 1;
nodes = (
(380,140,o),
(468,206,o),
(468,317,cs),
(468,421,o),
(391,489,o),
(279,487,c),
(260,453,l),
(334,453,o),
(382,397,o),
(382,305,cs),
(382,215,o),
(319,164,o),
(220,164,c),
(220,141,l),
(231,140,o),
(241,140,o),
(251,140,cs)
);
},
{
closed = 1;
nodes = (
(260,453,l),
(279,487,l),
(157,486,l),
(157,452,l)
);
}
);
width = 504;
}
);
unicode = 222;
},
{
glyphname = Q;
lastChange = "2025-01-27 09:18:17 +0000";
layers = (
{
anchors = (
{
name = bottom;
pos = (378,0);
},
{
name = top;
pos = (378,616);
}
);
background = {
shapes = (
{
closed = 1;
nodes = (
(567,-11,o),
(702,121,o),
(702,308,cs),
(702,494,o),
(567,626,o),
(376,626,cs),
(187,626,o),
(54,494,o),
(54,308,cs),
(54,121,o),
(187,-11,o),
(376,-11,cs)
);
},
{
closed = 1;
nodes = (
(150,471,o),
(237,585,o),
(359,585,cs),
(504,585,o),
(606,463,o),
(606,298,cs),
(606,144,o),
(518,30,o),
(393,30,cs),
(251,30,o),
(150,152,o),
(150,318,cs)
);
},
{
closed = 1;
nodes = (
(567,-11,o),
(702,121,o),
(702,308,cs),
(702,494,o),
(567,626,o),
(376,626,cs),
(187,626,o),
(54,494,o),
(54,308,cs),
(54,121,o),
(187,-11,o),
(376,-11,cs)
);
},
{
closed = 1;
nodes = (
(150,471,o),
(237,585,o),
(359,585,cs),
(504,585,o),
(606,463,o),
(606,298,cs),
(606,144,o),
(518,30,o),
(393,30,cs),
(251,30,o),
(150,152,o),
(150,318,cs)
);
}
);
};
backgroundImage = {
imagePath = "../../Desktop/Bildschirmfoto 2024-12-24 um 15.25.09.png";
pos = (965,-1126);
scale = (-1.4,1.4);
};
color = 4;
layerId = m005;
shapes = (
{
closed = 1;
nodes = (
(569,-11,o),
(702,121,o),
(702,308,cs),
(702,494,o),
(569,626,o),
(381,626,cs),
(189,626,o),
(54,494,o),
(54,308,cs),
(54,121,o),
(189,-11,o),
(381,-11,cs)
);
},
{
closed = 1;
nodes = (
(150,474,o),
(236,584,o),
(358,584,cs),
(503,584,o),
(606,466,o),
(606,298,cs),
(606,141,o),
(520,30,o),
(398,30,cs),
(253,30,o),
(150,149,o),
(150,318,cs)
);
},
{
closed = 1;
nodes = (
(630,-232,o),
(813,-232,cs),
(939,-232,o),
(1057,-202,o),
(1131,-153,c),
(1120,-133,l),
(1046,-163,o),
(957,-179,o),
(869,-179,cs),
(703,-179,o),
(537,-98,o),
(458,29,c),
(331,11,l),
(430,-144,o)
);
}
);
width = 756;
}
);
metricWidth = O;
unicode = 81;
},
{
glyphname = R;
lastChange = "2025-01-27 09:18:17 +0000";
layers = (
{
anchors = (
{
name = bottom;
pos = (315,0);
},
{
name = top;
pos = (236,616);
}
);
background = {
shapes = (
{
closed = 1;
nodes = (
(20,0,l),
(303,0,l),
(303,40,l),
(258,40,o),
(223,38,o),
(204,54,cs),
(195,62,o),
(190,73,o),
(190,91,cs),
(188,307,o),
(187,377,o),
(191,574,c),
(208,576,o),
(260,576,o),
(283,576,c),
(283,616,l),
(20,616,l),
(20,591,l),
(54,581,o),
(78,582,o),
(92,572,cs),
(102,565,o),
(107,552,o),
(107,525,cs),
(108,341,o),
(109,253,o),
(109,312,cs),
(109,373,o),
(108,282,o),
(107,91,cs),
(107,65,o),
(101,51,o),
(92,43,cs),
(76,29,o),
(50,31,o),
(20,25,c)
);
}
);
};
color = 2;
layerId = m005;
shapes = (
{
closed = 1;
nodes = (
(345,282,o),
(462,354,o),
(462,458,cs),
(462,550,o),
(379,620,o),
(271,618,c),
(252,576,l),
(322,576,o),
(376,526,o),
(376,446,cs),
(376,362,o),
(296,322,o),
(180,322,c),
(180,282,l)
);
},
{
closed = 1;
nodes = (
(288,0,l),
(288,27,l),
(249,31,o),
(211,41,o),
(200,53,cs),
(190,63,o),
(188,79,o),
(188,106,cs),
(188,374,o),
(187,454,o),
(191,574,c),
(252,576,l),
(271,618,l),
(222,617,o),
(194,616,o),
(145,616,c),
(106,615,o),
(65,617,o),
(19,618,c),
(19,592,l),
(54,585,o),
(85,579,o),
(96,567,cs),
(105,556,o),
(107,538,o),
(107,512,cs),
(109,376,o),
(109,238,o),
(107,104,cs),
(107,69,o),
(103,53,o),
(92,44,cs),
(80,34,o),
(60,32,o),
(18,25,c),
(18,0,l)
);
},
{
closed = 1;
nodes = (
(630,18,l),
(558,26,o),
(436,156,o),
(340,337,c),
(264,305,l),
(349,123,o),
(456,-5,o),
(528,-3,cs),
(630,0,l)
);
}
);
width = 630;
}
);
unicode = 82;
},
{
glyphname = S;
lastChange = "2025-01-27 09:18:17 +0000";
layers = (
{
anchors = (
{
name = bottom;
pos = (244,0);
},
{
name = top;
pos = (244,626);
}
);
color = 4;
layerId = m005;
shapes = (
{
closed = 1;
nodes = (
(344,-9,o),
(433,69,o),
(433,176,cs),
(433,341,o),
(123,354,o),
(126,492,cs),
(127,545,o),
(173,581,o),
(241,581,cs),
(316,581,o),
(363,517,o),
(357,453,c),
(396,453,l),
(395,508,o),
(396,576,o),
(400,593,c),
(350,611,o),
(282,624,o),
(241,624,cs),
(128,624,o),
(55,550,o),
(55,446,cs),
(55,272,o),
(359,279,o),
(359,136,cs),
(359,75,o),
(298,33,o),
(217,35,cs),
(142,37,o),
(93,104,o),
(95,197,c),
(54,197,l),
(57,171,o),
(58,104,o),
(57,36,c),
(122,10,o),
(188,-9,o),
(217,-9,cs)
);
}
);
width = 487;
}
);
unicode = 83;
},
{
glyphname = Germandbls;
lastChange = "2025-01-27 09:18:17 +0000";
layers = (
{
anchors = (
{
name = bottom;
pos = (297,0);
},
{
name = top;
pos = (297,616);
}
);
color = 10;
layerId = m005;
shapes = (
{
closed = 1;
nodes = (
(191,0,l),
(191,69,ls),
(191,327,o),
(191,505,o),
(190,499,c),
(189,578,l),
(286,578,l),
(337,616,l),
(152,616,ls),
(106,616,o),
(51,617,o),
(18,619,c),
(18,594,l),
(72,581,o),
(111,551,o),
(111,521,cs),
(111,521,o),
(111,334,o),
(111,69,cs),
(111,53,o),
(72,32,o),
(18,18,c),
(18,0,l)
);
},
{
closed = 1;
nodes = (
(495,-6,o),
(558,50,o),
(558,129,cs),
(558,247,o),
(374,256,o),
(374,334,cs),
(374,415,o),
(496,430,o),
(496,512,cs),
(496,573,o),
(430,616,o),
(337,616,c),
(286,578,l),
(362,578,o),
(411,542,o),
(411,491,cs),
(411,429,o),
(300,415,o),
(300,314,cs),
(300,194,o),
(485,199,o),
(485,108,cs),
(485,53,o),
(455,18,o),
(406,22,cs),
(358,26,o),
(320,67,o),
(314,122,c),
(287,122,l),
(289,106,o),
(289,58,o),
(288,6,c),
(314,-1,o),
(363,-6,o),
(406,-6,cs)
);
}
);
width = 594;
}
);
unicode = 7838;
},
{
glyphname = T;
lastChange = "2025-01-27 09:18:17 +0000";
layers = (
{
anchors = (
{
name = bottom;
pos = (306,0);
},
{
name = center;
pos = (306,308);
},
{
name = top;
pos = (306,616);
}
);
background = {
shapes = (
{
closed = 1;
nodes = (
(196,0,l),
(441,0,l),
(441,18,l),
(395,31,o),
(372,33,o),
(363,52,cs),
(359,60,o),
(358,73,o),
(358,91,cs),
(357,164,o),
(357,237,o),
(356,310,cs),
(355,382,o),
(357,453,o),
(358,525,cs),
(358,561,o),
(364,575,o),
(385,585,cs),
(396,590,o),
(414,591,o),
(441,598,c),
(441,616,l),
(196,616,l),
(196,598,l),
(242,585,o),
(265,583,o),
(274,565,cs),
(278,556,o),
(280,543,o),
(280,525,cs),
(281,454,o),
(282,383,o),
(282,312,cs),
(282,238,o),
(281,165,o),
(280,91,cs),
(280,55,o),
(273,42,o),
(252,32,cs),
(241,27,o),
(223,25,o),
(196,18,c)
);
}
);
};
color = 4;
layerId = m005;
shapes = (
{
closed = 1;
nodes = (
(468,0,l),
(468,28,l),
(393,42,o),
(349,46,o),
(347,100,cs),
(342,262,o),
(342,428,o),
(347,590,c),
(323,561,l),
(387,561,o),
(456,561,o),
(485,561,cs),
(521,561,o),
(568,559,o),
(573,447,c),
(612,451,l),
(611,515,o),
(606,579,o),
(595,643,c),
(583,643,l),
(528,616,l),
(371,613,o),
(218,613,o),
(76,616,c),
(28,653,l),
(20,648,l),
(8,581,o),
(2,515,o),
(0,448,c),
(39,446,l),
(44,561,o),
(79,561,o),
(143,561,cs),
(293,561,l),
(263,590,l),
(265,462,o),
(265,146,o),
(263,100,cs),
(261,54,o),
(220,41,o),
(144,28,c),
(144,0,l)
);
}
);
width = 612;
}
);
unicode = 84;
},
{
glyphname = U;
lastChange = "2025-01-27 09:18:17 +0000";
layers = (
{
anchors = (
{
name = bottom;
pos = (342,0);
},
{
name = ogonek;
pos = (475,10);
},
{
name = top;
pos = (360,616);
},
{
name = topright;
pos = (603,548);
}
);
color = 1;
layerId = m005;
shapes = (
{
closed = 1;
nodes = (
(486,-11,o),
(592,78,o),
(594,204,cs),
(596,339,o),
(593,431,o),
(594,514,cs),
(595,578,o),
(618,588,o),
(666,588,c),
(666,616,l),
(468,616,l),
(468,592,l),
(519,582,o),
(551,553,o),
(552,481,cs),
(553,387,o),
(554,303,o),
(552,208,cs),
(550,111,o),
(474,42,o),
(368,42,cs),
(270,42,o),
(189,102,o),
(173,188,cs),
(171,197,o),
(170,327,o),
(170,503,cs),
(170,570,o),
(203,588,o),
(252,592,c),
(252,616,l),
(18,616,l),
(18,585,l),
(48,579,o),
(90,567,o),
(90,511,cs),
(90,486,o),
(90,367,o),
(90,202,cs),
(90,77,o),
(193,-11,o),
(339,-11,cs)
);
}
);
width = 684;
}
);
unicode = 85;
},
{
glyphname = V;
lastChange = "2025-01-27 09:18:17 +0000";
layers = (
{
anchors = (
{
name = bottom;
pos = (351,0);
},
{
name = top;
pos = (351,616);
}
);
color = 4;
layerId = m005;
shapes = (
{
closed = 1;
nodes = (
(351,-24,l),
(420,153,o),
(550,444,o),
(577,505,cs),
(604,566,o),
(640,579,o),
(702,588,c),
(702,616,l),
(452,616,l),
(452,593,l),
(503,586,o),
(538,573,o),
(538,543,cs),
(538,521,o),
(525,488,o),
(510,452,cs),
(349,70,l),
(378,93,l),
(319,227,o),
(221,480,o),
(214,496,cs),
(207,512,o),
(202,528,o),
(202,543,cs),
(202,558,o),
(202,582,o),
(288,591,c),
(288,616,l),
(0,616,l),
(0,588,l),
(48,580,o),
(94,571,o),
(128,489,cs),
(338,-24,l)
);
}
);
width = 702;
}
);
unicode = 86;
},
{
glyphname = Vhook;
lastChange = "2025-01-27 09:18:17 +0000";
layers = (
{
background = {
shapes = (
{
closed = 1;
nodes = (
(368,42,l),
(255,42,o),
(191,89,o),
(173,186,cs),
(169,208,o),
(170,294,o),
(170,503,cs),
(170,570,o),
(203,588,o),
(252,592,c),
(252,616,l),
(18,616,l),
(18,585,l),
(48,579,o),
(90,567,o),
(90,511,cs),
(90,486,o),
(90,365,o),
(90,200,cs),
(90,58,o),
(172,-11,o),
(339,-11,c)
);
}
);
};
layerId = m005;
shapes = (
{
closed = 1;
nodes = (
(368,588,l),
(372,592,o),
(381,594,o),
(391,594,cs),
(446,594,o),
(485,471,o),
(485,297,c),
(576,332,l),
(576,504,o),
(511,626,o),
(418,626,cs),
(397,626,o),
(374,618,o),
(362,607,c)
);
},
{
closed = 1;
nodes = (
(485,297,l),
(482,141,o),
(425,30,o),
(332,30,cs),
(249,30,o),
(173,110,o),
(173,222,cs),
(173,244,o),
(170,294,o),
(170,503,cs),
(170,570,o),
(203,588,o),
(252,592,c),
(252,616,l),
(18,616,l),
(18,585,l),
(48,579,o),
(90,567,o),
(90,511,cs),
(90,486,o),
(90,401,o),
(90,236,cs),
(90,91,o),
(189,-11,o),
(303,-11,cs),
(471,-11,o),
(573,131,o),
(576,332,c)
);
}
);
width = 630;
}
);
unicode = 434;
},
{
glyphname = W;
lastChange = "2025-01-27 09:18:17 +0000";
layers = (
{
anchors = (
{
name = bottom;
pos = (459,0);
},
{
name = top;
pos = (459,616);
}
);
color = 4;
layerId = m005;
shapes = (
{
closed = 1;
nodes = (
(482,487,l),
(312,75,l),
(344,98,l),
(194,496,ls),
(169,562,o),
(150,582,o),
(234,591,c),
(234,616,l),
(0,616,l),
(0,588,l),
(30,579,o),
(78,572,o),
(110,489,cs),
(308,-24,l),
(321,-24,l),
(363,108,o),
(463,321,o),
(505,438,c)
);
},
{
closed = 1;
nodes = (
(639,-24,l),
(706,153,o),
(825,444,o),
(848,505,cs),
(871,566,o),
(871,576,o),
(936,588,c),
(936,616,l),
(738,616,l),
(738,591,l),
(822,570,o),
(818,533,o),
(785,452,cs),
(632,70,l),
(667,99,l),
(618,233,o),
(534,480,o),
(529,496,cs),
(505,572,o),
(507,582,o),
(574,591,c),
(574,616,l),
(340,616,l),
(340,591,l),
(386,584,o),
(418,572,o),
(447,489,cs),
(626,-24,l)
);
}
);
width = 936;
}
);
unicode = 87;
},
{
glyphname = X;
lastChange = "2025-01-27 09:18:17 +0000";
layers = (
{
anchors = (
{
name = bottom;
pos = (315,0);
},
{
name = top;
pos = (315,616);
}
);
color = 4;
guides = (
{
angle = 53;
pos = (574,661);
}
);
layerId = m005;
shapes = (
{
closed = 1;
nodes = (
(612,0,l),
(612,28,l),
(571,33,o),
(567,26,o),
(505,114,cs),
(338,351,o),
(342,351,o),
(222,512,cs),
(201,541,o),
(194,555,o),
(194,566,cs),
(194,581,o),
(209,586,o),
(260,591,c),
(260,616,l),
(18,616,l),
(18,588,l),
(52,588,o),
(68,587,o),
(133,494,cs),
(279,286,o),
(285,286,o),
(410,105,cs),
(430,76,o),
(441,58,o),
(441,47,cs),
(441,30,o),
(417,29,o),
(354,25,c),
(354,0,l)
);
},
{
closed = 1;
nodes = (
(216,0,l),
(216,25,l),
(184,28,o),
(162,32,o),
(162,54,cs),
(162,67,o),
(168,80,o),
(191,112,cs),
(329,308,l),
(295,333,l),
(125,101,ls),
(63,17,o),
(49,30,o),
(18,28,c),
(18,0,l)
);
},
{
closed = 1;
nodes = (
(488,504,ls),
(549,582,o),
(574,585,o),
(612,588,c),
(612,616,l),
(414,616,l),
(414,591,l),
(441,588,o),
(459,586,o),
(459,567,cs),
(459,550,o),
(442,517,o),
(400,463,cs),
(305,340,l),
(340,315,l)
);
}
);
width = 630;
}
);
unicode = 88;
},
{
glyphname = Y;
lastChange = "2025-01-27 09:18:17 +0000";
layers = (
{
anchors = (
{
name = bottom;
pos = (270,0);
},
{
name = top;
pos = (283,616);
},
{
name = topleft;
pos = (20,616);
}
);
color = 4;
layerId = m005;
shapes = (
{
closed = 1;
nodes = (
(429,0,l),
(429,28,l),
(358,33,o),
(313,30,o),
(313,93,cs),
(313,318,l),
(299,257,l),
(445,509,ls),
(491,588,o),
(527,588,o),
(540,588,c),
(540,616,l),
(342,616,l),
(342,591,l),
(414,581,o),
(429,565,o),
(397,505,c),
(281,306,l),
(295,307,l),
(176,525,l),
(147,586,o),
(148,585,o),
(216,591,c),
(216,616,l),
(0,616,l),
(0,588,l),
(35,588,o),
(56,581,o),
(69,556,cs),
(238,243,l),
(232,293,l),
(232,93,ls),
(232,38,o),
(169,33,o),
(123,28,c),
(123,0,l)
);
}
);
width = 540;
}
);
unicode = 89;
},
{
glyphname = Z;
lastChange = "2025-01-27 09:18:17 +0000";
layers = (
{
anchors = (
{
name = bottom;
pos = (324,0);
},
{
name = center;
pos = (324,308);
},
{
name = top;
pos = (324,620);
}
);
color = 4;
layerId = m005;
shapes = (
{
closed = 1;
nodes = (
(171,0,o),
(366,1,o),
(395,1,cs),
(425,1,o),
(495,1,o),
(536,-2,c),
(562,57,o),
(584,143,o),
(594,210,c),
(560,210,l),
(549,154,o),
(506,43,o),
(359,41,cs),
(146,38,l),
(151,24,l),
(566,594,l),
(554,621,l),
(477,616,o),
(323,615,o),
(275,615,cs),
(217,615,o),
(117,611,o),
(76,617,c),
(67,554,o),
(61,490,o),
(60,427,c),
(88,427,l),
(98,479,o),
(87,576,o),
(222,576,cs),
(297,576,o),
(413,574,o),
(471,572,c),
(461,596,l),
(36,12,l),
(44,0,l)
);
}
);
width = 648;
}
);
unicode = 90;
},
{
glyphname = a;
lastChange = "2025-01-27 09:18:17 +0000";
layers = (
{
anchors = (
{
name = bottom;
pos = (198,0);
},
{
name = ogonek;
pos = (356,10);
},
{
name = top;
pos = (198,384);
}
);
background = {
shapes = (
{
closed = 1;
nodes = (
(47,0,o),
(75,-11,o),
(122,-11,cs),
(170,-11,o),
(201,1,o),
(245,37,c,{
"Letterink-NibData" = {
AngleInDegrees = "360";
};
}),
(244,38,ls,{
"Letterink-NibData" = {
AngleInDegrees = "0";
};
}),
(268,17,o),
(285,7,o),
(315,-3,c,{
"Letterink-NibData" = {
AngleInDegrees = "360";
};
}),
(389,40,l,{
"Letterink-NibData" = {
AngleInDegrees = "0";
};
}),
(352,52,o),
(336,60,o),
(313,80,c),
(313,344,l,{
"Letterink-NibData" = {
AngleInDegrees = "0";
};
}),
(263,384,o),
(236,395,o),
(188,395,cs),
(139,395,o),
(110,384,o),
(62,345,c,{
"Letterink-NibData" = {
AngleInDegrees = "360";
};
}),
(65,340,l,{
"Letterink-NibData" = {
AngleInDegrees = "0";
};
}),
(92,347,o),
(104,349,o),
(122,349,cs),
(168,349,o),
(200,337,o),
(241,304,c),
(241,184,l),
(241,185,l,{
"Letterink-NibData" = {
AngleInDegrees = "360";
};
}),
(-4,44,l,{
"Letterink-NibData" = {
AngleInDegrees = "0";
};
}),
(-1,38,l,{
"Letterink-NibData" = {
AngleInDegrees = "0";
};
})
);
},
{
closed = 1;
nodes = (
(241,176,l),
(241,42,l),
(241,43,l,{
"Letterink-NibData" = {
AngleInDegrees = "0";
};
}),
(217,37,o),
(206,35,o),
(188,35,cs),
(143,35,o),
(110,47,o),
(71,78,c,{
"Letterink-NibData" = {
AngleInDegrees = "0";
};
})
);
},
{
closed = 1;
nodes = (
(318,0,l),
(368,18,l),
(329,32,o),
(313,37,o),
(313,68,cs),
(313,273,ls),
(313,355,o),
(279,395,o),
(209,395,cs),
(159,395,o),
(102,365,o),
(36,305,c),
(36,286,l),
(96,329,o),
(129,335,o),
(164,335,cs),
(216,335,o),
(241,306,o),
(241,246,cs),
(241,68,ls),
(241,38,o),
(224,32,o),
(185,18,c),
(135,0,l)
);
},
{
closed = 1;
nodes = (
(-24,386,l),
(-24,368,l),
(15,354,o),
(31,349,o),
(31,318,cs),
(31,83,ls),
(31,1,o),
(65,-9,o),
(135,-9,cs),
(185,-9,o),
(242,21,o),
(308,81,c),
(308,100,l),
(248,57,o),
(215,51,o),
(180,51,cs),
(128,51,o),
(103,50,o),
(103,110,cs),
(103,318,ls),
(103,348,o),
(120,354,o),
(159,368,c),
(159,386,l)
);
},
{
closed = 1;
nodes = (
(186,386,l),
(186,368,l),
(218,356,o),
(241,335,o),
(241,318,cs),
(241,113,ls),
(241,42,o),
(259,-9,o),
(285,-9,cs),
(307,-9,o),
(346,12,o),
(378,41,c),
(378,60,l),
(371,55,o),
(347,51,o),
(320,51,cs),
(316,51,o),
(313,88,o),
(313,140,cs),
(313,318,ls),
(313,335,o),
(336,356,o),
(369,368,c),
(369,386,l)
);
}
);
};
color = 3;
guides = (
{
angle = 11.5;
pos = (222,308);
}
);
layerId = m005;
shapes = (
{
closed = 1;
nodes = (
(326,-6,o),
(359,8,o),
(398,27,c),
(396,40,l),
(364,41,ls),
(339,42,o),
(321,60,o),
(321,84,cs),
(321,51,o),
(323,133,o),
(325,290,c),
(325,351,o),
(282,395,o),
(215,395,cs),
(186,395,o),
(143,378,o),
(104,354,cs),
(72,332,o),
(50,295,o),
(50,264,cs),
(50,233,o),
(122,247,o),
(122,278,cs),
(122,294,o),
(115,290,o),
(115,305,cs),
(115,332,o),
(141,351,o),
(169,351,cs),
(219,351,o),
(255,324,o),
(253,284,cs),
(250,218,l),
(249,205,o),
(249,138,o),
(249,57,cs),
(253,20,o),
(281,-6,o),
(317,-6,cs)
);
},
{
closed = 1;
nodes = (
(165,-6,o),
(230,24,o),
(270,66,c),
(270,85,l),
(239,61,o),
(191,44,o),
(163,44,cs),
(134,44,o),
(115,71,o),
(115,110,c),
(36,94,l),
(36,35,o),
(67,-6,o),
(119,-6,cs)
);
},
{
closed = 1;
nodes = (
(115,110,l),
(115,131,o),
(186,158,o),
(281,175,c),
(282,206,l),
(140,183,o),
(36,137,o),
(36,94,c)
);
}
);
width = 396;
}
);
note = a;
unicode = 97;
},
{
glyphname = ae;
lastChange = "2025-01-27 09:18:17 +0000";
layers = (
{
anchors = (
{
name = bottom;
pos = (297,0);
},
{
name = top;
pos = (297,384);
}
);
color = 10;
layerId = m005;
shapes = (
{
closed = 1;
nodes = (
(308,214,l),
(308,181,o),
(310,133,o),
(312,290,c),
(312,351,o),
(282,395,o),
(221,395,cs),
(192,395,o),
(143,378,o),
(104,354,cs),
(72,332,o),
(50,295,o),
(50,264,cs),
(50,233,o),
(122,247,o),
(122,278,cs),
(122,294,o),
(113,292,o),
(113,307,cs),
(113,334,o),
(136,353,o),
(169,353,cs),
(223,353,o),
(255,324,o),
(253,284,cs),
(250,218,l),
(249,205,o),
(249,258,o),
(249,177,c)
);
},
{
closed = 1;
nodes = (
(166,-6,o),
(229,9,o),
(290,70,c),
(269,90,l),
(238,66,o),
(192,44,o),
(164,44,cs),
(135,44,o),
(114,71,o),
(114,110,c),
(35,94,l),
(35,35,o),
(71,-6,o),
(123,-6,cs)
);
},
{
closed = 1;
nodes = (
(115,110,l),
(115,131,o),
(186,158,o),
(281,175,c),
(282,211,l),
(140,188,o),
(36,137,o),
(36,94,c)
);
},
{
closed = 1;
nodes = (
(310,302,o),
(352,362,o),
(412,362,cs),
(457,362,o),
(491,325,o),
(494,266,c),
(287,260,l),
(283,231,l),
(563,225,l),
(575,239,l),
(575,330,o),
(513,395,o),
(426,395,cs),
(314,395,o),
(249,309,o),
(249,188,cs),
(249,71,o),
(306,-11,o),
(407,-11,cs),
(469,-11,o),
(538,33,o),
(573,95,c),
(555,108,l),
(532,75,o),
(480,52,o),
(428,52,cs),
(359,52,o),
(310,117,o),
(310,210,cs)
);
}
);
width = 594;
}
);
unicode = 230;
},
{
glyphname = b;
lastChange = "2025-01-27 09:18:17 +0000";
layers = (
{
anchors = (
{
name = bottom;
pos = (243,0);
},
{
name = center;
pos = (122,555);
},
{
name = top;
pos = (243,384);
}
);
background = {
shapes = (
{
closed = 1;
nodes = (
(122,1,o),
(151,-11,o),
(199,-11,cs),
(246,-11,o),
(278,1,o),
(322,36,c,{
"Letterink-NibData" = {
AngleInDegrees = "0";
};
}),
(404,68,o),
(448,128,o),
(448,210,cs),
(448,310,o),
(364,395,o),
(265,395,cs),
(218,395,o),
(187,383,o),
(145,350,c),
(145,664,l,{
"Letterink-NibData" = {
AngleInDegrees = "359.99999";
};
}),
(119,687,o),
(103,697,o),
(72,707,c,{
"Letterink-NibData" = {
AngleInDegrees = "359.99999";
};
}),
(-2,664,l,{
"Letterink-NibData" = {
AngleInDegrees = "0";
};
}),
(35,652,o),
(50,644,o),
(73,624,c),
(73,40,l,{
"Letterink-NibData" = {
AngleInDegrees = "360";
};
})
);
},
{
closed = 1;
nodes = (
(169,347,o),
(181,349,o),
(199,349,cs),
(299,349,o),
(376,273,o),
(376,174,cs),
(376,125,o),
(357,82,o),
(318,43,c,{
"Letterink-NibData" = {
AngleInDegrees = "0";
};
}),
(294,37,o),
(282,35,o),
(265,35,cs),
(218,35,o),
(187,47,o),
(145,80,c),
(145,342,l,{
"Letterink-NibData" = {
AngleInDegrees = "360";
};
}),
(146,341,l,{
"Letterink-NibData" = {
AngleInDegrees = "0";
};
})
);
}
);
};
color = 2;
layerId = m005;
shapes = (
{
closed = 1;
nodes = (
(146,551,l),
(149,658,l),
(134,668,l),
(2,637,l),
(2,616,l),
(43,601,o),
(72,578,o),
(72,560,cs),
(72,255,o),
(72,40,o),
(72,40,c),
(144,24,l)
);
},
{
closed = 1;
nodes = (
(376,188,l),
(375,96,o),
(318,26,o),
(239,26,cs),
(189,26,o),
(142,67,o),
(118,125,c),
(72,40,l),
(109,10,o),
(166,-11,o),
(218,-11,cs),
(354,-11,o),
(450,88,o),
(450,221,c)
);
},
{
closed = 1;
nodes = (
(450,221,l),
(450,326,o),
(377,395,o),
(275,395,cs),
(222,395,o),
(157,360,o),
(108,310,c),
(108,291,l),
(138,317,o),
(185,335,o),
(230,335,cs),
(316,335,o),
(376,277,o),
(376,188,c)
);
}
);
width = 486;
}
);
note = b;
unicode = 98;
},
{
glyphname = c;
lastChange = "2025-01-27 09:18:17 +0000";
layers = (
{
anchors = (
{
name = bottom;
pos = (221,0);
},
{
name = top;
pos = (221,384);
}
);
background = {
shapes = (
{
closed = 1;
nodes = (
(111,302,o),
(155,362,o),
(215,362,cs),
(260,362,o),
(294,325,o),
(297,266,c),
(88,260,l),
(84,231,l),
(366,225,l),
(378,239,l),
(378,330,o),
(316,395,o),
(229,395,cs),
(117,395,o),
(36,309,o),
(36,188,cs),
(36,71,o),
(109,-11,o),
(210,-11,cs),
(272,-11,o),
(341,33,o),
(376,95,c),
(358,108,l),
(335,75,o),
(283,52,o),
(231,52,cs),
(162,52,o),
(111,117,o),
(111,210,cs)
);
}
);
};
color = 4;
layerId = m005;
shapes = (
{
closed = 1;
nodes = (
(111,302,o),
(153,367,o),
(213,367,c),
(227,395,l),
(115,395,o),
(36,309,o),
(36,188,cs),
(36,71,o),
(111,-11,o),
(216,-11,cs),
(287,-11,o),
(362,36,o),
(396,103,c),
(378,116,l),
(350,79,o),
(291,52,o),
(237,52,cs),
(163,52,o),
(111,117,o),
(111,210,cs)
);
},
{
closed = 1;
nodes = (
(213,367,l),
(276,367,o),
(321,315,o),
(323,247,c),
(357,247,l),
(355,296,o),
(356,349,o),
(360,371,c),
(319,385,o),
(267,395,o),
(227,395,c)
);
}
);
width = 396;
}
);
unicode = 99;
},
{
glyphname = d;
lastChange = "2025-01-27 09:18:17 +0000";
layers = (
{
anchors = (
{
name = bottom;
pos = (243,0);
},
{
name = center;
pos = (365,555);
},
{
name = top;
pos = (243,384);
},
{
name = topright;
pos = (466,694);
}
);
background = {
anchors = (
{
name = bottom;
pos = (208,0);
},
{
name = ogonek;
pos = (371,10);
},
{
name = top;
pos = (208,384);
}
);
shapes = (
{
closed = 1;
nodes = (
(111,302,o),
(153,362,o),
(213,362,cs),
(258,362,o),
(292,325,o),
(295,266,c),
(88,260,l),
(84,231,l),
(364,225,l),
(376,239,l),
(376,330,o),
(314,395,o),
(227,395,cs),
(115,395,o),
(36,309,o),
(36,188,cs),
(36,71,o),
(107,-11,o),
(208,-11,cs),
(270,-11,o),
(339,33,o),
(374,95,c),
(356,108,l),
(333,75,o),
(281,52,o),
(229,52,cs),
(160,52,o),
(111,117,o),
(111,210,cs)
);
},
{
closed = 1;
nodes = (
(111,302,o),
(153,362,o),
(213,362,cs),
(258,362,o),
(292,325,o),
(295,266,c),
(88,260,l),
(84,231,l),
(364,225,l),
(376,239,l),
(376,330,o),
(314,395,o),
(227,395,cs),
(115,395,o),
(36,309,o),
(36,188,cs),
(36,71,o),
(107,-11,o),
(208,-11,cs),
(270,-11,o),
(339,33,o),
(374,95,c),
(356,108,l),
(333,75,o),
(281,52,o),
(229,52,cs),
(160,52,o),
(111,117,o),
(111,210,cs)
);
}
);
};
color = 3;
layerId = m005;
shapes = (
{
closed = 1;
nodes = (
(36,189,l),
(36,72,o),
(104,-11,o),
(199,-11,cs),
(246,-11,o),
(317,22,o),
(374,69,c),
(374,88,l),
(336,65,o),
(283,49,o),
(246,49,cs),
(169,49,o),
(113,120,o),
(113,220,c)
);
},
{
closed = 1;
nodes = (
(342,58,l),
(343,58,l),
(342,-6,l),
(355,-12,l),
(486,21,l),
(486,42,l),
(432,57,o),
(414,75,o),
(414,85,c)
);
},
{
closed = 1;
nodes = (
(113,220,l),
(113,301,o),
(166,358,o),
(237,358,cs),
(286,358,o),
(339,320,o),
(364,267,c),
(390,356,l),
(358,379,o),
(304,395,o),
(258,395,cs),
(129,395,o),
(36,310,o),
(36,189,c)
);
},
{
closed = 1;
nodes = (
(414,85,l),
(414,557,l),
(416,658,l),
(401,668,l),
(272,637,l),
(272,616,l),
(313,599,o),
(342,577,o),
(342,563,cs),
(342,58,l)
);
}
);
width = 486;
}
);
unicode = 100;
},
{
glyphname = dcroat;
lastChange = "2025-01-27 09:18:17 +0000";
layers = (
{
layerId = m005;
shapes = (
{
ref = d;
},
{
closed = 1;
nodes = (
(290,441,l),
(477,509,l),
(467,539,l),
(279,471,l)
);
}
);
width = 486;
}
);
unicode = 273;
},
{
glyphname = dtail;
lastChange = "2025-01-27 09:18:17 +0000";
layers = (
{
layerId = m005;
shapes = (
{
closed = 1;
nodes = (
(36,189,l),
(36,72,o),
(104,-11,o),
(199,-11,cs),
(246,-11,o),
(317,22,o),
(374,69,c),
(374,88,l),
(336,65,o),
(283,49,o),
(246,49,cs),
(169,49,o),
(113,120,o),
(113,220,c)
);
},
{
closed = 1;
nodes = (
(113,220,l),
(113,301,o),
(166,358,o),
(237,358,cs),
(286,358,o),
(339,320,o),
(364,267,c),
(390,356,l),
(358,379,o),
(304,395,o),
(258,395,cs),
(129,395,o),
(36,310,o),
(36,189,c)
);
},
{
closed = 1;
nodes = (
(414,-49,l),
(414,557,l),
(416,658,l),
(401,668,l),
(272,637,l),
(272,616,l),
(313,599,o),
(342,577,o),
(342,563,cs),
(342,-55,l)
);
},
{
closed = 1;
nodes = (
(342,-55,l),
(342,-170,o),
(375,-232,o),
(442,-232,cs),
(506,-232,o),
(615,-167,o),
(615,-91,cs),
(615,-60,o),
(543,-74,o),
(543,-105,cs),
(543,-119,o),
(550,-119,o),
(550,-132,cs),
(550,-159,o),
(524,-188,o),
(496,-188,cs),
(446,-188,o),
(412,-143,o),
(414,-49,c)
);
}
);
width = 486;
}
);
unicode = 598;
},
{
glyphname = eth;
lastChange = "2025-01-27 09:18:17 +0000";
layers = (
{
hints = (
{
horizontal = 1;
origin = (0,31);
place = (-6,-37);
type = Stem;
},
{
horizontal = 1;
origin = (0,31);
place = (-6,-51);
type = Stem;
},
{
origin = (0,31);
place = (229,-87);
type = Stem;
},
{
origin = (0,31);
place = (229,-79);
type = Stem;
}
);
layerId = m005;
shapes = (
{
closed = 1;
nodes = (
(346,-6,o),
(429,100,o),
(429,249,cs),
(429,426,o),
(302,596,o),
(123,659,c),
(107,611,l),
(248,561,o),
(348,401,o),
(348,226,cs),
(348,113,o),
(304,33,o),
(241,33,cs),
(166,33,o),
(113,110,o),
(113,220,cs),
(113,299,o),
(162,355,o),
(231,355,cs),
(299,355,o),
(349,322,o),
(351,275,c),
(367,296,l),
(359,354,o),
(306,395,o),
(239,395,cs),
(120,395,o),
(36,313,o),
(36,198,cs),
(36,79,o),
(116,-6,o),
(229,-6,cs)
);
},
{
closed = 1;
nodes = (
(220,441,l),
(407,509,l),
(397,539,l),
(209,471,l)
);
}
);
width = 468;
}
);
unicode = 240;
},
{
glyphname = e;
lastChange = "2025-01-27 09:18:17 +0000";
layers = (
{
anchors = (
{
name = bottom;
pos = (210,0);
},
{
name = ogonek;
pos = (301,10);
},
{
name = top;
pos = (224,384);
}
);
background = {
shapes = (
{
closed = 1;
nodes = (
(109,168,l,{
"Letterink-NibData" = {
AngleInDegrees = "0";
};
}),
(407,340,l,{
"Letterink-NibData" = {
AngleInDegrees = "359.99998";
};
}),
(404,346,l,{
"Letterink-NibData" = {
AngleInDegrees = "360";
};
}),
(364,380,o),
(326,395,o),
(281,395,cs),
(234,395,o),
(202,383,o),
(158,348,c,{
"Letterink-NibData" = {
AngleInDegrees = "360";
};
}),
(75,315,o),
(32,256,o),
(32,174,cs),
(32,74,o),
(116,-11,o),
(215,-11,cs),
(264,-11,o),
(294,1,o),
(341,39,c,{
"Letterink-NibData" = {
AngleInDegrees = "0";
};
}),
(338,44,l,{
"Letterink-NibData" = {
AngleInDegrees = "360";
};
}),
(309,37,o),
(300,35,o),
(281,35,cs),
(196,35,o),
(130,87,o),
(108,170,c,{
"Letterink-NibData" = {
AngleInDegrees = "0";
};
})
);
},
{
closed = 1;
nodes = (
(107,177,l,{
"Letterink-NibData" = {
AngleInDegrees = "0";
};
}),
(105,192,o),
(104,198,o),
(104,210,cs),
(104,259,o),
(123,301,o),
(162,341,c,{
"Letterink-NibData" = {
AngleInDegrees = "360";
};
}),
(186,347,o),
(198,349,o),
(215,349,cs),
(260,349,o),
(292,337,o),
(332,306,c,{
"Letterink-NibData" = {
AngleInDegrees = "360";
};
})
);
},
{
closed = 1;
nodes = (
(32,189,l),
(32,72,o),
(99,-11,o),
(193,-11,cs),
(236,-11,o),
(308,26,o),
(366,79,c),
(366,98,l),
(326,69,o),
(273,49,o),
(238,49,cs),
(163,49,o),
(110,120,o),
(110,220,c)
);
}
);
};
color = 4;
layerId = m005;
shapes = (
{
closed = 1;
nodes = (
(111,302,o),
(155,362,o),
(215,362,cs),
(260,362,o),
(294,325,o),
(297,266,c),
(88,260,l),
(84,231,l),
(366,225,l),
(378,239,l),
(378,330,o),
(316,395,o),
(229,395,cs),
(117,395,o),
(36,309,o),
(36,188,cs),
(36,71,o),
(109,-11,o),
(210,-11,cs),
(272,-11,o),
(341,33,o),
(376,95,c),
(358,108,l),
(335,75,o),
(283,52,o),
(231,52,cs),
(162,52,o),
(111,117,o),
(111,210,cs)
);
}
);
width = 396;
}
);
note = e;
unicode = 101;
},
{
glyphname = eopen;
lastChange = "2025-01-27 09:18:17 +0000";
layers = (
{
layerId = m005;
shapes = (
{
closed = 1;
nodes = (
(171,235,o),
(120,276,o),
(120,318,cs),
(120,347,o),
(159,367,o),
(213,367,c),
(227,395,l),
(126,395,o),
(54,351,o),
(54,290,cs),
(54,257,o),
(93,216,o),
(148,191,c),
(213,214,l),
(120,201,o),
(54,141,o),
(54,69,cs),
(54,22,o),
(115,-11,o),
(176,-11,cs),
(260,-11,o),
(323,33,o),
(357,82,c),
(344,97,l),
(310,70,o),
(274,39,o),
(235,39,cs),
(176,39,o),
(116,68,o),
(116,109,cs),
(116,147,o),
(167,184,o),
(240,198,c),
(242,219,l)
);
},
{
closed = 1;
nodes = (
(213,367,l),
(264,367,o),
(302,333,o),
(305,286,c),
(339,286,l),
(336,313,o),
(337,348,o),
(342,371,c),
(301,385,o),
(253,395,o),
(227,395,c)
);
}
);
width = 378;
}
);
unicode = 603;
},
{
glyphname = schwa;
lastChange = "2025-01-27 09:18:17 +0000";
layers = (
{
layerId = m005;
shapes = (
{
closed = 1;
nodes = (
(285,82,o),
(241,22,o),
(181,22,cs),
(136,22,o),
(102,59,o),
(99,118,c),
(308,124,l),
(312,153,l),
(30,159,l),
(18,145,l),
(18,54,o),
(80,-11,o),
(167,-11,cs),
(279,-11,o),
(360,75,o),
(360,196,cs),
(360,313,o),
(287,395,o),
(186,395,cs),
(124,395,o),
(55,351,o),
(20,289,c),
(38,276,l),
(61,309,o),
(113,332,o),
(165,332,cs),
(234,332,o),
(285,267,o),
(285,174,cs)
);
}
);
width = 396;
}
);
unicode = 601;
},
{
glyphname = f;
lastChange = "2025-01-27 09:18:17 +0000";
layers = (
{
anchors = (
{
name = bottom;
pos = (153,0);
},
{
name = top;
pos = (153,694);
}
);
background = {
shapes = (
{
closed = 1;
nodes = (
(91,386,l),
(91,387,l,{
"Letterink-NibData" = {
AngleInDegrees = "360";
};
}),
(18,346,l,{
"Letterink-NibData" = {
AngleInDegrees = "360";
};
}),
(21,341,l),
(91,341,l),
(91,40,l,{
"Letterink-NibData" = {
AngleInDegrees = "0";
};
}),
(116,18,o),
(135,7,o),
(164,-3,c,{
"Letterink-NibData" = {
AngleInDegrees = "0";
};
}),
(239,40,l,{
"Letterink-NibData" = {
AngleInDegrees = "0";
};
}),
(202,52,o),
(186,60,o),
(163,80,c),
(163,342,l,{
"Letterink-NibData" = {
AngleInDegrees = "360";
};
}),
(164,341,l),
(270,341,l,{
"Letterink-NibData" = {
AngleInDegrees = "360";
};
}),
(343,382,l,{
"Letterink-NibData" = {
AngleInDegrees = "0";
};
}),
(340,387,l),
(163,387,l),
(163,662,l,{
"Letterink-NibData" = {
AngleInDegrees = "360";
};
}),
(164,661,l,{
"Letterink-NibData" = {
AngleInDegrees = "0";
};
}),
(187,667,o),
(198,669,o),
(217,669,cs),
(265,669,o),
(294,657,o),
(340,621,c,{
"Letterink-NibData" = {
AngleInDegrees = "0";
};
}),
(411,662,l,{
"Letterink-NibData" = {
AngleInDegrees = "0";
};
}),
(357,705,o),
(332,715,o),
(282,715,cs),
(235,715,o),
(203,703,o),
(160,667,c,{
"Letterink-NibData" = {
AngleInDegrees = "360";
};
}),
(91,628,l)
);
},
{
closed = 0;
nodes = (
(92,68,l),
(92,37,o),
(75,32,o),
(36,18,c),
(36,0,l),
(249,0,l),
(249,18,l),
(180,32,o),
(163,38,o),
(163,68,cs)
);
}
);
};
color = 5;
guides = (
{
angle = 46;
lockAngle = 1;
pos = (301,567);
}
);
layerId = m005;
shapes = (
{
closed = 1;
nodes = (
(18,0,l),
(270,0,l),
(270,18,l),
(205,31,o),
(169,31,o),
(167,69,cs),
(162,163,o),
(162,304,o),
(167,449,cs),
(169,510,o),
(164,624,o),
(233,624,cs),
(256,624,o),
(265,617,o),
(274,606,cs),
(283,593,o),
(287,576,o),
(298,567,cs),
(321,546,o),
(383,615,o),
(361,638,cs),
(343,656,o),
(310,665,o),
(269,665,cs),
(211,665,o),
(163,631,o),
(135,590,cs),
(101,540,o),
(95,492,o),
(91,387,cs),
(90,355,o),
(90,221,o),
(91,69,cs),
(91,30,o),
(57,32,o),
(18,18,c)
);
},
{
closed = 1;
nodes = (
(306,334,l),
(306,389,l),
(97,384,l),
(18,359,l),
(18,349,l)
);
}
);
width = 306;
}
);
note = f;
unicode = 102;
},
{
glyphname = g;
lastChange = "2025-01-27 09:18:17 +0000";
layers = (
{
anchors = (
{
name = bottom;
pos = (207,-232);
},
{
name = top;
pos = (207,384);
}
);
background = {
shapes = (
{
closed = 1;
nodes = (
(318,384,o),
(290,395,o),
(242,395,cs),
(194,395,o),
(163,383,o),
(119,347,c,{
"Letterink-NibData" = {
AngleInDegrees = "359.99999";
};
}),
(37,316,o),
(-7,256,o),
(-7,174,cs),
(-7,74,o),
(77,-11,o),
(176,-11,cs),
(222,-11,o),
(254,1,o),
(295,34,c),
(295,-238,l),
(295,-237,l,{
"Letterink-NibData" = {
AngleInDegrees = "359.99999";
};
}),
(272,-243,o),
(260,-245,o),
(242,-245,cs),
(194,-245,o),
(165,-234,o),
(119,-197,c,{
"Letterink-NibData" = {
AngleInDegrees = "0";
};
}),
(48,-238,l,{
"Letterink-NibData" = {
AngleInDegrees = "359.99999";
};
}),
(100,-280,o),
(128,-291,o),
(176,-291,cs),
(224,-291,o),
(255,-279,o),
(299,-244,c,{
"Letterink-NibData" = {
AngleInDegrees = "0";
};
}),
(367,-204,l),
(367,344,l,{
"Letterink-NibData" = {
AngleInDegrees = "0";
};
})
);
},
{
closed = 1;
nodes = (
(272,37,o),
(260,35,o),
(242,35,cs),
(142,35,o),
(65,111,o),
(65,210,cs),
(65,259,o),
(84,302,o),
(123,341,c,{
"Letterink-NibData" = {
AngleInDegrees = "360";
};
}),
(147,347,o),
(158,349,o),
(176,349,cs),
(222,349,o),
(254,337,o),
(295,304,c),
(295,42,l),
(295,43,l,{
"Letterink-NibData" = {
AngleInDegrees = "359.99999";
};
})
);
}
);
};
color = 6;
layerId = m005;
shapes = (
{
closed = 1;
nodes = (
(267,342,l),
(414,332,l),
(414,389,l),
(235,374,l)
);
},
{
closed = 1;
nodes = (
(36,5,o),
(75,-22,o),
(129,-22,cs),
(162,-22,o),
(231,-22,o),
(280,-22,cs),
(325,-22,o),
(357,-40,o),
(357,-66,cs),
(357,-136,o),
(293,-183,o),
(203,-183,cs),
(136,-183,o),
(84,-139,o),
(84,-86,cs),
(84,-48,o),
(101,0,o),
(132,9,c),
(104,15,l),
(51,-7,o),
(18,-72,o),
(18,-119,cs),
(18,-175,o),
(69,-221,o),
(147,-221,cs),
(302,-221,o),
(405,-143,o),
(405,-29,cs),
(405,14,o),
(367,44,o),
(314,44,cs),
(168,44,ls),
(130,44,o),
(103,58,o),
(103,77,cs),
(103,90,o),
(122,122,o),
(148,142,c),
(124,151,l),
(72,125,o),
(36,76,o),
(36,43,cs)
);
},
{
closed = 1;
nodes = (
(123,330,o),
(161,368,o),
(201,368,cs),
(249,368,o),
(283,315,o),
(283,239,cs),
(283,184,o),
(254,145,o),
(214,145,cs),
(166,145,o),
(123,199,o),
(123,276,cs)
);
},
{
closed = 1;
nodes = (
(45,175,o),
(117,120,o),
(206,120,cs),
(296,120,o),
(359,178,o),
(359,261,cs),
(359,338,o),
(297,393,o),
(210,393,cs),
(119,393,o),
(45,335,o),
(45,253,cs)
);
}
);
width = 414;
}
);
note = g;
unicode = 103;
},
{
glyphname = h;
lastChange = "2025-01-27 09:18:17 +0000";
layers = (
{
anchors = (
{
name = bottom;
pos = (243,0);
},
{
name = center;
pos = (144,557);
},
{
name = top;
pos = (100,644);
}
);
color = 1;
layerId = m005;
shapes = (
{
closed = 1;
nodes = (
(18,0,l),
(216,0,l),
(216,18,l),
(169,32,o),
(144,39,o),
(144,68,cs),
(144,557,l),
(146,658,l),
(131,668,l),
(0,637,l),
(0,616,l),
(21,608,o),
(72,595,o),
(72,563,cs),
(72,68,ls),
(72,39,o),
(48,32,o),
(18,18,c)
);
},
{
closed = 1;
nodes = (
(468,0,l),
(468,18,l),
(430,32,o),
(414,37,o),
(414,68,cs),
(414,273,ls),
(414,355,o),
(380,395,o),
(310,395,cs),
(260,395,o),
(189,365,o),
(123,305,c),
(123,286,l),
(183,329,o),
(230,335,o),
(265,335,cs),
(317,335,o),
(338,306,o),
(342,246,cs),
(346,187,o),
(346,127,o),
(342,68,cs),
(340,38,o),
(315,32,o),
(288,18,c),
(288,0,l)
);
}
);
width = 486;
}
);
unicode = 104;
},
{
glyphname = hbar;
lastChange = "2025-01-27 09:18:17 +0000";
layers = (
{
layerId = m005;
shapes = (
{
ref = h;
},
{
closed = 1;
nodes = (
(20,423,l),
(207,491,l),
(197,521,l),
(9,453,l)
);
}
);
width = 486;
}
);
unicode = 295;
},
{
glyphname = idotless;
lastChange = "2025-01-27 09:18:17 +0000";
layers = (
{
anchors = (
{
name = bottom;
pos = (123,0);
},
{
name = ogonek;
pos = (228,0);
},
{
name = top;
pos = (117,384);
}
);
layerId = m005;
shapes = (
{
closed = 1;
nodes = (
(36,0,l),
(216,0,l),
(216,18,l),
(177,32,o),
(162,39,o),
(162,68,cs),
(162,148,o),
(160,234,o),
(162,314,cs),
(164,393,l),
(148,403,l),
(18,362,l),
(18,341,l),
(46,333,o),
(86,320,o),
(87,298,cs),
(91,223,o),
(91,143,o),
(87,68,cs),
(85,39,o),
(70,32,o),
(36,18,c)
);
}
);
width = 234;
}
);
unicode = 305;
},
{
glyphname = jdotless;
lastChange = "2025-01-27 09:18:17 +0000";
layers = (
{
anchors = (
{
name = bottom;
pos = (108,-232);
},
{
name = top;
pos = (108,384);
}
);
layerId = m005;
shapes = (
{
closed = 1;
nodes = (
(21,-223,o),
(23,-222,o),
(24,-222,c),
(34,-218,o),
(47,-208,o),
(57,-201,cs),
(109,-164,o),
(144,-51,o),
(144,68,cs),
(144,314,l),
(146,393,l),
(131,403,l),
(0,362,l),
(0,341,l),
(35,326,o),
(70,309,o),
(70,298,cs),
(72,254,o),
(73,128,o),
(73,1,cs),
(73,-87,o),
(57,-160,o),
(34,-178,c),
(31,-179,o),
(27,-179,o),
(23,-179,cs),
(19,-179,o),
(15,-179,o),
(12,-178,cs),
(-2,-174,o),
(3,-168,o),
(-12,-164,cs),
(-33,-158,o),
(-56,-191,o),
(-56,-212,cs),
(-56,-221,o),
(-53,-228,o),
(-44,-230,cs),
(-38,-231,o),
(-32,-232,o),
(-25,-232,cs),
(-10,-232,o),
(6,-229,o),
(19,-224,cs)
);
}
);
width = 216;
}
);
unicode = 567;
},
{
glyphname = k;
lastChange = "2025-01-27 09:18:17 +0000";
layers = (
{
anchors = (
{
name = bottom;
pos = (234,0);
},
{
name = top;
pos = (234,694);
}
);
color = 2;
layerId = m005;
shapes = (
{
closed = 1;
nodes = (
(18,0,l),
(198,0,l),
(198,18,l),
(163,32,o),
(144,39,o),
(144,68,cs),
(144,557,l),
(146,658,l),
(131,665,l),
(0,637,l),
(0,616,l),
(21,608,o),
(72,595,o),
(72,563,cs),
(72,68,ls),
(72,39,o),
(55,32,o),
(18,18,c)
);
},
{
closed = 1;
nodes = (
(123,145,l),
(200,195,o),
(268,256,o),
(325,326,cs),
(339,343,o),
(364,351,o),
(414,361,c),
(414,384,l),
(234,384,l),
(234,361,l),
(283,356,o),
(290,354,o),
(254,304,cs),
(216,252,o),
(169,210,o),
(111,178,c)
);
},
{
closed = 1;
nodes = (
(182,213,l),
(305,54,ls),
(316,40,o),
(309,23,o),
(270,20,c),
(270,0,l),
(468,0,l),
(468,23,l),
(438,26,o),
(412,38,o),
(399,55,cs),
(242,264,l)
);
}
);
width = 468;
}
);
unicode = 107;
},
{
glyphname = l;
lastChange = "2025-01-27 09:18:17 +0000";
layers = (
{
anchors = (
{
name = bottom;
pos = (108,0);
},
{
name = center;
pos = (108,192);
},
{
name = top;
pos = (108,694);
},
{
name = topright;
pos = (196,694);
}
);
background = {
shapes = (
{
closed = 1;
nodes = (
(72,40,l,{
"Letterink-NibData" = {
AngleInDegrees = "0";
};
}),
(97,18,o),
(116,7,o),
(146,-3,c,{
"Letterink-NibData" = {
AngleInDegrees = "360";
};
}),
(220,40,l,{
"Letterink-NibData" = {
AngleInDegrees = "0";
};
}),
(182,52,o),
(168,60,o),
(144,80,c),
(144,664,l,{
"Letterink-NibData" = {
AngleInDegrees = "359.99999";
};
}),
(118,687,o),
(102,697,o),
(71,707,c,{
"Letterink-NibData" = {
AngleInDegrees = "359.99999";
};
}),
(-3,664,l,{
"Letterink-NibData" = {
AngleInDegrees = "0";
};
}),
(34,652,o),
(49,644,o),
(72,624,c)
);
}
);
};
color = 1;
layerId = m005;
shapes = (
{
closed = 1;
nodes = (
(0,0,l),
(216,0,l),
(216,18,l),
(169,32,o),
(145,39,o),
(145,68,cs),
(145,557,l),
(148,658,l),
(131,668,l),
(0,637,l),
(0,616,l),
(21,608,o),
(72,595,o),
(72,563,cs),
(72,68,ls),
(72,39,o),
(48,32,o),
(0,18,c)
);
}
);
width = 217;
}
);
note = l;
unicode = 108;
},
{
glyphname = lslash;
lastChange = "2025-01-27 09:18:17 +0000";
layers = (
{
layerId = m005;
shapes = (
{
ref = l;
},
{
closed = 1;
nodes = (
(20,297,l),
(207,365,l),
(197,395,l),
(9,327,l)
);
}
);
width = 216;
}
);
unicode = 322;
},
{
glyphname = m;
lastChange = "2025-01-27 09:18:17 +0000";
layers = (
{
anchors = (
{
name = bottom;
pos = (369,0);
},
{
name = top;
pos = (369,384);
}
);
background = {
shapes = (
{
closed = 1;
nodes = (
(88,40,l,{
"Letterink-NibData" = {
AngleInDegrees = "0";
};
}),
(113,18,o),
(132,7,o),
(162,-3,c,{
"Letterink-NibData" = {
AngleInDegrees = "360";
};
}),
(236,40,l,{
"Letterink-NibData" = {
AngleInDegrees = "0";
};
}),
(198,52,o),
(184,60,o),
(160,80,c),
(160,342,l,{
"Letterink-NibData" = {
AngleInDegrees = "360";
};
}),
(161,341,l,{
"Letterink-NibData" = {
AngleInDegrees = "0";
};
}),
(184,347,o),
(196,349,o),
(214,349,cs),
(260,349,o),
(292,337,o),
(333,304,c),
(333,40,l,{
"Letterink-NibData" = {
AngleInDegrees = "0";
};
}),
(358,18,o),
(377,6,o),
(406,-3,c,{
"Letterink-NibData" = {
AngleInDegrees = "0";
};
}),
(481,40,l,{
"Letterink-NibData" = {
AngleInDegrees = "0";
};
}),
(443,52,o),
(428,60,o),
(405,80,c),
(405,342,l,{
"Letterink-NibData" = {
AngleInDegrees = "360";
};
}),
(406,341,l,{
"Letterink-NibData" = {
AngleInDegrees = "0";
};
}),
(429,347,o),
(440,349,o),
(459,349,cs),
(505,349,o),
(537,337,o),
(578,304,c),
(578,40,l,{
"Letterink-NibData" = {
AngleInDegrees = "0";
};
}),
(603,18,o),
(622,7,o),
(651,-3,c,{
"Letterink-NibData" = {
AngleInDegrees = "360";
};
}),
(725,40,l,{
"Letterink-NibData" = {
AngleInDegrees = "359.99999";
};
}),
(689,52,o),
(673,60,o),
(650,80,c),
(650,344,l,{
"Letterink-NibData" = {
AngleInDegrees = "0";
};
}),
(600,384,o),
(572,395,o),
(524,395,cs),
(477,395,o),
(445,383,o),
(402,347,c,{
"Letterink-NibData" = {
AngleInDegrees = "360";
};
}),
(403,346,ls,{
"Letterink-NibData" = {
AngleInDegrees = "0";
};
}),
(358,382,o),
(325,395,o),
(280,395,cs),
(232,395,o),
(201,383,o),
(157,347,c,{
"Letterink-NibData" = {
AngleInDegrees = "360";
};
}),
(158,346,ls,{
"Letterink-NibData" = {
AngleInDegrees = "359.99999";
};
}),
(134,367,o),
(116,377,o),
(87,387,c,{
"Letterink-NibData" = {
AngleInDegrees = "359.99999";
};
}),
(13,344,l,{
"Letterink-NibData" = {
AngleInDegrees = "0";
};
}),
(50,332,o),
(65,324,o),
(88,304,c)
);
},
{
closed = 1;
nodes = (
(399,298,l),
(439,325,o),
(469,335,o),
(502,335,cs),
(554,335,o),
(577,307,o),
(577,246,cs),
(577,68,ls),
(577,37,o),
(561,32,o),
(522,18,c),
(522,0,l),
(704,0,l),
(704,18,l),
(665,32,o),
(649,37,o),
(649,68,cs),
(649,273,ls),
(649,352,o),
(614,395,o),
(545,395,cs),
(492,395,o),
(448,367,o),
(389,310,c)
);
}
);
};
color = 1;
layerId = m005;
shapes = (
{
closed = 1;
nodes = (
(468,0,l),
(468,18,l),
(432,32,o),
(414,37,o),
(414,68,cs),
(414,273,ls),
(414,355,o),
(380,395,o),
(310,395,cs),
(260,395,o),
(198,365,o),
(132,305,c),
(132,286,l),
(192,329,o),
(229,335,o),
(264,335,cs),
(317,335,o),
(339,306,o),
(342,246,cs),
(345,187,o),
(345,127,o),
(342,68,cs),
(340,38,o),
(315,24,o),
(288,18,c),
(288,0,l)
);
},
{
closed = 1;
nodes = (
(234,0,l),
(234,18,l),
(187,32,o),
(160,38,o),
(160,68,cs),
(160,315,l),
(159,315,l),
(160,394,l),
(149,403,l),
(18,362,l),
(18,341,l),
(47,333,o),
(87,319,o),
(88,298,cs),
(91,223,o),
(91,143,o),
(88,68,cs),
(87,37,o),
(62,32,o),
(18,18,c),
(18,0,l)
);
},
{
closed = 1;
nodes = (
(738,0,l),
(738,18,l),
(692,32,o),
(666,37,o),
(666,68,cs),
(666,273,ls),
(666,355,o),
(632,395,o),
(562,395,cs),
(512,395,o),
(452,365,o),
(386,305,c),
(386,286,l),
(446,329,o),
(486,335,o),
(517,335,cs),
(569,335,o),
(589,306,o),
(593,246,cs),
(597,187,o),
(597,127,o),
(593,68,cs),
(591,38,o),
(576,24,o),
(522,18,c),
(522,0,l)
);
}
);
width = 738;
}
);
note = m;
unicode = 109;
},
{
glyphname = n;
lastChange = "2025-01-27 14:32:37 +0000";
layers = (
{
anchors = (
{
name = bottom;
pos = (243,0);
},
{
name = top;
pos = (243,384);
}
);
background = {
shapes = (
{
closed = 1;
nodes = (
(91,40,l),
(116,18,o),
(135,7,o),
(165,-3,c),
(239,40,l),
(201,52,o),
(187,60,o),
(163,80,c),
(163,342,l),
(164,341,l),
(187,347,o),
(199,349,o),
(217,349,cs),
(263,349,o),
(295,337,o),
(336,304,c),
(336,40,l),
(361,18,o),
(380,6,o),
(409,-3,c),
(484,40,l),
(446,52,o),
(431,60,o),
(408,80,c),
(408,344,l),
(358,384,o),
(331,395,o),
(283,395,cs),
(235,395,o),
(204,383,o),
(160,347,c),
(161,346,ls),
(137,367,o),
(119,377,o),
(90,387,c),
(16,344,l),
(53,332,o),
(68,324,o),
(91,304,c)
);
},
{
closed = 1;
nodes = (
(91,40,l,{
"Letterink-NibData" = {
AngleInDegrees = "0";
};
}),
(116,18,o),
(135,7,o),
(165,-3,c,{
"Letterink-NibData" = {
AngleInDegrees = "360";
};
}),
(239,40,l,{
"Letterink-NibData" = {
AngleInDegrees = "0";
};
}),
(201,52,o),
(187,60,o),
(163,80,c),
(163,342,l,{
"Letterink-NibData" = {
AngleInDegrees = "360";
};
}),
(164,341,l,{
"Letterink-NibData" = {
AngleInDegrees = "0";
};
}),
(187,347,o),
(199,349,o),
(217,349,cs),
(263,349,o),
(295,337,o),
(336,304,c),
(336,40,l,{
"Letterink-NibData" = {
AngleInDegrees = "0";
};
}),
(361,18,o),
(380,6,o),
(409,-3,c,{
"Letterink-NibData" = {
AngleInDegrees = "0";
};
}),
(484,40,l,{
"Letterink-NibData" = {
AngleInDegrees = "0";
};
}),
(446,52,o),
(431,60,o),
(408,80,c),
(408,344,l,{
"Letterink-NibData" = {
AngleInDegrees = "0";
};
}),
(358,384,o),
(331,395,o),
(283,395,cs),
(235,395,o),
(204,383,o),
(160,347,c,{
"Letterink-NibData" = {
AngleInDegrees = "360";
};
}),
(161,346,ls,{
"Letterink-NibData" = {
AngleInDegrees = "359.99999";
};
}),
(137,367,o),
(119,377,o),
(90,387,c,{
"Letterink-NibData" = {
AngleInDegrees = "359.99999";
};
}),
(16,344,l,{
"Letterink-NibData" = {
AngleInDegrees = "0";
};
}),
(53,332,o),
(68,324,o),
(91,304,c)
);
}
);
};
color = 1;
layerId = m005;
shapes = (
{
closed = 1;
nodes = (
(486,0,l),
(486,18,l),
(438,32,o),
(414,37,o),
(414,68,cs),
(414,273,ls),
(414,355,o),
(382,395,o),
(312,395,cs),
(262,395,o),
(205,365,o),
(139,305,c),
(139,286,l),
(199,329,o),
(232,335,o),
(267,335,cs),
(319,335,o),
(338,306,o),
(342,246,cs),
(346,189,o),
(346,125,o),
(342,68,cs),
(340,38,o),
(316,24,o),
(288,18,c),
(288,0,l)
);
},
{
closed = 1;
nodes = (
(216,0,l),
(216,18,l),
(182,32,o),
(162,38,o),
(162,68,cs),
(162,315,l),
(164,315,l),
(165,397,l),
(150,403,l),
(18,362,l),
(18,341,l),
(46,333,o),
(86,319,o),
(89,298,cs),
(91,284,o),
(91,129,o),
(89,68,cs),
(88,37,o),
(76,32,o),
(36,18,c),
(36,0,l)
);
}
);
width = 486;
}
);
note = n;
unicode = 110;
},
{
glyphname = eng;
lastChange = "2025-01-27 09:18:17 +0000";
layers = (
{
layerId = m005;
shapes = (
{
closed = 1;
nodes = (
(414,68,l),
(414,273,ls),
(414,355,o),
(382,395,o),
(312,395,cs),
(262,395,o),
(205,365,o),
(139,305,c),
(139,286,l),
(199,329,o),
(232,335,o),
(267,335,cs),
(319,335,o),
(334,306,o),
(338,246,cs),
(342,189,o),
(341,58,o),
(341,1,c)
);
},
{
closed = 1;
nodes = (
(216,0,l),
(216,18,l),
(182,32,o),
(162,38,o),
(162,68,cs),
(162,315,l),
(164,315,l),
(165,397,l),
(150,403,l),
(18,362,l),
(18,341,l),
(46,333,o),
(86,319,o),
(89,298,cs),
(91,284,o),
(91,129,o),
(89,68,cs),
(88,37,o),
(76,32,o),
(36,18,c),
(36,0,l)
);
},
{
closed = 1;
nodes = (
(341,1,l),
(341,-87,o),
(309,-160,o),
(286,-178,c),
(283,-179,o),
(279,-179,o),
(275,-179,cs),
(271,-179,o),
(267,-179,o),
(264,-178,cs),
(250,-174,o),
(255,-168,o),
(240,-164,cs),
(219,-158,o),
(196,-191,o),
(196,-212,cs),
(196,-221,o),
(199,-228,o),
(208,-230,cs),
(214,-231,o),
(220,-232,o),
(227,-232,cs),
(242,-232,o),
(258,-229,o),
(271,-224,cs),
(273,-223,o),
(275,-222,o),
(276,-222,c),
(286,-218,o),
(299,-208,o),
(309,-201,cs),
(361,-164,o),
(414,-51,o),
(414,68,c)
);
}
);
width = 450;
}
);
unicode = 331;
},
{
glyphname = o;
lastChange = "2025-01-27 09:18:17 +0000";
layers = (
{
anchors = (
{
name = bottom;
pos = (243,0);
},
{
name = center;
pos = (243,192);
},
{
name = ogonek;
pos = (437,10);
},
{
name = top;
pos = (243,384);
},
{
name = topright;
pos = (328,297);
}
);
background = {
shapes = (
{
closed = 1;
nodes = (
(76,316,o),
(32,256,o),
(32,174,cs),
(32,74,o),
(116,-11,o),
(215,-11,cs),
(263,-11,o),
(294,1,o),
(338,36,c),
(421,68,o),
(464,128,o),
(464,210,cs),
(464,310,o),
(380,395,o),
(281,395,cs),
(233,395,o),
(202,383,o),
(158,347,c)
);
},
{
closed = 1;
nodes = (
(186,347,o),
(197,349,o),
(215,349,cs),
(315,349,o),
(392,273,o),
(392,174,cs),
(392,125,o),
(373,82,o),
(334,43,c),
(310,37,o),
(298,35,o),
(281,35,cs),
(181,35,o),
(104,111,o),
(104,210,cs),
(104,259,o),
(123,302,o),
(162,341,c)
);
},
{
closed = 1;
nodes = (
(88,320,o),
(32,244,o),
(32,174,cs),
(32,71,o),
(113,-11,o),
(215,-11,cs),
(249,-11,o),
(304,10,o),
(338,36,c,{
"Letterink-NibData" = {
AngleInDegrees = "0";
};
}),
(408,63,o),
(464,140,o),
(464,210,cs),
(464,313,o),
(383,395,o),
(281,395,cs),
(259,395,o),
(205,374,o),
(158,347,c,{
"Letterink-NibData" = {
AngleInDegrees = "359.99999";
};
})
);
},
{
closed = 1;
nodes = (
(230,346,o),
(247,349,o),
(215,349,cs),
(314,349,o),
(392,271,o),
(392,174,cs),
(392,133,o),
(366,75,o),
(334,43,c,{
"Letterink-NibData" = {
AngleInDegrees = "360";
};
}),
(307,39,o),
(281,35,o),
(281,35,cs),
(182,35,o),
(104,113,o),
(104,210,cs),
(104,251,o),
(130,309,o),
(162,341,c,{
"Letterink-NibData" = {
AngleInDegrees = "360";
};
})
);
}
);
};
color = 4;
layerId = m005;
shapes = (
{
closed = 1;
nodes = (
(363,-8,o),
(450,75,o),
(450,196,cs),
(450,313,o),
(363,392,o),
(239,392,cs),
(120,392,o),
(36,308,o),
(36,185,cs),
(36,70,o),
(120,-8,o),
(239,-8,cs)
);
},
{
closed = 1;
nodes = (
(118,296,o),
(166,356,o),
(231,356,cs),
(310,356,o),
(368,282,o),
(368,174,cs),
(368,87,o),
(317,28,o),
(247,28,cs),
(173,28,o),
(118,101,o),
(118,208,cs)
);
}
);
width = 486;
}
);
note = o;
unicode = 111;
},
{
glyphname = oopen;
lastChange = "2025-01-27 09:18:17 +0000";
layers = (
{
layerId = m005;
shapes = (
{
closed = 1;
nodes = (
(303,82,o),
(261,17,o),
(201,17,c),
(187,-11,l),
(299,-11,o),
(378,75,o),
(378,196,cs),
(378,313,o),
(303,395,o),
(198,395,cs),
(127,395,o),
(52,348,o),
(18,281,c),
(36,268,l),
(64,305,o),
(123,332,o),
(177,332,cs),
(251,332,o),
(303,267,o),
(303,174,cs)
);
},
{
closed = 1;
nodes = (
(201,17,l),
(138,17,o),
(93,65,o),
(91,133,c),
(52,133,l),
(54,84,o),
(53,35,o),
(49,13,c),
(90,-1,o),
(147,-11,o),
(187,-11,c)
);
}
);
width = 396;
}
);
unicode = 596;
},
{
glyphname = oslash;
lastChange = "2025-01-27 09:18:17 +0000";
layers = (
{
layerId = m005;
shapes = (
{
ref = o;
},
{
closed = 1;
nodes = (
(38,8,l),
(63,-17,l),
(453,372,l),
(428,397,l)
);
}
);
width = 486;
}
);
unicode = 248;
},
{
glyphname = oe;
lastChange = "2025-01-27 09:18:17 +0000";
layers = (
{
anchors = (
{
name = bottom;
pos = (369,0);
},
{
name = top;
pos = (369,384);
}
);
color = 10;
layerId = m005;
shapes = (
{
closed = 1;
nodes = (
(370,-11,o),
(451,75,o),
(451,196,cs),
(451,313,o),
(370,395,o),
(243,395,cs),
(121,395,o),
(35,308,o),
(35,185,cs),
(35,70,o),
(121,-11,o),
(243,-11,cs)
);
},
{
closed = 1;
nodes = (
(123,296,o),
(169,359,o),
(235,359,cs),
(315,359,o),
(371,282,o),
(371,174,cs),
(371,87,o),
(321,25,o),
(251,25,cs),
(176,25,o),
(123,101,o),
(123,208,cs)
);
},
{
closed = 1;
nodes = (
(454,302,o),
(496,362,o),
(556,362,cs),
(601,362,o),
(635,325,o),
(638,266,c),
(431,260,l),
(427,231,l),
(707,225,l),
(719,239,l),
(719,330,o),
(657,395,o),
(570,395,cs),
(458,395,o),
(379,309,o),
(379,188,cs),
(379,71,o),
(450,-11,o),
(551,-11,cs),
(613,-11,o),
(682,33,o),
(717,95,c),
(699,108,l),
(676,75,o),
(624,52,o),
(572,52,cs),
(503,52,o),
(454,117,o),
(454,210,cs)
);
}
);
width = 738;
}
);
unicode = 339;
},
{
glyphname = p;
lastChange = "2025-01-27 09:18:17 +0000";
layers = (
{
associatedMasterId = m005;
background = {
shapes = (
{
closed = 1;
nodes = (
(76,-240,l,{
"Letterink-NibData" = {
AngleInDegrees = "0";
};
}),
(101,-262,o),
(120,-273,o),
(150,-283,c,{
"Letterink-NibData" = {
AngleInDegrees = "360";
};
}),
(224,-240,l,{
"Letterink-NibData" = {
AngleInDegrees = "0";
};
}),
(186,-228,o),
(172,-220,o),
(148,-200,c),
(148,-2,l,{
"Letterink-NibData" = {
AngleInDegrees = "360";
};
}),
(149,-3,l,{
"Letterink-NibData" = {
AngleInDegrees = "360";
};
}),
(172,-9,o),
(184,-11,o),
(202,-11,cs),
(249,-11,o),
(281,1,o),
(325,36,c,{
"Letterink-NibData" = {
AngleInDegrees = "0";
};
}),
(407,68,o),
(451,128,o),
(451,210,cs),
(451,310,o),
(367,395,o),
(268,395,cs),
(220,395,o),
(189,383,o),
(145,347,c,{
"Letterink-NibData" = {
AngleInDegrees = "360";
};
}),
(146,346,ls,{
"Letterink-NibData" = {
AngleInDegrees = "359.99999";
};
}),
(122,367,o),
(104,377,o),
(75,387,c,{
"Letterink-NibData" = {
AngleInDegrees = "359.99999";
};
}),
(1,344,l,{
"Letterink-NibData" = {
AngleInDegrees = "0";
};
}),
(38,332,o),
(53,324,o),
(76,304,c)
);
},
{
closed = 1;
nodes = (
(148,302,l),
(165,321,o),
(197,335,o),
(236,335,cs),
(317,335,o),
(373,269,o),
(373,183,cs),
(373,90,o),
(321,26,o),
(245,26,cs),
(189,26,o),
(155,64,o),
(148,101,c)
);
},
{
closed = 1;
nodes = (
(369,183,l),
(368,91,o),
(317,26,o),
(244,26,cs),
(191,26,o),
(137,67,o),
(113,125,c),
(67,40,l),
(104,10,o),
(168,-11,o),
(223,-11,cs),
(351,-11,o),
(443,83,o),
(443,216,c)
);
},
{
closed = 1;
nodes = (
(443,216,l),
(443,321,o),
(374,395,o),
(280,395,cs),
(228,395,o),
(156,360,o),
(107,310,c),
(107,291,l),
(137,317,o),
(190,335,o),
(235,335,cs),
(315,335,o),
(369,272,o),
(369,183,c)
);
}
);
};
layerId = "4BE9B7BC-113F-472C-95D8-B3830030B9AE";
name = "29. Dez. 24, 12:25";
shapes = (
{
closed = 1;
nodes = (
(456,226,l),
(456,325,o),
(393,395,o),
(304,395,cs),
(260,395,o),
(189,358,o),
(131,305,c),
(131,286,l),
(171,315,o),
(224,335,o),
(259,335,cs),
(318,335,o),
(363,281,o),
(368,204,c)
);
},
{
closed = 1;
nodes = (
(225,-260,l),
(225,-242,l),
(186,-228,o),
(159,-207,o),
(159,-192,cs),
(159,315,l),
(160,315,l),
(161,397,l),
(146,403,l),
(27,362,l),
(27,341,l),
(61,326,o),
(86,309,o),
(87,298,cs),
(93,208,o),
(93,5,o),
(87,-192,cs),
(86,-209,o),
(59,-229,o),
(22,-242,c),
(22,-260,l)
);
},
{
closed = 1;
nodes = (
(368,204,l),
(368,99,o),
(327,25,o),
(268,25,cs),
(215,25,o),
(163,56,o),
(142,101,c),
(105,31,l),
(136,6,o),
(201,-11,o),
(260,-11,cs),
(375,-11,o),
(456,87,o),
(456,226,c)
);
}
);
width = 488;
},
{
associatedMasterId = m005;
background = {
shapes = (
{
closed = 1;
nodes = (
(76,-240,l,{
"Letterink-NibData" = {
AngleInDegrees = "0";
};
}),
(101,-262,o),
(120,-273,o),
(150,-283,c,{
"Letterink-NibData" = {
AngleInDegrees = "360";
};
}),
(224,-240,l,{
"Letterink-NibData" = {
AngleInDegrees = "0";
};
}),
(186,-228,o),
(172,-220,o),
(148,-200,c),
(148,-2,l,{
"Letterink-NibData" = {
AngleInDegrees = "360";
};
}),
(149,-3,l,{
"Letterink-NibData" = {
AngleInDegrees = "360";
};
}),
(172,-9,o),
(184,-11,o),
(202,-11,cs),
(249,-11,o),
(281,1,o),
(325,36,c,{
"Letterink-NibData" = {
AngleInDegrees = "0";
};
}),
(407,68,o),
(451,128,o),
(451,210,cs),
(451,310,o),
(367,395,o),
(268,395,cs),
(220,395,o),
(189,383,o),
(145,347,c,{
"Letterink-NibData" = {
AngleInDegrees = "360";
};
}),
(146,346,ls,{
"Letterink-NibData" = {
AngleInDegrees = "359.99999";
};
}),
(122,367,o),
(104,377,o),
(75,387,c,{
"Letterink-NibData" = {
AngleInDegrees = "359.99999";
};
}),
(1,344,l,{
"Letterink-NibData" = {
AngleInDegrees = "0";
};
}),
(38,332,o),
(53,324,o),
(76,304,c)
);
},
{
closed = 1;
nodes = (
(148,302,l),
(165,321,o),
(197,335,o),
(236,335,cs),
(317,335,o),
(373,269,o),
(373,183,cs),
(373,90,o),
(321,26,o),
(245,26,cs),
(189,26,o),
(155,64,o),
(148,101,c)
);
},
{
closed = 1;
nodes = (
(369,183,l),
(368,91,o),
(317,26,o),
(244,26,cs),
(191,26,o),
(137,67,o),
(113,125,c),
(67,40,l),
(104,10,o),
(168,-11,o),
(223,-11,cs),
(351,-11,o),
(443,83,o),
(443,216,c)
);
},
{
closed = 1;
nodes = (
(443,216,l),
(443,321,o),
(374,395,o),
(280,395,cs),
(228,395,o),
(156,360,o),
(107,310,c),
(107,291,l),
(137,317,o),
(190,335,o),
(235,335,cs),
(315,335,o),
(369,272,o),
(369,183,c)
);
}
);
};
layerId = "8E049EDF-ED14-4448-BB42-4E4333D0143E";
name = "29. Dez. 24, 12:26";
shapes = (
{
closed = 1;
nodes = (
(456,226,l),
(456,325,o),
(393,395,o),
(304,395,cs),
(261,395,o),
(189,358,o),
(131,305,c),
(131,286,l),
(171,315,o),
(224,335,o),
(259,335,cs),
(318,335,o),
(363,281,o),
(368,204,c)
);
},
{
closed = 1;
nodes = (
(225,-260,l),
(225,-242,l),
(186,-228,o),
(159,-207,o),
(159,-192,cs),
(159,315,l),
(160,315,l),
(161,397,l),
(146,403,l),
(27,362,l),
(27,341,l),
(62,326,o),
(86,309,o),
(87,298,cs),
(93,208,o),
(93,5,o),
(87,-192,cs),
(86,-208,o),
(60,-229,o),
(22,-242,c),
(22,-260,l)
);
},
{
closed = 1;
nodes = (
(368,204,l),
(368,99,o),
(318,25,o),
(248,25,cs),
(207,25,o),
(163,56,o),
(142,101,c),
(105,31,l),
(137,6,o),
(193,-11,o),
(240,-11,cs),
(367,-11,o),
(456,87,o),
(456,226,c)
);
}
);
width = 488;
},
{
anchors = (
{
name = bottom;
pos = (243,0);
},
{
name = top;
pos = (243,384);
}
);
background = {
shapes = (
{
closed = 1;
nodes = (
(72,-240,l,{
"Letterink-NibData" = {
AngleInDegrees = "0";
};
}),
(97,-262,o),
(116,-273,o),
(146,-283,c,{
"Letterink-NibData" = {
AngleInDegrees = "360";
};
}),
(220,-240,l,{
"Letterink-NibData" = {
AngleInDegrees = "0";
};
}),
(182,-228,o),
(168,-220,o),
(144,-200,c),
(144,-2,l,{
"Letterink-NibData" = {
AngleInDegrees = "360";
};
}),
(145,-3,l,{
"Letterink-NibData" = {
AngleInDegrees = "360";
};
}),
(168,-9,o),
(180,-11,o),
(198,-11,cs),
(245,-11,o),
(277,1,o),
(321,36,c,{
"Letterink-NibData" = {
AngleInDegrees = "0";
};
}),
(403,68,o),
(447,128,o),
(447,210,cs),
(447,310,o),
(363,395,o),
(264,395,cs),
(216,395,o),
(185,383,o),
(141,347,c,{
"Letterink-NibData" = {
AngleInDegrees = "360";
};
}),
(142,346,ls,{
"Letterink-NibData" = {
AngleInDegrees = "359.99999";
};
}),
(118,367,o),
(100,377,o),
(71,387,c,{
"Letterink-NibData" = {
AngleInDegrees = "359.99999";
};
}),
(-3,344,l,{
"Letterink-NibData" = {
AngleInDegrees = "0";
};
}),
(34,332,o),
(49,324,o),
(72,304,c)
);
},
{
closed = 1;
nodes = (
(144,302,l),
(161,321,o),
(193,335,o),
(232,335,cs),
(313,335,o),
(369,269,o),
(369,183,cs),
(369,90,o),
(317,26,o),
(241,26,cs),
(185,26,o),
(151,64,o),
(144,101,c)
);
}
);
};
color = 2;
layerId = m005;
name = Regular;
shapes = (
{
closed = 1;
nodes = (
(450,205,l),
(450,316,o),
(379,395,o),
(281,395,cs),
(236,395,o),
(165,362,o),
(108,315,c),
(108,296,l),
(146,319,o),
(199,335,o),
(236,335,cs),
(314,335,o),
(371,268,o),
(371,174,c)
);
},
{
closed = 1;
nodes = (
(234,-232,l),
(234,-214,l),
(180,-204,o),
(144,-201,o),
(144,-164,cs),
(144,316,l),
(143,316,l),
(144,395,l),
(131,403,l),
(0,363,l),
(0,342,l),
(47,327,o),
(72,310,o),
(72,299,cs),
(72,-164,ls),
(72,-197,o),
(54,-204,o),
(18,-214,c),
(18,-232,l)
);
},
{
closed = 1;
nodes = (
(371,174,l),
(371,87,o),
(315,26,o),
(237,26,cs),
(194,26,o),
(143,64,o),
(118,117,c),
(92,28,l),
(124,5,o),
(176,-11,o),
(216,-11,cs),
(353,-11,o),
(450,78,o),
(450,205,c)
);
}
);
width = 486;
}
);
note = p;
unicode = 112;
},
{
glyphname = thorn;
lastChange = "2025-01-27 09:18:17 +0000";
layers = (
{
layerId = m005;
shapes = (
{
closed = 1;
nodes = (
(450,205,l),
(450,316,o),
(379,395,o),
(281,395,cs),
(236,395,o),
(165,362,o),
(108,315,c),
(108,296,l),
(146,319,o),
(199,335,o),
(236,335,cs),
(314,335,o),
(371,268,o),
(371,174,c)
);
},
{
closed = 1;
nodes = (
(234,-232,l),
(234,-214,l),
(180,-204,o),
(144,-201,o),
(144,-164,cs),
(144,316,l),
(143,316,l),
(144,660,l),
(131,668,l),
(0,628,l),
(0,607,l),
(47,592,o),
(72,575,o),
(72,564,cs),
(72,-164,ls),
(72,-197,o),
(56,-200,o),
(18,-214,c),
(18,-232,l)
);
},
{
closed = 1;
nodes = (
(371,174,l),
(371,87,o),
(315,26,o),
(237,26,cs),
(194,26,o),
(143,64,o),
(118,117,c),
(92,28,l),
(124,5,o),
(176,-11,o),
(216,-11,cs),
(353,-11,o),
(450,78,o),
(450,205,c)
);
}
);
width = 486;
}
);
unicode = 254;
},
{
glyphname = q;
lastChange = "2025-01-27 09:18:17 +0000";
layers = (
{
anchors = (
{
name = bottom;
pos = (243,0);
},
{
name = top;
pos = (243,384);
}
);
color = 3;
layerId = m005;
shapes = (
{
closed = 1;
nodes = (
(341,-164,l),
(415,-164,l),
(414,-39,o),
(414,269,o),
(415,394,c),
(391,383,o),
(367,371,o),
(343,377,c)
);
},
{
closed = 1;
nodes = (
(110,201,l),
(111,288,o),
(160,358,o),
(229,358,cs),
(279,358,o),
(337,314,o),
(360,259,c),
(406,344,l),
(371,372,o),
(302,395,o),
(250,395,cs),
(127,395,o),
(36,294,o),
(36,168,c)
);
},
{
closed = 1;
nodes = (
(36,168,l),
(36,68,o),
(102,-11,o),
(193,-11,cs),
(243,-11,o),
(320,27,o),
(366,74,c),
(366,93,l),
(338,68,o),
(281,49,o),
(238,49,cs),
(163,49,o),
(110,116,o),
(110,201,c)
);
},
{
closed = 1;
nodes = (
(341,-201,o),
(316,-202,o),
(252,-214,c),
(252,-232,l),
(468,-232,l),
(468,-214,l),
(438,-202,o),
(415,-201,o),
(415,-164,c),
(341,-164,l)
);
}
);
width = 486;
}
);
unicode = 113;
},
{
glyphname = r;
lastChange = "2025-01-27 09:18:17 +0000";
layers = (
{
anchors = (
{
name = bottom;
pos = (124,0);
},
{
name = top;
pos = (162,384);
}
);
background = {
shapes = (
{
closed = 1;
nodes = (
(88,40,l,{
"Letterink-NibData" = {
AngleInDegrees = "0";
};
}),
(113,18,o),
(132,7,o),
(162,-3,c,{
"Letterink-NibData" = {
AngleInDegrees = "360";
};
}),
(236,40,l,{
"Letterink-NibData" = {
AngleInDegrees = "0";
};
}),
(198,52,o),
(184,60,o),
(160,80,c),
(160,342,l,{
"Letterink-NibData" = {
AngleInDegrees = "360";
};
}),
(161,341,l,{
"Letterink-NibData" = {
AngleInDegrees = "0";
};
}),
(184,347,o),
(196,349,o),
(214,349,cs),
(262,349,o),
(291,338,o),
(337,301,c,{
"Letterink-NibData" = {
AngleInDegrees = "0";
};
}),
(408,342,l,{
"Letterink-NibData" = {
AngleInDegrees = "0";
};
}),
(356,384,o),
(328,395,o),
(280,395,cs),
(232,395,o),
(201,383,o),
(157,347,c,{
"Letterink-NibData" = {
AngleInDegrees = "360";
};
}),
(158,346,ls,{
"Letterink-NibData" = {
AngleInDegrees = "359.99999";
};
}),
(134,367,o),
(116,377,o),
(87,387,c,{
"Letterink-NibData" = {
AngleInDegrees = "359.99999";
};
}),
(13,344,l,{
"Letterink-NibData" = {
AngleInDegrees = "0";
};
}),
(50,332,o),
(65,324,o),
(88,304,c)
);
}
);
};
color = 2;
guides = (
{
angle = 46;
lockAngle = 1;
pos = (326,376);
}
);
layerId = m005;
shapes = (
{
closed = 1;
nodes = (
(135,228,l),
(179,285,o),
(194,320,o),
(226,320,cs),
(238,320,o),
(247,307,o),
(260,294,cs),
(282,272,o),
(345,351,o),
(323,373,cs),
(311,384,o),
(292,393,o),
(270,393,cs),
(231,393,o),
(206,363,o),
(133,267,c)
);
},
{
closed = 1;
nodes = (
(252,0,l),
(252,18,l),
(190,32,o),
(161,38,o),
(161,68,cs),
(161,295,l),
(162,295,l),
(165,394,l),
(150,403,l),
(18,362,l),
(18,341,l),
(47,333,o),
(86,319,o),
(87,298,cs),
(91,223,o),
(91,143,o),
(89,68,cs),
(88,37,o),
(62,32,o),
(18,18,c),
(18,0,l)
);
}
);
width = 324;
}
);
note = r;
unicode = 114;
},
{
glyphname = s;
lastChange = "2025-01-27 09:18:17 +0000";
layers = (
{
anchors = (
{
name = bottom;
pos = (171,0);
},
{
name = top;
pos = (171,384);
}
);
background = {
shapes = (
{
closed = 1;
nodes = (
(82,386,l),
(82,387,l,{
"Letterink-NibData" = {
AngleInDegrees = "360";
};
}),
(9,346,l,{
"Letterink-NibData" = {
AngleInDegrees = "360";
};
}),
(12,341,l),
(82,341,l),
(82,40,l,{
"Letterink-NibData" = {
AngleInDegrees = "0";
};
}),
(107,18,o),
(126,7,o),
(155,-3,c,{
"Letterink-NibData" = {
AngleInDegrees = "0";
};
}),
(230,40,l,{
"Letterink-NibData" = {
AngleInDegrees = "0";
};
}),
(193,52,o),
(177,60,o),
(154,80,c),
(154,662,l,{
"Letterink-NibData" = {
AngleInDegrees = "360";
};
}),
(155,661,l,{
"Letterink-NibData" = {
AngleInDegrees = "0";
};
}),
(178,667,o),
(189,669,o),
(208,669,cs),
(256,669,o),
(285,657,o),
(331,621,c,{
"Letterink-NibData" = {
AngleInDegrees = "0";
};
}),
(402,662,l,{
"Letterink-NibData" = {
AngleInDegrees = "0";
};
}),
(348,705,o),
(323,715,o),
(273,715,cs),
(226,715,o),
(194,703,o),
(151,667,c,{
"Letterink-NibData" = {
AngleInDegrees = "360";
};
}),
(82,628,l)
);
}
);
};
color = 4;
layerId = m005;
shapes = (
{
closed = 1;
nodes = (
(245,-9,o),
(306,39,o),
(306,108,cs),
(306,226,o),
(108,222,o),
(110,310,cs),
(111,343,o),
(141,368,o),
(176,368,cs),
(224,368,o),
(258,334,o),
(260,285,c),
(286,285,l),
(285,325,o),
(286,362,o),
(289,376,c),
(256,388,o),
(209,396,o),
(176,396,cs),
(102,396,o),
(44,347,o),
(44,278,cs),
(44,154,o),
(238,171,o),
(238,80,cs),
(238,41,o),
(206,16,o),
(161,19,cs),
(117,22,o),
(68,79,o),
(63,128,c),
(36,128,l),
(39,114,o),
(41,55,o),
(39,12,c),
(81,0,o),
(139,-9,o),
(158,-9,cs)
);
}
);
width = 342;
}
);
note = s;
unicode = 115;
},
{
glyphname = germandbls;
lastChange = "2025-01-27 09:18:17 +0000";
layers = (
{
anchors = (
{
name = bottom;
pos = (252,0);
},
{
name = top;
pos = (252,694);
}
);
background = {
shapes = (
{
closed = 1;
nodes = (
(418,-9,o),
(479,39,o),
(479,108,cs),
(479,226,o),
(286,222,o),
(288,310,cs),
(289,343,o),
(314,368,o),
(349,368,cs),
(397,368,o),
(431,334,o),
(433,285,c),
(459,285,l),
(458,325,o),
(459,362,o),
(462,376,c),
(429,388,o),
(382,396,o),
(349,396,cs),
(275,396,o),
(222,347,o),
(222,278,cs),
(222,154,o),
(411,171,o),
(411,80,cs),
(411,41,o),
(379,16,o),
(334,19,cs),
(290,22,o),
(246,79,o),
(241,128,c),
(214,128,l),
(217,114,o),
(219,55,o),
(217,12,c),
(259,0,o),
(312,-9,o),
(331,-9,cs)
);
}
);
};
color = 2;
layerId = m005;
shapes = (
{
closed = 1;
nodes = (
(149,0,l),
(147,69,ls),
(143,188,o),
(143,367,o),
(146,499,cs),
(148,574,o),
(186,627,o),
(229,627,c),
(266,665,l),
(160,665,o),
(76,583,o),
(73,467,cs),
(71,392,o),
(72,238,o),
(72,69,cs),
(72,46,o),
(56,35,o),
(18,18,c),
(18,0,l)
);
},
{
closed = 1;
nodes = (
(414,-6,o),
(486,47,o),
(486,129,cs),
(486,247,o),
(301,261,o),
(301,339,cs),
(301,430,o),
(409,394,o),
(402,550,cs),
(399,613,o),
(344,665,o),
(266,665,c),
(229,627,l),
(288,627,o),
(328,580,o),
(331,524,cs),
(338,388,o),
(232,420,o),
(232,309,cs),
(232,189,o),
(415,194,o),
(415,103,cs),
(415,50,o),
(373,19,o),
(340,22,cs),
(302,25,o),
(262,64,o),
(256,122,c),
(229,122,l),
(233,110,o),
(234,62,o),
(232,6,c),
(264,-3,o),
(312,-6,o),
(337,-6,cs)
);
},
{
closed = 1;
nodes = (
(127,334,l),
(127,389,l),
(68,384,l),
(-1,359,l),
(-1,349,l)
);
}
);
width = 504;
}
);
unicode = 223;
},
{
glyphname = t;
lastChange = "2025-01-27 09:18:17 +0000";
layers = (
{
anchors = (
{
name = bottom;
pos = (148,0);
},
{
name = center;
pos = (148,192);
},
{
name = top;
pos = (148,474);
},
{
name = topright;
pos = (276,694);
}
);
background = {
shapes = (
{
closed = 1;
nodes = (
(124,1,o),
(153,-11,o),
(201,-11,cs),
(250,-11,o),
(278,0,o),
(326,39,c,{
"Letterink-NibData" = {
AngleInDegrees = "0";
};
}),
(323,44,l),
(320,44,o),
(316,43,o),
(316,42,c,{
"Letterink-NibData" = {
AngleInDegrees = "0";
};
}),
(298,37,o),
(285,35,o),
(266,35,cs),
(220,35,o),
(188,47,o),
(147,80,c),
(147,342,l,{
"Letterink-NibData" = {
AngleInDegrees = "360";
};
}),
(148,341,l),
(254,341,l,{
"Letterink-NibData" = {
AngleInDegrees = "360";
};
}),
(327,382,l,{
"Letterink-NibData" = {
AngleInDegrees = "0";
};
}),
(324,387,l),
(147,387,l),
(147,429,l,{
"Letterink-NibData" = {
AngleInDegrees = "0";
};
}),
(2,346,l,{
"Letterink-NibData" = {
AngleInDegrees = "360";
};
}),
(5,341,l),
(75,341,l),
(75,40,l,{
"Letterink-NibData" = {
AngleInDegrees = "360";
};
})
);
}
);
};
color = 2;
guides = (
{
angle = 11.5;
pos = (285,39);
}
);
layerId = m005;
shapes = (
{
closed = 1;
nodes = (
(199,-11,o),
(253,5,o),
(288,27,c),
(278,48,l),
(259,40,o),
(230,34,o),
(210,34,cs),
(177,34,o),
(151,52,o),
(149,78,cs),
(147,108,o),
(146,153,o),
(146,186,cs),
(146,316,o),
(154,433,o),
(159,468,c),
(140,474,l),
(78,381,l),
(72,237,o),
(68,98,o),
(74,46,cs),
(78,13,o),
(113,-11,o),
(158,-11,cs)
);
},
{
closed = 1;
nodes = (
(282,334,l),
(282,389,l),
(82,384,l),
(0,359,l),
(0,349,l)
);
},
{
closed = 1;
nodes = (
(114,361,l),
(140,474,l),
(104,423,o),
(48,375,o),
(0,359,c)
);
}
);
width = 288;
}
);
note = t;
unicode = 116;
},
{
glyphname = u;
lastChange = "2025-01-27 09:18:17 +0000";
layers = (
{
anchors = (
{
name = bottom;
pos = (243,0);
},
{
name = ogonek;
pos = (437,10);
},
{
name = top;
pos = (243,384);
},
{
name = topright;
pos = (346,331);
}
);
background = {
shapes = (
{
closed = 1;
nodes = (
(71,40,l,{
"Letterink-NibData" = {
AngleInDegrees = "360";
};
}),
(120,1,o),
(149,-11,o),
(197,-11,cs),
(244,-11,o),
(276,1,o),
(320,37,c,{
"Letterink-NibData" = {
AngleInDegrees = "360";
};
}),
(319,38,ls,{
"Letterink-NibData" = {
AngleInDegrees = "0";
};
}),
(342,17,o),
(361,6,o),
(389,-3,c,{
"Letterink-NibData" = {
AngleInDegrees = "0";
};
}),
(464,40,l,{
"Letterink-NibData" = {
AngleInDegrees = "0";
};
}),
(426,52,o),
(411,60,o),
(388,80,c),
(388,344,l,{
"Letterink-NibData" = {
AngleInDegrees = "359.99999";
};
}),
(362,367,o),
(346,377,o),
(315,387,c,{
"Letterink-NibData" = {
AngleInDegrees = "359.99999";
};
}),
(241,344,l,{
"Letterink-NibData" = {
AngleInDegrees = "0";
};
}),
(278,332,o),
(293,324,o),
(316,304,c),
(316,42,l),
(316,43,l,{
"Letterink-NibData" = {
AngleInDegrees = "0";
};
}),
(292,37,o),
(281,35,o),
(263,35,cs),
(216,35,o),
(185,47,o),
(143,80,c),
(143,344,l,{
"Letterink-NibData" = {
AngleInDegrees = "359.99999";
};
}),
(117,367,o),
(101,377,o),
(70,387,c,{
"Letterink-NibData" = {
AngleInDegrees = "359.99999";
};
}),
(-4,344,l,{
"Letterink-NibData" = {
AngleInDegrees = "0";
};
}),
(33,332,o),
(48,324,o),
(71,304,c)
);
}
);
};
color = 1;
layerId = m005;
shapes = (
{
closed = 1;
nodes = (
(135,403,l),
(0,369,l),
(0,351,l),
(48,337,o),
(74,332,o),
(74,301,cs),
(71,111,ls),
(70,40,o),
(132,-11,o),
(199,-11,cs),
(243,-11,o),
(300,32,o),
(352,89,c),
(352,108,l),
(320,75,o),
(271,49,o),
(234,49,cs),
(183,49,o),
(145,77,o),
(143,145,cs),
(141,201,o),
(145,265,o),
(146,321,cs),
(146,345,o),
(148,370,o),
(148,394,c)
);
},
{
closed = 1;
nodes = (
(386,403,l),
(252,369,l),
(252,351,l),
(298,337,o),
(321,331,o),
(323,301,cs),
(328,219,o),
(325,146,o),
(320,64,c),
(323,64,l),
(322,-5,l),
(335,-11,l),
(468,17,l),
(468,38,l),
(435,41,o),
(394,55,o),
(394,76,cs),
(397,321,l),
(399,394,l)
);
}
);
width = 486;
}
);
note = u;
unicode = 117;
},
{
glyphname = v;
lastChange = "2025-01-27 09:18:17 +0000";
layers = (
{
anchors = (
{
name = bottom;
pos = (216,0);
},
{
name = top;
pos = (216,384);
}
);
background = {
shapes = (
{
closed = 1;
nodes = (
(233,-12,l,{
"Letterink-NibData" = {
AngleInDegrees = "360";
};
}),
(391,343,l,{
"Letterink-NibData" = {
AngleInDegrees = "0";
};
}),
(364,367,o),
(348,376,o),
(317,387,c,{
"Letterink-NibData" = {
AngleInDegrees = "0";
};
}),
(257,327,l,{
"Letterink-NibData" = {
AngleInDegrees = "360";
};
}),
(291,316,o),
(307,307,o),
(329,289,c,{
"Letterink-NibData" = {
AngleInDegrees = "360";
};
}),
(253,119,l,{
"Letterink-NibData" = {
AngleInDegrees = "360";
};
}),
(143,346,l,{
"Letterink-NibData" = {
AngleInDegrees = "359.99999";
};
}),
(119,367,o),
(102,377,o),
(72,387,c,{
"Letterink-NibData" = {
AngleInDegrees = "0";
};
}),
(12,327,l,{
"Letterink-NibData" = {
AngleInDegrees = "0";
};
}),
(48,315,o),
(63,307,o),
(88,286,c,{
"Letterink-NibData" = {
AngleInDegrees = "360";
};
})
);
}
);
};
color = 4;
layerId = m005;
shapes = (
{
closed = 1;
nodes = (
(194,0,l),
(222,0,l),
(366,302,ls),
(375,322,o),
(384,335,o),
(395,345,cs),
(405,353,o),
(417,358,o),
(432,361,c),
(432,384,l),
(288,384,l),
(288,361,l),
(299,359,o),
(318,358,o),
(329,351,cs),
(335,348,o),
(339,343,o),
(339,336,cs),
(339,330,o),
(337,319,o),
(330,304,cs),
(223,72,l),
(243,72,l),
(146,318,ls),
(143,327,o),
(141,333,o),
(141,337,cs),
(141,344,o),
(145,349,o),
(152,353,cs),
(165,359,o),
(187,360,o),
(198,361,c),
(198,384,l),
(0,384,l),
(0,361,l),
(25,359,o),
(36,356,o),
(45,348,cs),
(53,340,o),
(60,328,o),
(68,308,cs)
);
}
);
width = 432;
}
);
note = v;
unicode = 118;
},
{
glyphname = vhook;
lastChange = "2025-01-27 09:18:17 +0000";
layers = (
{
layerId = m005;
shapes = (
{
closed = 1;
nodes = (
(135,403,l),
(0,369,l),
(0,351,l),
(48,337,o),
(74,332,o),
(74,301,cs),
(71,93,ls),
(70,32,o),
(116,-11,o),
(181,-11,cs),
(296,-11,o),
(378,94,o),
(378,242,c),
(300,207,l),
(300,101,o),
(271,26,o),
(224,26,cs),
(179,26,o),
(145,68,o),
(143,127,cs),
(143,171,o),
(144,252,o),
(146,321,cs),
(146,345,o),
(148,370,o),
(148,394,c)
);
},
{
closed = 1;
nodes = (
(243,350,l),
(247,354,o),
(253,356,o),
(263,356,cs),
(289,356,o),
(300,297,o),
(300,207,c),
(378,242,l),
(378,332,o),
(342,395,o),
(292,395,cs),
(271,395,o),
(243,387,o),
(231,376,c)
);
}
);
width = 414;
}
);
unicode = 651;
},
{
glyphname = w;
lastChange = "2025-01-27 09:18:17 +0000";
layers = (
{
anchors = (
{
name = bottom;
pos = (297,0);
},
{
name = top;
pos = (297,384);
}
);
color = 4;
layerId = m005;
shapes = (
{
closed = 1;
nodes = (
(388,0,l),
(416,0,l),
(546,302,ls),
(555,322,o),
(564,335,o),
(575,345,cs),
(585,353,o),
(597,358,o),
(612,361,c),
(612,384,l),
(468,384,l),
(468,361,l),
(479,359,o),
(498,358,o),
(509,351,cs),
(515,348,o),
(519,343,o),
(519,336,cs),
(519,330,o),
(516,319,o),
(510,304,cs),
(417,72,l),
(438,72,l),
(341,318,ls),
(337,327,o),
(336,333,o),
(336,337,cs),
(336,344,o),
(340,349,o),
(347,353,cs),
(360,359,o),
(388,360,o),
(404,361,c),
(404,384,l),
(224,384,l),
(224,361,l),
(230,359,o),
(232,356,o),
(241,348,cs),
(249,340,o),
(256,328,o),
(264,308,cs)
);
},
{
closed = 1;
nodes = (
(304,279,l),
(211,72,l),
(232,72,l),
(127,318,ls),
(123,327,o),
(122,333,o),
(122,337,cs),
(122,344,o),
(126,349,o),
(133,353,cs),
(146,359,o),
(148,360,o),
(162,361,c),
(162,384,l),
(0,384,l),
(0,361,l),
(9,359,o),
(18,356,o),
(27,348,cs),
(35,340,o),
(42,328,o),
(50,308,cs),
(176,0,l),
(210,0,l),
(323,241,l)
);
}
);
width = 612;
}
);
unicode = 119;
},
{
glyphname = x;
lastChange = "2025-01-27 09:18:17 +0000";
layers = (
{
anchors = (
{
name = bottom;
pos = (216,0);
},
{
name = top;
pos = (216,384);
}
);
color = 4;
guides = (
{
angle = 270;
pos = (0,373);
},
{
angle = -54.195;
pos = (-18,459);
},
{
angle = 229.466;
pos = (233,183);
}
);
layerId = m005;
shapes = (
{
closed = 1;
nodes = (
(190,172,l),
(219,165,l),
(352,322,ls),
(366,339,o),
(390,356,o),
(432,361,c),
(432,384,l),
(270,384,l),
(270,365,l),
(303,360,o),
(313,344,o),
(297,324,cs),
(228,237,l),
(249,221,l),
(165,338,ls),
(150,359,o),
(178,364,o),
(189,365,c),
(189,384,l),
(0,384,l),
(0,361,l),
(45,358,o),
(63,346,o),
(76,328,cs)
);
},
{
closed = 1;
nodes = (
(249,223,l),
(222,238,l),
(73,62,ls),
(53,38,o),
(36,30,o),
(0,23,c),
(0,0,l),
(162,0,l),
(162,19,l),
(137,24,o),
(108,30,o),
(124,50,cs),
(217,170,l),
(193,167,l),
(282,46,ls),
(294,30,o),
(269,21,o),
(252,19,c),
(252,0,l),
(432,0,l),
(432,23,l),
(396,26,o),
(383,36,o),
(368,56,cs)
);
}
);
width = 432;
}
);
unicode = 120;
},
{
glyphname = y;
lastChange = "2025-01-27 09:18:17 +0000";
layers = (
{
anchors = (
{
name = bottom;
pos = (232,-60);
},
{
name = top;
pos = (216,384);
}
);
color = 4;
layerId = m005;
shapes = (
{
closed = 1;
nodes = (
(248,0,l),
(366,302,ls),
(374,322,o),
(384,335,o),
(395,345,cs),
(405,353,o),
(417,358,o),
(432,361,c),
(432,384,l),
(288,384,l),
(288,361,l),
(301,359,o),
(316,358,o),
(327,351,cs),
(333,348,o),
(337,343,o),
(337,336,cs),
(337,330,o),
(334,319,o),
(328,304,cs),
(211,27,l),
(246,55,l),
(146,318,ls),
(143,327,o),
(141,333,o),
(141,337,cs),
(141,344,o),
(145,349,o),
(152,353,cs),
(165,359,o),
(184,360,o),
(198,361,c),
(198,384,l),
(0,384,l),
(0,361,l),
(33,359,o),
(36,356,o),
(45,348,cs),
(53,340,o),
(60,328,o),
(68,308,cs),
(204,-43,l)
);
},
{
closed = 1;
nodes = (
(132,-232,o),
(182,-139,o),
(214,-75,cs),
(243,-17,o),
(228,-46,o),
(248,0,c),
(212,25,l),
(163,-116,l),
(147,-142,o),
(139,-161,o),
(111,-161,cs),
(92,-161,o),
(90,-141,o),
(68,-141,cs),
(44,-141,o),
(18,-170,o),
(18,-202,cs),
(18,-226,o),
(36,-232,o),
(60,-232,cs)
);
}
);
width = 432;
},
{
associatedMasterId = m005;
layerId = "50AA2D8F-A47F-47B7-8402-81B2F32D7E55";
name = "29. Dez. 24, 16:03";
shapes = (
{
closed = 1;
nodes = (
(180,0,l),
(242,0,l),
(360,302,ls),
(368,322,o),
(378,335,o),
(389,345,cs),
(399,353,o),
(411,358,o),
(426,361,c),
(426,384,l),
(280,384,l),
(280,361,l),
(293,359,o),
(310,358,o),
(321,351,cs),
(327,348,o),
(331,343,o),
(331,336,cs),
(331,330,o),
(328,319,o),
(322,304,cs),
(217,27,l),
(240,55,l),
(152,318,ls),
(149,327,o),
(147,333,o),
(147,337,cs),
(147,344,o),
(151,349,o),
(158,353,cs),
(171,359,o),
(193,360,o),
(207,361,c),
(207,384,l),
(6,384,l),
(6,361,l),
(21,359,o),
(42,356,o),
(51,348,cs),
(59,340,o),
(67,328,o),
(74,308,cs)
);
},
{
closed = 1;
nodes = (
(213,25,l),
(167,-106,o),
(128,-166,o),
(113,-166,cs),
(102,-166,o),
(93,-160,o),
(84,-149,cs),
(74,-137,o),
(74,-125,o),
(68,-119,cs),
(45,-98,o),
(-17,-165,o),
(5,-188,cs),
(21,-204,o),
(59,-215,o),
(97,-215,cs),
(110,-215,o),
(124,-208,o),
(136,-196,cs),
(181,-153,o),
(222,-46,o),
(242,0,c)
);
},
{
closed = 0;
nodes = (
(338,-122,l)
);
}
);
width = 426;
}
);
unicode = 121;
},
{
glyphname = z;
lastChange = "2025-01-27 09:18:17 +0000";
layers = (
{
anchors = (
{
name = bottom;
pos = (209,0);
},
{
name = center;
pos = (209,192);
},
{
name = top;
pos = (209,384);
}
);
background = {
shapes = (
{
closed = 1;
nodes = (
(152,1,o),
(269,0,o),
(380,0,c),
(380,157,l),
(352,157,l),
(343,102,o),
(335,65,o),
(310,65,cs),
(85,65,l),
(95,46,l),
(374,354,l),
(374,391,l),
(283,386,o),
(231,384,o),
(139,384,cs),
(127,384,o),
(107,388,o),
(111,403,c),
(81,412,l),
(38,264,l),
(68,255,l),
(81,307,o),
(100,319,o),
(121,319,cs),
(324,319,l),
(324,359,l),
(41,44,l),
(41,-5,l)
);
}
);
};
color = 4;
layerId = m005;
shapes = (
{
closed = 1;
nodes = (
(152,1,o),
(269,0,o),
(380,0,c),
(380,121,l),
(352,121,l),
(343,66,o),
(335,35,o),
(310,35,cs),
(85,35,l),
(139,16,l),
(372,354,l),
(372,391,l),
(281,386,o),
(247,383,o),
(137,383,cs),
(125,383,o),
(112,387,o),
(116,420,c),
(86,429,l),
(36,263,l),
(66,254,l),
(79,306,o),
(117,348,o),
(138,348,cs),
(322,349,l),
(285,366,l),
(41,13,l),
(41,-5,l)
);
}
);
width = 414;
},
{
anchors = (
{
name = bottom;
pos = (207,0);
},
{
name = center;
pos = (207,192);
},
{
name = top;
pos = (207,384);
}
);
associatedMasterId = m005;
background = {
shapes = (
{
closed = 1;
nodes = (
(150,1,o),
(267,0,o),
(378,0,c),
(378,157,l),
(350,157,l),
(341,102,o),
(333,65,o),
(308,65,cs),
(83,65,l),
(93,46,l),
(372,354,l),
(372,391,l),
(281,386,o),
(229,384,o),
(137,384,cs),
(125,384,o),
(105,388,o),
(109,403,c),
(79,412,l),
(36,264,l),
(66,255,l),
(79,307,o),
(98,319,o),
(119,319,cs),
(322,319,l),
(322,359,l),
(39,44,l),
(39,-5,l)
);
}
);
};
color = 4;
layerId = "E72B9F17-428E-4597-99DF-931390CFA527";
name = "10. Jan. 25, 21:06";
shapes = (
{
closed = 1;
nodes = (
(150,1,o),
(267,0,o),
(378,0,c),
(378,157,l),
(350,157,l),
(341,102,o),
(333,65,o),
(308,65,cs),
(83,65,l),
(93,46,l),
(372,354,l),
(372,391,l),
(281,386,o),
(229,384,o),
(137,384,cs),
(125,384,o),
(105,388,o),
(109,403,c),
(79,412,l),
(36,264,l),
(66,255,l),
(79,307,o),
(98,319,o),
(119,319,cs),
(322,319,l),
(322,359,l),
(39,44,l),
(39,-5,l)
);
}
);
width = 414;
}
);
unicode = 122;
},
{
export = 0;
glyphname = "a.-1";
lastChange = "2025-01-27 09:18:17 +0000";
layers = (
{
layerId = m005;
shapes = (
{
closed = 1;
nodes = (
(308,-6,o),
(341,8,o),
(380,27,c),
(378,40,l),
(346,41,ls),
(321,42,o),
(303,60,o),
(303,84,cs),
(303,51,o),
(305,133,o),
(307,290,c),
(307,351,o),
(282,395,o),
(215,395,cs),
(186,395,o),
(143,378,o),
(104,354,cs),
(72,332,o),
(50,295,o),
(50,264,cs),
(50,233,o),
(122,247,o),
(122,278,cs),
(122,294,o),
(115,290,o),
(115,305,cs),
(115,332,o),
(141,351,o),
(169,351,cs),
(219,351,o),
(237,324,o),
(235,284,cs),
(232,218,l),
(231,205,o),
(231,138,o),
(231,57,cs),
(235,20,o),
(263,-6,o),
(299,-6,cs)
);
},
{
closed = 1;
nodes = (
(165,-6,o),
(212,24,o),
(252,66,c),
(252,85,l),
(221,61,o),
(191,44,o),
(163,44,cs),
(134,44,o),
(115,71,o),
(115,110,c),
(36,94,l),
(36,35,o),
(67,-6,o),
(119,-6,cs)
);
},
{
closed = 1;
nodes = (
(115,110,l),
(115,131,o),
(168,158,o),
(263,175,c),
(264,206,l),
(122,183,o),
(36,137,o),
(36,94,c)
);
}
);
width = 378;
}
);
},
{
export = 0;
glyphname = "d.-1";
lastChange = "2025-01-27 09:18:17 +0000";
layers = (
{
layerId = m005;
shapes = (
{
closed = 1;
nodes = (
(36,189,l),
(36,72,o),
(95,-11,o),
(190,-11,cs),
(237,-11,o),
(299,22,o),
(356,69,c),
(356,88,l),
(318,65,o),
(274,49,o),
(237,49,cs),
(160,49,o),
(113,120,o),
(113,220,c)
);
},
{
closed = 1;
nodes = (
(324,58,l),
(325,58,l),
(324,-6,l),
(337,-12,l),
(458,21,l),
(458,42,l),
(422,57,o),
(396,75,o),
(396,85,c)
);
},
{
closed = 1;
nodes = (
(113,220,l),
(113,301,o),
(157,358,o),
(228,358,cs),
(277,358,o),
(321,320,o),
(346,267,c),
(372,356,l),
(340,379,o),
(295,395,o),
(249,395,cs),
(120,395,o),
(36,310,o),
(36,189,c)
);
},
{
closed = 1;
nodes = (
(396,85,l),
(396,557,l),
(398,658,l),
(383,668,l),
(254,637,l),
(254,616,l),
(295,599,o),
(324,577,o),
(324,563,cs),
(324,58,l)
);
}
);
width = 468;
}
);
},
{
export = 0;
glyphname = "e.-1";
lastChange = "2025-01-27 09:18:17 +0000";
layers = (
{
layerId = m005;
shapes = (
{
closed = 1;
nodes = (
(111,302,o),
(147,362,o),
(207,362,cs),
(252,362,o),
(278,325,o),
(281,266,c),
(88,260,l),
(84,231,l),
(350,225,l),
(362,239,l),
(362,330,o),
(308,395,o),
(221,395,cs),
(109,395,o),
(36,309,o),
(36,188,cs),
(36,71,o),
(101,-11,o),
(202,-11,cs),
(264,-11,o),
(325,33,o),
(360,95,c),
(342,108,l),
(319,75,o),
(275,52,o),
(223,52,cs),
(154,52,o),
(111,117,o),
(111,210,cs)
);
}
);
width = 378;
}
);
},
{
export = 0;
glyphname = "h.-1";
lastChange = "2025-01-27 09:18:17 +0000";
layers = (
{
layerId = m005;
shapes = (
{
closed = 1;
nodes = (
(18,0,l),
(216,0,l),
(216,18,l),
(169,32,o),
(144,39,o),
(144,68,cs),
(144,557,l),
(146,658,l),
(131,668,l),
(0,637,l),
(0,616,l),
(21,608,o),
(72,595,o),
(72,563,cs),
(72,68,ls),
(72,39,o),
(48,32,o),
(18,18,c)
);
},
{
closed = 1;
nodes = (
(451,0,l),
(451,18,l),
(413,32,o),
(397,37,o),
(397,68,cs),
(397,273,ls),
(397,355,o),
(371,395,o),
(301,395,cs),
(251,395,o),
(189,365,o),
(123,305,c),
(123,286,l),
(183,329,o),
(221,335,o),
(256,335,cs),
(308,335,o),
(321,306,o),
(325,246,cs),
(329,187,o),
(329,127,o),
(325,68,cs),
(323,38,o),
(298,32,o),
(271,18,c),
(271,0,l)
);
}
);
width = 485;
}
);
},
{
export = 0;
glyphname = "n.-1";
lastChange = "2025-01-27 09:18:17 +0000";
layers = (
{
layerId = m005;
shapes = (
{
closed = 1;
nodes = (
(468,0,l),
(468,18,l),
(420,32,o),
(396,37,o),
(396,68,cs),
(396,273,ls),
(396,355,o),
(373,395,o),
(303,395,cs),
(253,395,o),
(205,365,o),
(139,305,c),
(139,286,l),
(199,329,o),
(223,335,o),
(258,335,cs),
(310,335,o),
(320,306,o),
(324,246,cs),
(328,189,o),
(328,125,o),
(324,68,cs),
(322,38,o),
(298,24,o),
(270,18,c),
(270,0,l)
);
},
{
closed = 1;
nodes = (
(216,0,l),
(216,18,l),
(182,32,o),
(162,38,o),
(162,68,cs),
(162,315,l),
(164,315,l),
(165,397,l),
(150,403,l),
(18,362,l),
(18,341,l),
(46,333,o),
(86,319,o),
(89,298,cs),
(91,284,o),
(91,129,o),
(89,68,cs),
(88,37,o),
(76,32,o),
(36,18,c),
(36,0,l)
);
}
);
width = 468;
}
);
},
{
export = 0;
glyphname = "r.-1";
lastChange = "2025-01-27 09:18:17 +0000";
layers = (
{
layerId = m005;
shapes = (
{
closed = 1;
nodes = (
(117,228,l),
(165,287,o),
(179,321,o),
(210,321,cs),
(221,321,o),
(230,308,o),
(242,296,cs),
(263,275,o),
(323,350,o),
(302,371,cs),
(291,382,o),
(273,390,o),
(252,390,cs),
(214,390,o),
(191,362,o),
(115,267,c)
);
},
{
closed = 1;
nodes = (
(252,0,l),
(252,18,l),
(190,32,o),
(161,38,o),
(161,68,cs),
(161,295,l),
(162,295,l),
(165,394,l),
(150,403,l),
(18,362,l),
(18,341,l),
(47,333,o),
(86,319,o),
(87,298,cs),
(91,223,o),
(91,143,o),
(89,68,cs),
(88,37,o),
(62,32,o),
(18,18,c),
(18,0,l)
);
}
);
width = 306;
}
);
},
{
export = 0;
glyphname = "s.-1";
lastChange = "2025-01-27 09:18:17 +0000";
layers = (
{
anchors = (
{
name = bottom;
pos = (171,0);
},
{
name = top;
pos = (171,384);
}
);
layerId = m005;
shapes = (
{
closed = 1;
nodes = (
(230,-9,o),
(288,39,o),
(288,108,cs),
(288,226,o),
(108,222,o),
(110,310,cs),
(111,344,o),
(135,368,o),
(167,368,cs),
(209,368,o),
(240,334,o),
(242,285,c),
(268,285,l),
(267,325,o),
(268,363,o),
(271,376,c),
(239,388,o),
(196,396,o),
(167,396,cs),
(95,396,o),
(44,347,o),
(44,278,cs),
(44,154,o),
(220,171,o),
(220,80,cs),
(220,42,o),
(192,16,o),
(152,19,cs),
(106,22,o),
(69,67,o),
(63,128,c),
(36,128,l),
(40,109,o),
(41,61,o),
(39,12,c),
(82,0,o),
(128,-9,o),
(149,-9,cs)
);
}
);
width = 324;
}
);
},
{
export = 0;
glyphname = "t.-1";
lastChange = "2025-01-27 09:18:17 +0000";
layers = (
{
layerId = m005;
shapes = (
{
closed = 1;
nodes = (
(190,-11,o),
(235,5,o),
(270,27,c),
(260,48,l),
(241,40,o),
(221,34,o),
(201,34,cs),
(168,34,o),
(151,52,o),
(149,78,cs),
(147,108,o),
(146,153,o),
(146,186,cs),
(146,316,o),
(154,433,o),
(159,468,c),
(140,474,l),
(78,381,l),
(72,237,o),
(68,98,o),
(74,46,cs),
(78,13,o),
(104,-11,o),
(149,-11,cs)
);
},
{
closed = 1;
nodes = (
(264,334,l),
(264,389,l),
(82,384,l),
(0,359,l),
(0,349,l)
);
},
{
closed = 1;
nodes = (
(114,361,l),
(140,474,l),
(104,423,o),
(48,375,o),
(0,359,c)
);
}
);
width = 270;
}
);
},
{
export = 0;
glyphname = a.1;
lastChange = "2025-01-27 09:18:17 +0000";
layers = (
{
anchors = (
{
name = bottom;
pos = (198,0);
},
{
name = ogonek;
pos = (356,10);
},
{
name = top;
pos = (198,384);
}
);
layerId = m005;
shapes = (
{
closed = 1;
nodes = (
(344,-6,o),
(377,8,o),
(416,27,c),
(414,40,l),
(382,41,ls),
(357,42,o),
(339,60,o),
(339,84,cs),
(339,51,o),
(341,133,o),
(343,290,c),
(343,351,o),
(300,395,o),
(233,395,cs),
(204,395,o),
(143,378,o),
(104,354,cs),
(72,332,o),
(50,295,o),
(50,264,cs),
(50,233,o),
(122,247,o),
(122,278,cs),
(122,294,o),
(115,290,o),
(115,305,cs),
(115,332,o),
(159,351,o),
(187,351,cs),
(237,351,o),
(273,324,o),
(271,284,cs),
(268,218,l),
(267,205,o),
(267,138,o),
(267,57,cs),
(271,20,o),
(299,-6,o),
(335,-6,cs)
);
},
{
closed = 1;
nodes = (
(165,-6,o),
(248,24,o),
(288,66,c),
(288,85,l),
(257,61,o),
(191,44,o),
(163,44,cs),
(134,44,o),
(115,71,o),
(115,110,c),
(36,94,l),
(36,35,o),
(67,-6,o),
(119,-6,cs)
);
},
{
closed = 1;
nodes = (
(115,110,l),
(115,131,o),
(204,158,o),
(299,175,c),
(300,206,l),
(158,183,o),
(36,137,o),
(36,94,c)
);
}
);
width = 414;
}
);
},
{
export = 0;
glyphname = d.1;
lastChange = "2025-01-27 09:18:17 +0000";
layers = (
{
layerId = m005;
shapes = (
{
closed = 1;
nodes = (
(36,189,l),
(36,72,o),
(113,-11,o),
(208,-11,cs),
(255,-11,o),
(335,22,o),
(392,69,c),
(392,88,l),
(354,65,o),
(292,49,o),
(255,49,cs),
(178,49,o),
(113,120,o),
(113,220,c)
);
},
{
closed = 1;
nodes = (
(360,58,l),
(361,58,l),
(360,-6,l),
(373,-12,l),
(494,21,l),
(494,42,l),
(458,57,o),
(432,75,o),
(432,85,c)
);
},
{
closed = 1;
nodes = (
(113,220,l),
(113,301,o),
(175,358,o),
(246,358,cs),
(295,358,o),
(357,320,o),
(382,267,c),
(408,356,l),
(376,379,o),
(313,395,o),
(267,395,cs),
(138,395,o),
(36,310,o),
(36,189,c)
);
},
{
closed = 1;
nodes = (
(432,85,l),
(432,557,l),
(434,658,l),
(419,668,l),
(290,637,l),
(290,616,l),
(331,599,o),
(360,577,o),
(360,563,cs),
(360,58,l)
);
}
);
width = 504;
}
);
},
{
export = 0;
glyphname = e.1;
lastChange = "2025-01-27 09:18:17 +0000";
layers = (
{
anchors = (
{
name = bottom;
pos = (210,0);
},
{
name = ogonek;
pos = (301,10);
},
{
name = top;
pos = (224,384);
}
);
layerId = m005;
shapes = (
{
closed = 1;
nodes = (
(111,302,o),
(163,362,o),
(223,362,cs),
(268,362,o),
(311,325,o),
(314,266,c),
(88,260,l),
(84,231,l),
(383,225,l),
(395,239,l),
(395,330,o),
(324,395,o),
(237,395,cs),
(125,395,o),
(36,309,o),
(36,188,cs),
(36,71,o),
(117,-11,o),
(218,-11,cs),
(280,-11,o),
(358,33,o),
(393,95,c),
(375,108,l),
(352,75,o),
(291,52,o),
(239,52,cs),
(170,52,o),
(111,117,o),
(111,210,cs)
);
}
);
width = 414;
}
);
},
{
export = 0;
glyphname = h.1;
lastChange = "2025-01-27 09:18:17 +0000";
layers = (
{
layerId = m005;
shapes = (
{
closed = 1;
nodes = (
(18,0,l),
(216,0,l),
(216,18,l),
(169,32,o),
(144,39,o),
(144,68,cs),
(144,557,l),
(146,658,l),
(131,668,l),
(0,637,l),
(0,616,l),
(21,608,o),
(72,595,o),
(72,563,cs),
(72,68,ls),
(72,39,o),
(48,32,o),
(18,18,c)
);
},
{
closed = 1;
nodes = (
(486,0,l),
(486,18,l),
(448,32,o),
(432,37,o),
(432,68,cs),
(432,273,ls),
(432,355,o),
(389,395,o),
(319,395,cs),
(269,395,o),
(189,365,o),
(123,305,c),
(123,286,l),
(183,329,o),
(239,335,o),
(274,335,cs),
(326,335,o),
(356,306,o),
(360,246,cs),
(364,187,o),
(364,127,o),
(360,68,cs),
(358,38,o),
(333,32,o),
(306,18,c),
(306,0,l)
);
}
);
width = 504;
}
);
},
{
export = 0;
glyphname = n.1;
lastChange = "2025-01-27 09:18:17 +0000";
layers = (
{
anchors = (
{
name = bottom;
pos = (243,0);
},
{
name = top;
pos = (243,384);
}
);
layerId = m005;
shapes = (
{
closed = 1;
nodes = (
(504,0,l),
(504,18,l),
(456,32,o),
(432,37,o),
(432,68,cs),
(432,273,ls),
(432,355,o),
(391,395,o),
(321,395,cs),
(271,395,o),
(205,365,o),
(139,305,c),
(139,286,l),
(199,329,o),
(241,335,o),
(276,335,cs),
(328,335,o),
(356,306,o),
(360,246,cs),
(364,189,o),
(364,125,o),
(360,68,cs),
(358,38,o),
(334,24,o),
(306,18,c),
(306,0,l)
);
},
{
closed = 1;
nodes = (
(216,0,l),
(216,18,l),
(182,32,o),
(162,38,o),
(162,68,cs),
(162,315,l),
(164,315,l),
(165,397,l),
(150,403,l),
(18,362,l),
(18,341,l),
(46,333,o),
(86,319,o),
(89,298,cs),
(91,284,o),
(91,129,o),
(89,68,cs),
(88,37,o),
(76,32,o),
(36,18,c),
(36,0,l)
);
}
);
width = 504;
}
);
},
{
color = 2;
export = 0;
glyphname = i.original;
lastChange = "2025-01-19 20:50:19 +0000";
layers = (
{
anchors = (
{
name = bottom;
pos = (117,0);
}
);
background = {
shapes = (
{
closed = 1;
nodes = (
(87,40,l,{
"Letterink-NibData" = {
AngleInDegrees = "0";
};
}),
(112,18,o),
(131,7,o),
(161,-3,c,{
"Letterink-NibData" = {
AngleInDegrees = "360";
};
}),
(235,40,l,{
"Letterink-NibData" = {
AngleInDegrees = "0";
};
}),
(197,52,o),
(183,60,o),
(159,80,c),
(159,344,l,{
"Letterink-NibData" = {
AngleInDegrees = "359.99999";
};
}),
(133,367,o),
(117,377,o),
(86,387,c,{
"Letterink-NibData" = {
AngleInDegrees = "359.99999";
};
}),
(12,344,l,{
"Letterink-NibData" = {
AngleInDegrees = "0";
};
}),
(49,332,o),
(64,324,o),
(87,304,c)
);
},
{
closed = 1;
nodes = (
(215,0,l),
(215,18,l),
(176,32,o),
(159,38,o),
(159,68,cs),
(159,315,l),
(158,315,l),
(159,389,l),
(146,395,l),
(37,357,l),
(37,336,l),
(56,328,o),
(87,314,o),
(87,293,cs),
(87,68,ls),
(87,37,o),
(71,32,o),
(32,18,c),
(32,0,l)
);
}
);
};
color = 1;
layerId = m005;
shapes = (
{
ref = idotless;
},
{
pos = (-63,0);
ref = dotaccentcomb;
}
);
width = 234;
}
);
note = i;
},
{
export = 0;
glyphname = r.1;
lastChange = "2025-01-27 09:18:17 +0000";
layers = (
{
anchors = (
{
name = bottom;
pos = (124,0);
},
{
name = top;
pos = (162,384);
}
);
layerId = m005;
shapes = (
{
closed = 1;
nodes = (
(153,228,l),
(201,287,o),
(215,321,o),
(246,321,cs),
(257,321,o),
(266,308,o),
(278,296,cs),
(299,275,o),
(359,350,o),
(338,371,cs),
(327,382,o),
(309,390,o),
(288,390,cs),
(250,390,o),
(227,362,o),
(151,267,c)
);
},
{
closed = 1;
nodes = (
(252,0,l),
(252,18,l),
(190,32,o),
(161,38,o),
(161,68,cs),
(161,295,l),
(162,295,l),
(165,394,l),
(150,403,l),
(18,362,l),
(18,341,l),
(47,333,o),
(86,319,o),
(87,298,cs),
(91,223,o),
(91,143,o),
(89,68,cs),
(88,37,o),
(62,32,o),
(18,18,c),
(18,0,l)
);
}
);
width = 342;
}
);
},
{
export = 0;
glyphname = s.1;
lastChange = "2025-01-27 09:18:17 +0000";
layers = (
{
layerId = m005;
shapes = (
{
closed = 1;
nodes = (
(260,-9,o),
(325,39,o),
(325,108,cs),
(325,226,o),
(108,222,o),
(110,310,cs),
(111,344,o),
(142,368,o),
(185,368,cs),
(238,368,o),
(277,334,o),
(279,285,c),
(305,285,l),
(304,325,o),
(305,363,o),
(308,376,c),
(276,388,o),
(225,396,o),
(185,396,cs),
(102,396,o),
(44,347,o),
(44,278,cs),
(44,154,o),
(257,171,o),
(257,80,cs),
(257,41,o),
(221,16,o),
(170,19,cs),
(113,23,o),
(69,68,o),
(63,128,c),
(36,128,l),
(40,109,o),
(41,61,o),
(39,12,c),
(82,0,o),
(135,-9,o),
(167,-9,cs)
);
}
);
width = 360;
}
);
},
{
export = 0;
glyphname = t.1;
lastChange = "2025-01-27 09:18:17 +0000";
layers = (
{
anchors = (
{
name = bottom;
pos = (148,0);
},
{
name = center;
pos = (148,192);
},
{
name = top;
pos = (148,474);
},
{
name = topright;
pos = (276,694);
}
);
layerId = m005;
shapes = (
{
closed = 1;
nodes = (
(208,-11,o),
(271,5,o),
(306,27,c),
(296,48,l),
(277,40,o),
(239,34,o),
(219,34,cs),
(186,34,o),
(151,52,o),
(149,78,cs),
(147,108,o),
(146,153,o),
(146,186,cs),
(146,316,o),
(154,433,o),
(159,468,c),
(140,474,l),
(78,381,l),
(72,237,o),
(68,98,o),
(74,46,cs),
(78,13,o),
(122,-11,o),
(167,-11,cs)
);
},
{
closed = 1;
nodes = (
(300,334,l),
(300,389,l),
(82,384,l),
(0,359,l),
(0,349,l)
);
},
{
closed = 1;
nodes = (
(114,361,l),
(140,474,l),
(104,423,o),
(48,375,o),
(0,359,c)
);
}
);
width = 306;
}
);
},
{
glyphname = c_t;
lastChange = "2025-01-27 09:18:17 +0000";
layers = (
{
color = 10;
layerId = m005;
shapes = (
{
ref = c;
},
{
pos = (396,0);
ref = t;
},
{
closed = 1;
nodes = (
(555,466,l),
(555,546,o),
(498,603,o),
(417,603,cs),
(336,603,o),
(279,546,o),
(279,465,cs),
(279,419,o),
(297,381,o),
(327,356,c),
(350,372,l),
(323,392,o),
(306,426,o),
(306,465,cs),
(306,529,o),
(352,575,o),
(417,575,cs),
(481,575,o),
(531,529,o),
(531,465,cs),
(531,455,o),
(530,446,o),
(528,437,c)
);
}
);
width = 684;
}
);
metricLeft = c;
metricRight = t;
},
{
glyphname = f_f;
lastChange = "2025-01-27 16:38:47 +0000";
layers = (
{
color = 10;
layerId = m005;
shapes = (
{
closed = 1;
nodes = (
(23,0,l),
(256,0,l),
(256,18,l),
(202,31,o),
(165,31,o),
(163,69,cs),
(158,163,o),
(150,354,o),
(162,499,cs),
(167,560,o),
(180,627,o),
(249,627,cs),
(272,627,o),
(282,619,o),
(291,608,cs),
(300,595,o),
(304,578,o),
(315,569,cs),
(338,548,o),
(400,615,o),
(378,638,cs),
(360,656,o),
(327,665,o),
(286,665,cs),
(228,665,o),
(173,644,o),
(135,603,cs),
(93,559,o),
(92,522,o),
(88,417,cs),
(87,385,o),
(87,221,o),
(88,69,cs),
(88,30,o),
(55,32,o),
(23,18,c)
);
},
{
closed = 1;
nodes = (
(573,334,l),
(573,389,l),
(94,384,l),
(18,359,l),
(18,349,l)
);
},
{
pos = (267,0);
ref = f;
}
);
width = 576;
}
);
metricLeft = f;
metricRight = f;
},
{
glyphname = f_f_i;
lastChange = "2025-01-27 16:40:02 +0000";
layers = (
{
color = 10;
layerId = m005;
shapes = (
{
closed = 1;
nodes = (
(23,0,l),
(256,0,l),
(256,18,l),
(202,31,o),
(166,31,o),
(164,69,cs),
(159,163,o),
(159,304,o),
(164,449,cs),
(166,510,o),
(161,624,o),
(230,624,cs),
(253,624,o),
(262,617,o),
(271,606,cs),
(280,593,o),
(284,576,o),
(295,567,cs),
(318,546,o),
(380,615,o),
(358,638,cs),
(340,656,o),
(307,665,o),
(266,665,cs),
(208,665,o),
(160,631,o),
(132,590,cs),
(98,540,o),
(92,492,o),
(88,387,cs),
(87,355,o),
(87,221,o),
(88,69,cs),
(88,30,o),
(55,32,o),
(23,18,c)
);
},
{
closed = 1;
nodes = (
(686,334,l),
(686,389,l),
(94,384,l),
(18,359,l),
(18,349,l)
);
},
{
pos = (270,0);
ref = f_i;
}
);
width = 774;
}
);
metricLeft = f;
metricRight = i;
},
{
glyphname = f_f_l;
lastChange = "2025-01-27 16:40:07 +0000";
layers = (
{
color = 10;
layerId = m005;
shapes = (
{
closed = 1;
nodes = (
(24,0,l),
(257,0,l),
(257,18,l),
(203,31,o),
(167,31,o),
(165,69,cs),
(160,163,o),
(160,304,o),
(165,449,cs),
(167,510,o),
(162,624,o),
(231,624,cs),
(254,624,o),
(263,617,o),
(272,606,cs),
(281,593,o),
(285,576,o),
(296,567,cs),
(319,546,o),
(381,615,o),
(359,638,cs),
(341,656,o),
(308,665,o),
(267,665,cs),
(209,665,o),
(161,631,o),
(133,590,cs),
(99,540,o),
(93,492,o),
(89,387,cs),
(88,355,o),
(88,221,o),
(89,69,cs),
(89,30,o),
(56,32,o),
(24,18,c)
);
},
{
closed = 1;
nodes = (
(588,334,l),
(588,389,l),
(95,384,l),
(19,359,l),
(19,349,l)
);
},
{
pos = (273,0);
ref = f_l;
}
);
width = 792;
}
);
metricLeft = f;
metricRight = l;
},
{
glyphname = f_i;
lastChange = "2025-01-27 16:44:11 +0000";
layers = (
{
color = 10;
layerId = m005;
shapes = (
{
closed = 1;
nodes = (
(237,0,l),
(237,18,l),
(183,31,o),
(164,52,o),
(163,69,cs),
(155,227,o),
(162,405,o),
(162,499,cs),
(162,603,o),
(208,635,o),
(239,627,cs),
(317,607,o),
(299,507,o),
(358,507,cs),
(385,507,o),
(409,531,o),
(409,556,cs),
(409,610,o),
(320,665,o),
(266,665,cs),
(215,665,o),
(177,647,o),
(150,616,cs),
(109,571,o),
(91,499,o),
(88,417,cs),
(87,382,o),
(87,237,o),
(88,69,cs),
(88,56,o),
(61,35,o),
(23,18,c),
(23,0,l)
);
},
{
closed = 1;
nodes = (
(402,395,l),
(94,384,l),
(18,359,l),
(18,349,l),
(402,332,l)
);
},
{
closed = 1;
nodes = (
(482,0,l),
(482,18,l),
(441,32,o),
(417,39,o),
(416,68,cs),
(414,148,o),
(414,229,o),
(416,309,cs),
(418,388,l),
(403,395,l),
(284,387,l),
(284,376,l),
(303,368,o),
(343,355,o),
(344,333,cs),
(347,258,o),
(347,143,o),
(344,68,cs),
(343,39,o),
(320,32,o),
(279,18,c),
(279,0,l)
);
}
);
width = 486;
}
);
metricLeft = f;
metricRight = i;
},
{
glyphname = f_l;
lastChange = "2025-01-27 16:45:04 +0000";
layers = (
{
color = 10;
layerId = m005;
shapes = (
{
closed = 1;
nodes = (
(23,0,l),
(256,0,l),
(256,18,l),
(202,31,o),
(165,31,o),
(163,69,cs),
(158,163,o),
(146,343,o),
(158,488,cs),
(163,549,o),
(178,616,o),
(247,616,cs),
(270,616,o),
(281,616,o),
(298,610,cs),
(334,597,o),
(410,605,o),
(388,628,cs),
(370,646,o),
(325,665,o),
(284,665,cs),
(226,665,o),
(186,644,o),
(148,603,cs),
(106,559,o),
(92,522,o),
(88,417,cs),
(87,385,o),
(87,221,o),
(88,69,cs),
(88,30,o),
(55,32,o),
(23,18,c)
);
},
{
closed = 1;
nodes = (
(303,334,l),
(303,389,l),
(94,384,l),
(18,359,l),
(18,349,l)
);
},
{
pos = (282,0);
ref = l;
}
);
width = 504;
}
);
metricLeft = f;
metricRight = l;
},
{
glyphname = f_t;
lastChange = "2025-01-27 16:42:15 +0000";
layers = (
{
anchors = (
{
name = bottom;
pos = (153,0);
},
{
name = top;
pos = (153,694);
}
);
layerId = m005;
shapes = (
{
closed = 1;
nodes = (
(18,0,l),
(270,0,l),
(270,18,l),
(205,31,o),
(169,31,o),
(167,69,cs),
(162,163,o),
(162,304,o),
(167,449,cs),
(169,510,o),
(164,624,o),
(233,624,cs),
(256,624,o),
(265,617,o),
(274,606,cs),
(283,593,o),
(287,576,o),
(298,567,cs),
(321,546,o),
(383,615,o),
(361,638,cs),
(343,656,o),
(310,665,o),
(269,665,cs),
(211,665,o),
(163,631,o),
(135,590,cs),
(101,540,o),
(95,492,o),
(91,387,cs),
(90,355,o),
(90,221,o),
(91,69,cs),
(91,30,o),
(57,32,o),
(18,18,c)
);
},
{
closed = 1;
nodes = (
(552,334,l),
(552,389,l),
(97,384,l),
(18,359,l),
(18,349,l)
);
},
{
alignment = -1;
pos = (270,0);
ref = t;
}
);
width = 558;
}
);
metricLeft = f;
metricRight = t;
},
{
glyphname = s_t;
lastChange = "2025-01-27 09:18:17 +0000";
layers = (
{
color = 10;
layerId = m005;
shapes = (
{
ref = s;
},
{
pos = (342,0);
ref = t;
},
{
closed = 1;
nodes = (
(500,466,l),
(500,546,o),
(438,603,o),
(357,603,cs),
(276,603,o),
(219,546,o),
(219,465,cs),
(219,419,o),
(237,381,o),
(267,356,c),
(289,376,l),
(262,396,o),
(246,426,o),
(246,465,cs),
(246,529,o),
(292,575,o),
(357,575,cs),
(421,575,o),
(476,529,o),
(476,465,cs),
(476,455,o),
(475,446,o),
(473,437,c)
);
}
);
width = 630;
}
);
metricLeft = s;
metricRight = t;
},
{
glyphname = a.sc;
lastChange = "2025-01-27 09:18:17 +0000";
layers = (
{
anchors = (
{
name = bottom;
pos = (280,0);
},
{
name = ogonek;
pos = (499,7);
},
{
name = top;
pos = (280,400);
}
);
color = 4;
layerId = m005;
shapes = (
{
closed = 1;
nodes = (
(544,-2,l),
(544,19,l),
(487,30,o),
(473,47,o),
(449,96,cs),
(390,216,o),
(342,340,o),
(287,463,c),
(253,407,l),
(247,390,l),
(369,98,ls),
(396,33,o),
(390,32,o),
(326,19,c),
(326,-2,l)
);
},
{
closed = 1;
nodes = (
(221,-2,l),
(221,21,l),
(161,26,o),
(141,42,o),
(162,91,cs),
(291,394,l),
(255,410,l),
(204,288,o),
(147,141,o),
(100,61,cs),
(86,37,o),
(53,20,o),
(17,21,c),
(17,-2,l)
);
},
{
closed = 1;
nodes = (
(376,179,l),
(363,213,l),
(184,213,l),
(169,179,l)
);
}
);
width = 567;
}
);
},
{
glyphname = ae.sc;
lastChange = "2025-01-27 09:18:17 +0000";
layers = (
{
anchors = (
{
name = bottom;
pos = (357,0);
},
{
name = top;
pos = (357,434);
}
);
color = 10;
layerId = m005;
shapes = (
{
closed = 1;
nodes = (
(225,-2,l),
(225,21,l),
(162,18,o),
(129,39,o),
(158,88,cs),
(354,423,l),
(313,429,l),
(250,312,o),
(143,140,o),
(95,63,cs),
(80,38,o),
(49,19,o),
(13,22,c),
(13,-2,l)
);
},
{
closed = 1;
nodes = (
(427,188,l),
(414,227,l),
(197,227,l),
(182,188,l)
);
},
{
closed = 1;
nodes = (
(298,-3,o),
(347,-2,o),
(392,-2,cs),
(508,-2,o),
(600,-3,o),
(656,-4,c),
(668,31,o),
(676,84,o),
(676,116,c),
(651,116,l),
(641,65,o),
(619,37,o),
(586,34,cs),
(560,33,o),
(536,33,o),
(493,33,cs),
(463,33,o),
(446,37,o),
(440,49,cs),
(438,53,o),
(436,68,o),
(436,76,cs),
(434,218,ls),
(434,228,o),
(436,288,o),
(436,360,cs),
(436,403,l),
(486,403,o),
(492,403,o),
(546,401,c),
(563,399,o),
(575,383,o),
(581,347,c),
(611,347,l),
(612,378,o),
(615,419,o),
(622,440,c),
(575,438,o),
(502,437,o),
(400,437,cs),
(359,437,o),
(271,438,o),
(259,440,c),
(256,418,l),
(292,409,o),
(295,404,o),
(313,395,c),
(361,395,l),
(362,220,l),
(361,64,ls),
(361,48,o),
(353,31,o),
(340,27,cs),
(333,25,o),
(316,21,o),
(294,20,c),
(294,-4,l)
);
},
{
closed = 1;
nodes = (
(569,125,l),
(564,171,o),
(564,247,o),
(569,293,c),
(546,293,l),
(544,288,o),
(542,275,o),
(538,265,cs),
(526,238,o),
(532,227,o),
(494,227,cs),
(377,227,l),
(377,188,l),
(494,188,ls),
(536,188,o),
(530,181,o),
(539,154,cs),
(542,146,o),
(545,134,o),
(548,125,c)
);
}
);
width = 702;
}
);
},
{
glyphname = b.sc;
lastChange = "2025-01-27 09:18:17 +0000";
layers = (
{
anchors = (
{
name = bottom;
pos = (251,0);
},
{
name = center;
pos = (139,108);
},
{
name = top;
pos = (251,434);
}
);
color = 2;
guides = (
{
angle = 270;
pos = (38,13);
}
);
layerId = m005;
shapes = (
{
closed = 1;
nodes = (
(33,-2,l),
(276,-2,l),
(276,36,l),
(240,36,o),
(204,35,o),
(190,46,cs),
(183,52,o),
(178,59,o),
(178,67,cs),
(176,220,o),
(175,260,o),
(178,398,c),
(202,400,o),
(249,400,o),
(260,400,c),
(260,437,l),
(33,437,l),
(33,410,l),
(61,406,o),
(84,404,o),
(95,396,cs),
(102,392,o),
(103,385,o),
(103,368,cs),
(103,67,ls),
(103,52,o),
(102,44,o),
(95,38,cs),
(82,28,o),
(58,30,o),
(33,25,c)
);
},
{
closed = 1;
nodes = (
(162,219,o),
(170,219,o),
(196,219,cs),
(326,219,o),
(410,266,o),
(410,339,cs),
(410,398,o),
(344,441,o),
(244,437,c),
(244,400,l),
(290,404,o),
(325,371,o),
(325,326,cs),
(325,274,o),
(275,250,o),
(190,250,cs),
(136,250,l),
(137,219,l)
);
},
{
closed = 1;
nodes = (
(369,-6,o),
(442,54,o),
(442,134,cs),
(442,198,o),
(367,240,o),
(273,243,cs),
(122,249,l),
(122,217,l),
(143,217,o),
(152,217,o),
(185,217,cs),
(286,217,o),
(353,185,o),
(353,121,cs),
(353,69,o),
(318,33,o),
(260,36,c),
(260,-2,l)
);
}
);
width = 488;
}
);
},
{
glyphname = c.sc;
lastChange = "2025-01-27 09:18:17 +0000";
layers = (
{
anchors = (
{
name = bottom;
pos = (325,0);
},
{
name = top;
pos = (324,434);
}
);
backgroundImage = {
imagePath = "../../Desktop/Bildschirmfoto 2024-12-24 um 08.52.09.png";
pos = (714,-952);
scale = (-1.0902,0.9878);
};
color = 4;
layerId = m005;
shapes = (
{
closed = 1;
nodes = (
(384,-12,o),
(459,3,o),
(504,26,c),
(518,74,o),
(531,127,o),
(533,147,c),
(503,146,l),
(486,78,o),
(417,28,o),
(336,28,cs),
(216,28,o),
(131,114,o),
(131,236,cs),
(131,337,o),
(213,408,o),
(329,408,cs),
(398,408,o),
(454,362,o),
(465,300,c),
(510,300,l),
(509,431,l),
(462,410,l),
(435,432,o),
(377,448,o),
(322,448,cs),
(158,448,o),
(41,353,o),
(41,220,cs),
(41,84,o),
(158,-12,o),
(322,-12,cs)
);
}
);
width = 576;
}
);
},
{
glyphname = d.sc;
lastChange = "2025-01-27 09:18:17 +0000";
layers = (
{
anchors = (
{
name = bottom;
pos = (300,0);
},
{
name = center;
pos = (164,218);
},
{
name = top;
pos = (300,434);
}
);
background = {
shapes = (
{
closed = 1;
nodes = (
(40,0,l),
(323,0,l),
(323,40,l),
(278,40,o),
(243,38,o),
(224,54,cs),
(215,62,o),
(210,73,o),
(210,91,cs),
(208,307,o),
(207,377,o),
(211,574,c),
(228,576,o),
(280,576,o),
(303,576,c),
(303,616,l),
(40,616,l),
(40,591,l),
(74,581,o),
(98,582,o),
(112,572,cs),
(122,565,o),
(127,552,o),
(127,525,cs),
(128,341,o),
(129,253,o),
(129,312,cs),
(129,373,o),
(128,282,o),
(127,91,cs),
(127,65,o),
(121,51,o),
(112,43,cs),
(96,29,o),
(70,31,o),
(40,25,c)
);
}
);
};
backgroundImage = {
imagePath = "../../Desktop/Bildschirmfoto 2024-12-24 um 13.06.05.png";
pos = (779,-1011);
scale = (-1.0902,0.9878);
};
color = 2;
layerId = m005;
shapes = (
{
closed = 1;
nodes = (
(33,-3,l),
(46,-3,o),
(103,-3,o),
(140,-3,cs),
(157,-3,o),
(202,-3,o),
(270,-5,c),
(283,34,l),
(242,34,o),
(208,30,o),
(190,45,cs),
(183,51,o),
(183,54,o),
(183,66,cs),
(183,135,o),
(183,325,o),
(183,398,c),
(219,401,o),
(244,401,o),
(279,401,c),
(294,440,l),
(221,439,o),
(173,437,o),
(142,437,cs),
(102,437,o),
(55,437,o),
(33,437,c),
(33,410,l),
(63,405,o),
(85,404,o),
(95,396,c),
(102,393,o),
(103,384,o),
(103,368,cs),
(104,288,o),
(105,227,o),
(105,220,cs),
(105,214,o),
(104,150,o),
(103,66,cs),
(103,52,o),
(99,41,o),
(95,37,c),
(84,29,o),
(61,28,o),
(33,24,c)
);
},
{
closed = 1;
nodes = (
(255,-5,l),
(421,-8,o),
(539,90,o),
(539,231,cs),
(539,356,o),
(434,443,o),
(278,440,c),
(264,401,l),
(371,405,o),
(452,329,o),
(452,210,cs),
(452,104,o),
(379,30,o),
(268,34,c)
);
}
);
width = 587;
}
);
},
{
glyphname = e.sc;
lastChange = "2025-01-27 09:18:17 +0000";
layers = (
{
anchors = (
{
name = bottom;
pos = (251,0);
},
{
name = ogonek;
pos = (416,7);
},
{
name = top;
pos = (233,410);
},
{
name = topleft;
pos = (43,434);
}
);
background = {
shapes = (
{
closed = 1;
nodes = (
(40,0,l),
(323,0,l),
(323,40,l),
(278,40,o),
(243,38,o),
(224,54,cs),
(215,62,o),
(210,73,o),
(210,91,cs),
(208,307,o),
(207,377,o),
(211,574,c),
(228,576,o),
(280,576,o),
(303,576,c),
(303,616,l),
(40,616,l),
(40,591,l),
(74,581,o),
(98,582,o),
(112,572,cs),
(122,565,o),
(127,552,o),
(127,525,cs),
(128,341,o),
(129,253,o),
(129,312,cs),
(129,373,o),
(128,282,o),
(127,91,cs),
(127,65,o),
(121,51,o),
(112,43,cs),
(96,29,o),
(70,31,o),
(40,25,c)
);
}
);
};
color = 2;
layerId = m005;
shapes = (
{
closed = 1;
nodes = (
(53,-1,o),
(97,0,o),
(134,0,cs),
(249,0,o),
(364,-1,o),
(422,-2,c),
(431,31,o),
(438,80,o),
(440,117,c),
(419,117,l),
(410,67,o),
(385,38,o),
(352,35,cs),
(326,34,o),
(277,34,o),
(232,34,cs),
(206,34,o),
(196,37,o),
(188,44,cs),
(181,50,o),
(179,58,o),
(179,72,cs),
(179,191,o),
(178,287,o),
(179,400,c),
(208,402,o),
(227,402,o),
(244,402,cs),
(266,402,o),
(293,402,o),
(318,400,cs),
(335,398,o),
(350,382,o),
(356,347,c),
(381,347,l),
(382,376,o),
(386,417,o),
(391,438,c),
(347,436,o),
(242,435,o),
(142,435,cs),
(101,435,o),
(54,436,o),
(35,437,c),
(35,411,l),
(63,408,o),
(84,405,o),
(96,395,cs),
(103,389,o),
(105,379,o),
(105,366,cs),
(107,263,o),
(107,169,o),
(105,67,cs),
(105,53,o),
(101,40,o),
(96,35,cs),
(85,26,o),
(64,24,o),
(35,22,c),
(35,-2,l)
);
},
{
closed = 1;
nodes = (
(334,140,l),
(330,186,o),
(330,265,o),
(334,308,c),
(308,308,l),
(307,303,o),
(304,290,o),
(299,281,cs),
(286,255,o),
(272,242,o),
(234,242,cs),
(121,242,l),
(121,204,l),
(234,204,ls),
(278,204,o),
(291,192,o),
(300,170,cs),
(310,140,l)
);
}
);
width = 468;
}
);
},
{
glyphname = schwa.sc;
lastChange = "2025-01-27 09:18:17 +0000";
layers = (
{
anchors = (
{
name = bottom;
pos = (207,-3);
},
{
name = ogonek;
pos = (114,418);
},
{
name = top;
pos = (193,400);
}
);
layerId = m005;
shapes = (
{
closed = 1;
nodes = (
(315,95,o),
(279,26,o),
(215,26,cs),
(168,26,o),
(116,75,o),
(112,143,c),
(339,146,l),
(344,179,l),
(27,182,l),
(27,165,ls),
(27,62,o),
(107,-12,o),
(200,-12,cs),
(323,-12,o),
(393,86,o),
(393,222,cs),
(393,351,o),
(315,447,o),
(207,447,cs),
(139,447,o),
(61,390,o),
(28,323,c),
(59,301,l),
(90,355,o),
(141,389,o),
(185,389,cs),
(259,389,o),
(315,311,o),
(315,197,cs)
);
}
);
width = 415;
}
);
},
{
glyphname = f.sc;
lastChange = "2025-01-27 09:18:17 +0000";
layers = (
{
anchors = (
{
name = bottom;
pos = (206,0);
},
{
name = top;
pos = (206,400);
}
);
background = {
shapes = (
{
closed = 1;
nodes = (
(30,0,l),
(313,0,l),
(313,40,l),
(268,40,o),
(233,38,o),
(214,54,cs),
(205,62,o),
(200,73,o),
(200,91,cs),
(198,307,o),
(197,377,o),
(201,574,c),
(218,576,o),
(270,576,o),
(293,576,c),
(293,616,l),
(30,616,l),
(30,591,l),
(64,581,o),
(88,582,o),
(102,572,cs),
(112,565,o),
(117,552,o),
(117,525,cs),
(118,341,o),
(119,253,o),
(119,312,cs),
(119,373,o),
(118,282,o),
(117,91,cs),
(117,65,o),
(111,51,o),
(102,43,cs),
(86,29,o),
(60,31,o),
(30,25,c)
);
}
);
};
color = 2;
layerId = m005;
shapes = (
{
closed = 1;
nodes = (
(40,0,o),
(231,0,o),
(261,0,c),
(261,26,l),
(221,30,o),
(192,30,o),
(178,44,cs),
(173,49,o),
(168,61,o),
(168,76,cs),
(166,186,o),
(167,289,o),
(169,400,c),
(189,401,o),
(223,402,o),
(238,402,cs),
(259,402,o),
(277,402,o),
(301,400,cs),
(321,398,o),
(332,382,o),
(339,347,c),
(362,347,l),
(363,376,o),
(368,417,o),
(374,438,c),
(330,436,o),
(231,435,o),
(132,435,cs),
(91,435,o),
(44,436,o),
(26,437,c),
(26,413,l),
(53,408,o),
(74,408,o),
(86,398,cs),
(93,392,o),
(95,383,o),
(95,368,cs),
(97,266,o),
(97,169,o),
(95,67,cs),
(95,53,o),
(93,43,o),
(88,37,c),
(77,27,o),
(57,25,o),
(25,22,c),
(25,-1,l)
);
},
{
closed = 1;
nodes = (
(316,140,l),
(311,186,o),
(311,265,o),
(316,308,c),
(292,308,l),
(291,303,o),
(287,290,o),
(283,281,cs),
(270,255,o),
(256,242,o),
(231,242,cs),
(119,242,l),
(119,204,l),
(231,204,ls),
(262,204,o),
(275,192,o),
(284,170,c),
(292,140,l)
);
}
);
width = 396;
}
);
},
{
glyphname = g.sc;
lastChange = "2025-01-27 09:18:17 +0000";
layers = (
{
anchors = (
{
name = bottom;
pos = (287,0);
},
{
name = top;
pos = (305,400);
}
);
backgroundImage = {
imagePath = "../../Desktop/Bildschirmfoto 2024-12-23 um 19.38.00.png";
pos = (715,-876);
scale = (-1.0668,0.9661);
};
color = 3;
layerId = m005;
shapes = (
{
closed = 1;
nodes = (
(391,-12,o),
(477,7,o),
(516,29,c),
(513,44,l),
(497,42,o),
(491,48,o),
(491,55,cs),
(491,149,ls),
(491,166,o),
(497,177,o),
(511,180,c),
(548,184,l),
(548,213,l),
(340,213,l),
(340,181,l),
(384,175,o),
(415,166,o),
(415,141,cs),
(415,54,ls),
(415,40,o),
(388,28,o),
(356,28,cs),
(219,28,o),
(130,101,o),
(130,235,cs),
(130,339,o),
(215,410,o),
(333,410,cs),
(404,410,o),
(469,367,o),
(469,308,c),
(498,308,l),
(499,349,o),
(505,396,o),
(510,421,c),
(476,434,o),
(394,448,o),
(326,448,cs),
(163,448,o),
(41,350,o),
(41,218,cs),
(41,85,o),
(161,-12,o),
(322,-12,cs)
);
}
);
width = 576;
}
);
},
{
glyphname = h.sc;
lastChange = "2025-01-27 09:18:17 +0000";
layers = (
{
anchors = (
{
name = bottom;
pos = (311,0);
},
{
name = center;
pos = (311,326);
},
{
name = top;
pos = (311,400);
},
{
name = topleft;
pos = (33,434);
}
);
background = {
shapes = (
{
closed = 1;
nodes = (
(190,609,l,{
"Letterink-NibData" = {
AngleInDegrees = "0";
};
}),
(186,616,l,{
"Letterink-NibData" = {
AngleInDegrees = "360";
};
}),
(117,576,l),
(117,7,l,{
"Letterink-NibData" = {
AngleInDegrees = "360";
};
}),
(121,0,l,{
"Letterink-NibData" = {
AngleInDegrees = "360";
};
}),
(190,40,l),
(190,304,l),
(604,304,l),
(604,7,l,{
"Letterink-NibData" = {
AngleInDegrees = "360";
};
}),
(608,0,l,{
"Letterink-NibData" = {
AngleInDegrees = "360";
};
}),
(678,40,l),
(678,609,l,{
"Letterink-NibData" = {
AngleInDegrees = "0";
};
}),
(674,616,l,{
"Letterink-NibData" = {
AngleInDegrees = "359.99999";
};
}),
(604,576,l),
(604,351,l),
(190,351,l)
);
},
{
closed = 0;
nodes = (
(262,616,l),
(262,591,l),
(234,583,o),
(216,576,o),
(205,564,cs),
(196,553,o),
(192,538,o),
(192,512,cs)
);
}
);
};
color = 1;
layerId = m005;
shapes = (
{
closed = 1;
nodes = (
(249,-5,l),
(249,21,l),
(227,28,o),
(188,32,o),
(179,40,cs),
(173,46,o),
(171,58,o),
(171,73,cs),
(170,126,o),
(170,178,o),
(169,230,cs),
(168,274,o),
(170,318,o),
(171,361,cs),
(171,377,o),
(175,390,o),
(179,395,cs),
(187,403,o),
(229,407,o),
(249,412,c),
(249,439,l),
(23,439,l),
(23,414,l),
(35,409,o),
(77,403,o),
(87,394,cs),
(93,387,o),
(93,376,o),
(93,361,cs),
(94,318,o),
(95,274,o),
(95,231,cs),
(95,180,o),
(94,126,o),
(93,73,cs),
(93,59,o),
(93,48,o),
(87,41,cs),
(77,32,o),
(35,25,o),
(23,19,c),
(23,-5,l)
);
},
{
closed = 1;
nodes = (
(599,-5,l),
(599,19,l),
(590,25,o),
(547,32,o),
(538,40,cs),
(532,46,o),
(530,58,o),
(530,73,cs),
(529,126,o),
(529,184,o),
(529,233,cs),
(528,276,o),
(529,318,o),
(530,361,cs),
(530,377,o),
(532,389,o),
(538,395,cs),
(546,403,o),
(590,411,o),
(599,416,c),
(599,439,l),
(374,439,l),
(374,412,l),
(395,407,o),
(437,402,o),
(445,394,cs),
(449,390,o),
(452,376,o),
(452,361,cs),
(453,318,o),
(453,276,o),
(453,232,cs),
(453,179,o),
(453,126,o),
(452,73,cs),
(452,59,o),
(449,45,o),
(445,41,cs),
(437,33,o),
(395,28,o),
(374,22,c),
(374,-5,l)
);
},
{
closed = 1;
nodes = (
(493,211,l),
(493,251,l),
(129,251,l),
(129,211,l)
);
}
);
width = 623;
}
);
note = H;
},
{
glyphname = hbar.sc;
lastChange = "2025-01-27 09:18:17 +0000";
layers = (
{
layerId = m005;
shapes = (
{
pos = (6,0);
ref = H;
scale = (0.7787,0.7056);
},
{
closed = 1;
nodes = (
(44,322,l),
(560,322,l),
(560,358,l),
(44,358,l)
);
}
);
width = 594;
}
);
},
{
glyphname = i.sc;
lastChange = "2025-01-27 09:18:17 +0000";
layers = (
{
anchors = (
{
name = bottom;
pos = (139,0);
},
{
name = ogonek;
pos = (229,7);
},
{
name = top;
pos = (139,400);
},
{
name = topleft;
pos = (43,434);
}
);
background = {
shapes = (
{
closed = 1;
nodes = (
(202,40,l),
(202,609,l,{
"Letterink-NibData" = {
AngleInDegrees = "0";
};
}),
(198,616,l,{
"Letterink-NibData" = {
AngleInDegrees = "360";
};
}),
(129,576,l),
(129,7,l,{
"Letterink-NibData" = {
AngleInDegrees = "360";
};
}),
(133,0,l,{
"Letterink-NibData" = {
AngleInDegrees = "360";
};
})
);
}
);
};
color = 1;
layerId = m005;
shapes = (
{
closed = 1;
nodes = (
(33,-3,l),
(245,-3,l),
(245,24,l),
(215,29,o),
(193,30,o),
(184,35,cs),
(175,41,o),
(176,50,o),
(176,66,cs),
(174,155,o),
(176,230,o),
(176,368,cs),
(176,388,o),
(179,396,o),
(191,401,cs),
(204,406,o),
(227,406,o),
(245,410,c),
(245,437,l),
(33,437,l),
(33,411,l),
(62,407,o),
(85,406,o),
(95,399,c),
(99,395,o),
(103,384,o),
(103,368,cs),
(105,268,o),
(105,167,o),
(103,66,cs),
(103,50,o),
(103,40,o),
(96,35,cs),
(84,26,o),
(61,28,o),
(33,24,c)
);
}
);
width = 283;
}
);
note = I;
},
{
glyphname = j.sc;
lastChange = "2025-01-27 09:18:17 +0000";
layers = (
{
anchors = (
{
name = bottom;
pos = (122,0);
},
{
name = top;
pos = (122,400);
}
);
color = 1;
layerId = m005;
shapes = (
{
closed = 1;
nodes = (
(44,-169,o),
(87,-137,o),
(99,-121,cs),
(137,-71,o),
(168,20,o),
(166,104,cs),
(164,237,o),
(164,236,o),
(166,368,cs),
(166,386,o),
(165,395,o),
(176,401,cs),
(187,406,o),
(208,406,o),
(235,410,c),
(235,437,l),
(23,437,l),
(23,410,l),
(51,407,o),
(73,406,o),
(85,398,cs),
(93,392,o),
(94,387,o),
(94,368,cs),
(94,57,ls),
(94,24,o),
(97,-59,o),
(73,-94,cs),
(67,-103,o),
(59,-106,o),
(54,-106,cs),
(44,-107,o),
(45,-90,o),
(24,-90,cs),
(-8,-90,o),
(-28,-114,o),
(-28,-144,cs),
(-28,-156,o),
(-11,-169,o),
(14,-169,cs)
);
}
);
width = 254;
}
);
},
{
glyphname = k.sc;
lastChange = "2025-01-27 09:18:17 +0000";
layers = (
{
anchors = (
{
name = bottom;
pos = (272,0);
},
{
name = top;
pos = (272,400);
}
);
background = {
shapes = (
{
closed = 0;
nodes = (
(491,91,l),
(491,55,o),
(485,41,o),
(464,31,cs),
(453,26,o),
(435,25,o),
(408,18,c),
(408,0,l),
(653,0,l),
(653,18,l),
(607,31,o),
(584,33,o),
(575,51,cs),
(571,60,o),
(569,73,o),
(569,91,c)
);
},
{
closed = 0;
nodes = (
(513,525,l),
(513,561,o),
(519,575,o),
(540,585,cs),
(551,590,o),
(569,591,o),
(596,598,c),
(596,616,l),
(351,616,l),
(351,598,l),
(397,585,o),
(420,583,o),
(429,565,cs),
(433,556,o),
(435,543,o),
(435,525,cs)
);
}
);
};
color = 2;
layerId = m005;
shapes = (
{
closed = 1;
nodes = (
(33,-2,l),
(245,-2,l),
(245,20,l),
(217,27,o),
(198,28,o),
(190,33,cs),
(180,39,o),
(176,46,o),
(176,67,cs),
(176,113,o),
(176,297,o),
(176,368,cs),
(176,389,o),
(180,396,o),
(190,403,cs),
(200,410,o),
(220,412,o),
(245,415,c),
(245,437,l),
(33,437,l),
(33,411,l),
(76,406,o),
(91,409,o),
(98,396,cs),
(101,389,o),
(103,377,o),
(103,368,cs),
(105,268,o),
(105,168,o),
(103,67,cs),
(103,53,o),
(102,45,o),
(95,39,cs),
(84,31,o),
(61,31,o),
(33,25,c)
);
},
{
closed = 1;
nodes = (
(350,349,ls),
(380,375,o),
(418,398,o),
(440,406,cs),
(451,411,o),
(481,415,o),
(483,415,c),
(483,437,l),
(286,437,l),
(286,415,l),
(300,415,o),
(323,406,o),
(323,391,cs),
(323,381,o),
(320,372,o),
(306,358,cs),
(126,188,l),
(146,161,l)
);
},
{
closed = 1;
nodes = (
(525,20,l),
(476,32,o),
(447,39,o),
(409,77,cs),
(222,264,l),
(171,213,l),
(226,154,o),
(330,50,o),
(354,28,cs),
(376,4,o),
(398,-4,o),
(432,-4,cs),
(525,-2,l)
);
}
);
width = 533;
}
);
},
{
glyphname = l.sc;
lastChange = "2025-01-27 09:18:17 +0000";
layers = (
{
anchors = (
{
name = bottom;
pos = (255,0);
},
{
name = center;
pos = (255,218);
},
{
name = top;
pos = (255,400);
},
{
name = topright;
pos = (478,434);
}
);
color = 2;
layerId = m005;
shapes = (
{
closed = 1;
nodes = (
(23,-4,l),
(98,-3,o),
(171,-2,o),
(234,-2,c),
(234,36,l),
(181,38,o),
(170,38,o),
(170,77,cs),
(168,168,o),
(167,222,o),
(170,363,cs),
(170,385,o),
(174,395,o),
(186,401,cs),
(194,404,o),
(212,406,o),
(235,408,c),
(235,437,l),
(25,437,l),
(25,411,l),
(52,407,o),
(74,406,o),
(84,400,cs),
(92,394,o),
(92,389,o),
(93,368,cs),
(95,268,o),
(95,168,o),
(92,67,cs),
(91,48,o),
(91,41,o),
(85,36,cs),
(75,29,o),
(54,28,o),
(23,24,c)
);
},
{
closed = 1;
nodes = (
(263,0,o),
(363,-1,o),
(415,-4,c),
(437,51,o),
(457,101,o),
(469,129,c),
(440,142,l),
(409,76,o),
(350,41,o),
(294,40,cs),
(256,39,o),
(231,36,o),
(218,36,c),
(218,-2,l)
);
}
);
width = 497;
}
);
},
{
glyphname = lslash.sc;
lastChange = "2025-01-27 09:18:17 +0000";
layers = (
{
layerId = m005;
shapes = (
{
pos = (6,0);
ref = L;
scale = (0.7787,0.7056);
},
{
closed = 1;
nodes = (
(37,182,l),
(224,247,l),
(211,281,l),
(23,216,l)
);
}
);
width = 486;
}
);
},
{
glyphname = m.sc;
lastChange = "2025-01-27 09:18:17 +0000";
layers = (
{
anchors = (
{
name = bottom;
pos = (364,0);
},
{
name = top;
pos = (364,400);
}
);
backgroundImage = {
imagePath = "../../Desktop/Bildschirmfoto 2024-12-24 um 15.40.08.png";
pos = (867,-1015);
scale = (-1.0902,0.9878);
};
color = 1;
layerId = m005;
shapes = (
{
closed = 1;
nodes = (
(568,411,l),
(539,438,l),
(343,68,l),
(375,82,l),
(198,437,l),
(52,437,l),
(52,410,l),
(98,407,ls),
(120,406,o),
(135,396,o),
(144,378,cs),
(342,-21,l)
);
},
{
closed = 1;
nodes = (
(224,-2,l),
(224,25,l),
(200,31,o),
(156,35,o),
(146,44,c),
(141,50,o),
(139,58,o),
(140,77,cs),
(160,395,l),
(121,427,l),
(100,77,ls),
(99,58,o),
(97,48,o),
(92,43,cs),
(83,35,o),
(47,28,o),
(33,22,c),
(33,-2,l)
);
},
{
closed = 1;
nodes = (
(694,-2,l),
(694,25,l),
(662,31,o),
(641,35,o),
(632,43,cs),
(623,52,o),
(624,65,o),
(624,76,cs),
(623,155,o),
(616,282,o),
(616,371,cs),
(616,380,o),
(621,389,o),
(624,393,c),
(633,401,o),
(647,406,o),
(674,410,c),
(674,437,l),
(538,437,l),
(548,76,ls),
(548,63,o),
(551,51,o),
(542,43,cs),
(529,32,o),
(496,27,o),
(482,25,c),
(482,-2,l)
);
}
);
width = 733;
}
);
},
{
glyphname = n.sc;
lastChange = "2025-01-27 09:18:17 +0000";
layers = (
{
anchors = (
{
name = bottom;
pos = (295,0);
},
{
name = top;
pos = (295,400);
}
);
color = 1;
layerId = m005;
shapes = (
{
closed = 1;
nodes = (
(519,-12,l),
(519,109,o),
(519,327,o),
(519,364,c),
(481,364,l),
(481,58,l),
(505,75,l),
(128,437,l),
(13,437,l),
(13,408,l),
(35,407,o),
(51,401,o),
(62,392,cs),
(72,384,o),
(89,371,o),
(104,357,cs),
(485,-12,l)
);
},
{
closed = 1;
nodes = (
(203,-2,l),
(203,27,l),
(173,28,o),
(140,32,o),
(129,44,cs),
(121,52,o),
(122,62,o),
(122,81,c),
(84,81,l),
(84,61,o),
(86,52,o),
(76,43,cs),
(61,31,o),
(31,31,o),
(13,27,c),
(13,-2,l)
);
},
{
closed = 1;
nodes = (
(122,71,l),
(122,395,l),
(84,427,l),
(84,71,l)
);
},
{
closed = 1;
nodes = (
(519,354,l),
(519,375,o),
(519,387,o),
(529,393,c),
(538,401,o),
(558,403,o),
(578,408,c),
(578,437,l),
(402,437,l),
(402,408,l),
(435,406,o),
(460,404,o),
(472,394,cs),
(481,386,o),
(481,375,o),
(481,354,c)
);
}
);
width = 594;
}
);
},
{
glyphname = o.sc;
lastChange = "2025-01-27 09:18:17 +0000";
layers = (
{
anchors = (
{
name = bottom;
pos = (301,0);
},
{
name = center;
pos = (301,218);
},
{
name = ogonek;
pos = (537,7);
},
{
name = top;
pos = (301,400);
},
{
name = topleft;
pos = (23,434);
},
{
name = topright;
pos = (485,270);
}
);
background = {
shapes = (
{
closed = 1;
nodes = (
(646,111,o),
(701,209,o),
(704,323,c,{
"Letterink-NibData" = {
AngleInDegrees = "359.99999";
};
}),
(701,395,o),
(690,434,o),
(660,483,cs,{
"Letterink-NibData" = {
AngleInDegrees = "0";
};
}),
(599,582,o),
(513,633,o),
(409,633,cs),
(360,633,o),
(312,621,o),
(271,597,cs,{
"Letterink-NibData" = {
AngleInDegrees = "359.99999";
};
}),
(201,557,ls,{
"Letterink-NibData" = {
AngleInDegrees = "359.99999";
};
}),
(175,542,o),
(123,495,o),
(106,471,cs,{
"Letterink-NibData" = {
AngleInDegrees = "360";
};
}),
(66,415,o),
(48,359,o),
(48,290,cs),
(48,121,o),
(183,-21,o),
(343,-21,cs),
(392,-21,o),
(444,-7,o),
(488,19,cs,{
"Letterink-NibData" = {
AngleInDegrees = "360";
};
}),
(557,59,ls,{
"Letterink-NibData" = {
AngleInDegrees = "0";
};
})
);
},
{
closed = 1;
nodes = (
(482,32,o),
(450,26,o),
(409,26,cs),
(335,26,o),
(252,61,o),
(207,111,cs,{
"Letterink-NibData" = {
AngleInDegrees = "360";
};
}),
(195,123,o),
(182,141,o),
(162,168,c,{
"Letterink-NibData" = {
AngleInDegrees = "359.99999";
};
}),
(131,236,o),
(121,271,o),
(121,323,cs),
(121,425,o),
(159,501,o),
(243,566,c,{
"Letterink-NibData" = {
AngleInDegrees = "0";
};
}),
(285,583,o),
(301,586,o),
(343,586,cs),
(448,586,o),
(529,538,o),
(593,438,c,{
"Letterink-NibData" = {
AngleInDegrees = "359.99999";
};
}),
(620,389,o),
(631,347,o),
(631,289,cs,{
"Letterink-NibData" = {
AngleInDegrees = "359.99999";
};
}),
(629,192,o),
(586,102,o),
(515,47,c,{
"Letterink-NibData" = {
AngleInDegrees = "0";
};
})
);
}
);
};
color = 4;
layerId = m005;
shapes = (
{
closed = 1;
nodes = (
(455,-12,o),
(561,85,o),
(561,218,cs),
(561,350,o),
(455,447,o),
(299,447,cs),
(153,447,o),
(41,350,o),
(41,218,cs),
(41,85,o),
(153,-12,o),
(299,-12,cs)
);
},
{
closed = 1;
nodes = (
(131,333,o),
(199,408,o),
(286,408,cs),
(398,408,o),
(471,327,o),
(471,210,cs),
(471,101,o),
(409,26,o),
(312,26,cs),
(210,26,o),
(131,106,o),
(131,224,cs)
);
}
);
width = 603;
}
);
note = O;
},
{
glyphname = oslash.sc;
lastChange = "2025-01-27 09:18:17 +0000";
layers = (
{
layerId = m005;
shapes = (
{
pos = (6,0);
ref = O;
scale = (0.7787,0.7056);
},
{
closed = 1;
nodes = (
(62,27,l),
(90,0,l),
(540,408,l),
(511,435,l)
);
}
);
width = 603;
}
);
},
{
glyphname = oe.sc;
lastChange = "2025-01-27 09:18:17 +0000";
layers = (
{
anchors = (
{
name = bottom;
pos = (427,0);
},
{
name = top;
pos = (427,434);
}
);
color = 10;
layerId = m005;
shapes = (
{
closed = 1;
nodes = (
(453,-9,o),
(526,88,o),
(526,218,cs),
(526,348,o),
(453,445,o),
(301,447,cs),
(151,449,o),
(43,350,o),
(43,218,cs),
(43,85,o),
(151,-15,o),
(301,-12,cs)
);
},
{
closed = 1;
nodes = (
(133,332,o),
(197,408,o),
(288,408,cs),
(397,408,o),
(454,326,o),
(454,210,cs),
(454,106,o),
(406,26,o),
(315,26,cs),
(208,26,o),
(133,109,o),
(133,224,cs)
);
},
{
closed = 1;
nodes = (
(459,-3,o),
(471,-2,o),
(485,-2,cs),
(603,-2,o),
(733,-3,o),
(790,-4,c),
(801,30,o),
(809,86,o),
(809,119,c),
(771,119,l),
(763,69,o),
(739,40,o),
(706,37,cs),
(681,36,o),
(631,36,o),
(587,36,cs),
(557,36,o),
(539,40,o),
(533,52,cs),
(531,56,o),
(529,71,o),
(529,79,cs),
(528,218,ls),
(528,280,o),
(528,307,o),
(529,401,c),
(587,401,ls),
(609,401,o),
(641,401,o),
(666,399,cs),
(683,397,o),
(696,381,o),
(702,345,c),
(743,345,l),
(744,376,o),
(748,419,o),
(754,440,c),
(713,438,o),
(587,437,o),
(484,437,c),
(474,438,o),
(454,439,o),
(448,440,c),
(454,371,l),
(454,368,l),
(454,220,l),
(454,67,l),
(454,65,l),
(448,-4,l)
);
},
{
closed = 1;
nodes = (
(691,140,l),
(686,186,o),
(686,265,o),
(691,308,c),
(651,308,l),
(666,303,o),
(663,292,o),
(658,281,cs),
(645,255,o),
(631,242,o),
(588,242,cs),
(472,242,l),
(472,204,l),
(588,204,ls),
(636,204,o),
(649,192,o),
(659,170,c),
(667,140,l)
);
}
);
width = 846;
}
);
},
{
glyphname = p.sc;
lastChange = "2025-01-27 09:18:17 +0000";
layers = (
{
anchors = (
{
name = bottom;
pos = (223,0);
},
{
name = top;
pos = (223,434);
}
);
background = {
anchors = (
{
name = bottom;
pos = (300,0);
},
{
name = center;
pos = (158,154);
},
{
name = top;
pos = (300,616);
}
);
shapes = (
{
closed = 1;
nodes = (
(40,0,l),
(323,0,l),
(323,40,l),
(278,40,o),
(243,38,o),
(224,54,cs),
(215,62,o),
(210,73,o),
(210,91,cs),
(208,307,o),
(207,377,o),
(211,574,c),
(228,576,o),
(280,576,o),
(303,576,c),
(303,616,l),
(40,616,l),
(40,591,l),
(74,581,o),
(98,582,o),
(112,572,cs),
(122,565,o),
(127,552,o),
(127,525,cs),
(128,341,o),
(129,253,o),
(129,312,cs),
(129,373,o),
(128,282,o),
(127,91,cs),
(127,65,o),
(121,51,o),
(112,43,cs),
(96,29,o),
(70,31,o),
(40,25,c)
);
},
{
closed = 1;
nodes = (
(197,318,o),
(209,318,o),
(237,318,cs),
(393,318,o),
(496,378,o),
(496,481,cs),
(496,560,o),
(416,616,o),
(303,616,c),
(303,576,l),
(364,576,o),
(407,529,o),
(407,462,cs),
(407,387,o),
(338,348,o),
(230,348,cs),
(170,348,l),
(171,318,l)
);
}
);
};
color = 2;
layerId = m005;
shapes = (
{
closed = 1;
nodes = (
(202,187,o),
(211,187,o),
(222,187,cs),
(327,187,o),
(399,237,o),
(399,316,cs),
(399,394,o),
(334,443,o),
(240,439,c),
(217,408,l),
(277,412,o),
(319,377,o),
(319,307,cs),
(319,245,o),
(272,209,o),
(191,213,c),
(191,187,l)
);
},
{
closed = 1;
nodes = (
(259,-2,l),
(259,22,l),
(219,30,o),
(198,33,o),
(190,40,cs),
(183,47,o),
(181,58,o),
(181,78,cs),
(179,133,o),
(179,262,o),
(181,407,c),
(233,408,l),
(257,439,l),
(232,438,o),
(170,437,o),
(142,437,cs),
(108,437,o),
(49,438,o),
(19,439,c),
(19,409,l),
(55,404,o),
(79,404,o),
(95,388,cs),
(101,382,o),
(103,371,o),
(103,358,cs),
(105,260,o),
(105,165,o),
(103,71,cs),
(103,57,o),
(99,42,o),
(95,38,cs),
(86,29,o),
(47,26,o),
(33,21,c),
(33,-2,l)
);
}
);
width = 446;
}
);
},
{
glyphname = thorn.sc;
lastChange = "2025-01-27 09:18:17 +0000";
layers = (
{
layerId = m005;
shapes = (
{
closed = 1;
nodes = (
(225,-3,l),
(225,21,l),
(197,30,o),
(179,33,o),
(170,41,cs),
(163,47,o),
(163,58,o),
(163,78,cs),
(163,79,o),
(161,213,o),
(163,357,cs),
(163,372,o),
(168,392,o),
(172,396,cs),
(180,405,o),
(218,408,o),
(239,412,c),
(239,436,l),
(13,436,l),
(13,412,l),
(46,404,o),
(69,402,o),
(77,395,c),
(81,390,o),
(83,380,o),
(84,356,cs),
(84,338,o),
(85,110,o),
(83,71,cs),
(82,53,o),
(79,42,o),
(75,38,cs),
(66,29,o),
(27,26,o),
(13,21,c),
(13,-3,l)
);
},
{
closed = 1;
nodes = (
(307,94,o),
(379,144,o),
(379,223,cs),
(379,301,o),
(314,353,o),
(220,348,c),
(197,315,l),
(257,320,o),
(297,284,o),
(297,215,cs),
(297,153,o),
(252,117,o),
(171,121,c),
(171,94,l),
(182,94,o),
(191,94,o),
(202,94,cs)
);
},
{
closed = 1;
nodes = (
(213,315,l),
(237,348,l),
(122,348,l),
(122,314,l)
);
}
);
width = 405;
}
);
},
{
glyphname = q.sc;
lastChange = "2025-01-27 09:18:17 +0000";
layers = (
{
anchors = (
{
name = bottom;
pos = (311,0);
},
{
name = top;
pos = (311,434);
}
);
background = {
shapes = (
{
closed = 1;
nodes = (
(577,-11,o),
(712,121,o),
(712,308,cs),
(712,494,o),
(577,626,o),
(386,626,cs),
(197,626,o),
(64,494,o),
(64,308,cs),
(64,121,o),
(197,-11,o),
(386,-11,cs)
);
},
{
closed = 1;
nodes = (
(160,471,o),
(247,585,o),
(369,585,cs),
(514,585,o),
(616,463,o),
(616,298,cs),
(616,144,o),
(528,30,o),
(403,30,cs),
(261,30,o),
(160,152,o),
(160,318,cs)
);
},
{
closed = 1;
nodes = (
(577,-11,o),
(712,121,o),
(712,308,cs),
(712,494,o),
(577,626,o),
(386,626,cs),
(197,626,o),
(64,494,o),
(64,308,cs),
(64,121,o),
(197,-11,o),
(386,-11,cs)
);
},
{
closed = 1;
nodes = (
(160,471,o),
(247,585,o),
(369,585,cs),
(514,585,o),
(616,463,o),
(616,298,cs),
(616,144,o),
(528,30,o),
(403,30,cs),
(261,30,o),
(160,152,o),
(160,318,cs)
);
}
);
};
backgroundImage = {
imagePath = "../../Desktop/Bildschirmfoto 2024-12-24 um 15.25.09.png";
pos = (975,-1126);
scale = (-1.0902,0.9878);
};
color = 4;
layerId = m005;
shapes = (
{
closed = 1;
nodes = (
(464,-12,o),
(571,85,o),
(571,218,cs),
(571,350,o),
(464,447,o),
(314,447,cs),
(161,447,o),
(51,350,o),
(51,218,cs),
(51,85,o),
(161,-12,o),
(314,-12,cs)
);
},
{
closed = 1;
nodes = (
(139,333,o),
(204,410,o),
(296,410,cs),
(405,410,o),
(483,327,o),
(483,210,cs),
(483,99,o),
(418,24,o),
(327,24,cs),
(218,24,o),
(139,106,o),
(139,224,cs)
);
},
{
closed = 1;
nodes = (
(339,-103,o),
(503,-169,o),
(650,-169,cs),
(752,-169,o),
(851,-145,o),
(907,-109,c),
(893,-86,l),
(833,-110,o),
(762,-121,o),
(694,-121,cs),
(564,-121,o),
(439,-65,o),
(378,25,c),
(262,12,l)
);
}
);
width = 623;
}
);
metricWidth = O;
},
{
glyphname = r.sc;
lastChange = "2025-01-27 09:18:17 +0000";
layers = (
{
anchors = (
{
name = bottom;
pos = (272,0);
},
{
name = top;
pos = (217,434);
}
);
background = {
shapes = (
{
closed = 1;
nodes = (
(40,0,l),
(323,0,l),
(323,40,l),
(278,40,o),
(243,38,o),
(224,54,cs),
(215,62,o),
(210,73,o),
(210,91,cs),
(208,307,o),
(207,377,o),
(211,574,c),
(228,576,o),
(280,576,o),
(303,576,c),
(303,616,l),
(40,616,l),
(40,591,l),
(74,581,o),
(98,582,o),
(112,572,cs),
(122,565,o),
(127,552,o),
(127,525,cs),
(128,341,o),
(129,253,o),
(129,312,cs),
(129,373,o),
(128,282,o),
(127,91,cs),
(127,65,o),
(121,51,o),
(112,43,cs),
(96,29,o),
(70,31,o),
(40,25,c)
);
}
);
};
color = 2;
layerId = m005;
shapes = (
{
closed = 1;
nodes = (
(300,190,o),
(394,245,o),
(394,323,cs),
(394,393,o),
(324,439,o),
(232,435,c),
(211,399,l),
(266,403,o),
(312,374,o),
(312,315,cs),
(312,256,o),
(250,232,o),
(160,232,c),
(160,194,l)
);
},
{
closed = 1;
nodes = (
(259,0,l),
(259,27,l),
(224,30,o),
(197,34,o),
(186,45,cs),
(181,50,o),
(179,59,o),
(179,78,cs),
(179,263,o),
(178,312,o),
(181,397,c),
(230,399,l),
(250,435,l),
(208,434,o),
(182,433,o),
(140,433,cs),
(106,433,o),
(70,434,o),
(34,435,c),
(34,410,l),
(61,405,o),
(90,400,o),
(98,393,c),
(104,385,o),
(103,373,o),
(103,358,cs),
(105,262,o),
(105,171,o),
(103,76,cs),
(103,56,o),
(103,46,o),
(95,39,cs),
(86,32,o),
(66,31,o),
(33,25,c),
(33,0,l)
);
},
{
closed = 1;
nodes = (
(525,17,l),
(474,16,o),
(374,110,o),
(296,246,c),
(232,216,l),
(299,86,o),
(382,-8,o),
(441,-7,cs),
(525,-5,l)
);
}
);
width = 524;
}
);
},
{
glyphname = s.sc;
lastChange = "2025-01-27 09:18:17 +0000";
layers = (
{
anchors = (
{
name = bottom;
pos = (196,0);
},
{
name = top;
pos = (196,434);
}
);
color = 4;
layerId = m005;
shapes = (
{
closed = 1;
nodes = (
(278,-12,o),
(351,44,o),
(351,123,cs),
(351,243,o),
(107,250,o),
(109,346,cs),
(110,382,o),
(145,405,o),
(194,405,cs),
(258,405,o),
(298,372,o),
(290,328,c),
(321,328,l),
(320,378,o),
(322,418,o),
(325,419,c),
(284,434,o),
(229,445,o),
(194,445,cs),
(105,445,o),
(41,391,o),
(41,315,cs),
(41,191,o),
(281,195,o),
(281,96,cs),
(281,56,o),
(238,28,o),
(175,29,cs),
(113,31,o),
(71,77,o),
(73,143,c),
(41,143,l),
(43,136,o),
(44,83,o),
(43,24,c),
(98,4,o),
(154,-12,o),
(175,-12,cs)
);
}
);
width = 396;
}
);
},
{
glyphname = germandbls.sc;
lastChange = "2025-01-27 09:18:17 +0000";
layers = (
{
anchors = (
{
name = bottom;
pos = (249,0);
},
{
name = top;
pos = (249,434);
}
);
color = 10;
layerId = m005;
shapes = (
{
closed = 1;
nodes = (
(175,-3,l),
(175,49,ls),
(175,187,o),
(176,303,o),
(174,345,cs),
(173,403,l),
(243,403,l),
(298,436,l),
(135,436,ls),
(97,436,o),
(48,437,o),
(23,439,c),
(23,414,l),
(79,403,o),
(95,405,o),
(95,368,cs),
(97,260,o),
(95,155,o),
(95,49,cs),
(95,32,o),
(67,28,o),
(23,17,c),
(23,-3,l)
);
},
{
closed = 1;
nodes = (
(407,-9,o),
(460,34,o),
(460,91,cs),
(460,178,o),
(316,185,o),
(316,236,cs),
(316,291,o),
(411,302,o),
(411,361,cs),
(411,406,o),
(352,436,o),
(275,436,c),
(220,402,l),
(286,408,o),
(333,385,o),
(333,346,cs),
(333,307,o),
(244,293,o),
(244,218,cs),
(244,133,o),
(385,135,o),
(385,73,cs),
(385,38,o),
(368,17,o),
(333,20,cs),
(296,23,o),
(260,50,o),
(256,91,c),
(233,91,l),
(234,84,o),
(234,38,o),
(233,0,c),
(250,-6,o),
(296,-9,o),
(333,-9,cs)
);
}
);
width = 506;
}
);
},
{
glyphname = t.sc;
lastChange = "2025-01-27 09:18:17 +0000";
layers = (
{
anchors = (
{
name = bottom;
pos = (255,0);
},
{
name = center;
pos = (255,218);
},
{
name = top;
pos = (255,434);
}
);
background = {
shapes = (
{
closed = 1;
nodes = (
(206,0,l),
(451,0,l),
(451,18,l),
(405,31,o),
(382,33,o),
(373,52,cs),
(369,60,o),
(368,73,o),
(368,91,cs),
(367,164,o),
(367,237,o),
(366,310,cs),
(365,382,o),
(367,453,o),
(368,525,cs),
(368,561,o),
(374,575,o),
(395,585,cs),
(406,590,o),
(424,591,o),
(451,598,c),
(451,616,l),
(206,616,l),
(206,598,l),
(252,585,o),
(275,583,o),
(284,565,cs),
(288,556,o),
(290,543,o),
(290,525,cs),
(291,454,o),
(292,383,o),
(292,312,cs),
(292,238,o),
(291,165,o),
(290,91,cs),
(290,55,o),
(283,42,o),
(262,32,cs),
(251,27,o),
(233,25,o),
(206,18,c)
);
}
);
};
color = 4;
layerId = m005;
shapes = (
{
closed = 1;
nodes = (
(389,-3,l),
(389,25,l),
(331,34,o),
(295,34,o),
(294,71,cs),
(289,189,o),
(289,316,o),
(294,433,c),
(255,391,l),
(308,391,o),
(371,391,o),
(394,391,cs),
(423,391,o),
(453,392,o),
(455,310,c),
(488,314,l),
(487,365,o),
(484,410,o),
(475,455,c),
(457,455,l),
(427,436,l),
(305,434,o),
(191,434,o),
(80,436,c),
(52,467,l),
(38,455,l),
(29,408,o),
(24,364,o),
(22,311,c),
(55,310,l),
(59,394,o),
(79,391,o),
(128,391,cs),
(259,391,l),
(216,430,l),
(217,358,o),
(217,103,o),
(216,71,cs),
(214,39,o),
(184,33,o),
(122,25,c),
(122,-3,l)
);
}
);
width = 515;
}
);
},
{
glyphname = u.sc;
lastChange = "2025-01-27 09:18:17 +0000";
layers = (
{
anchors = (
{
name = bottom;
pos = (283,0);
},
{
name = ogonek;
pos = (387,7);
},
{
name = top;
pos = (297,434);
},
{
name = topright;
pos = (487,386);
}
);
color = 1;
layerId = m005;
shapes = (
{
closed = 1;
nodes = (
(401,-12,o),
(486,54,o),
(487,145,cs),
(489,241,o),
(487,307,o),
(487,363,cs),
(488,408,o),
(506,410,o),
(543,410,c),
(543,439,l),
(382,439,l),
(382,413,l),
(418,410,o),
(446,391,o),
(447,339,cs),
(448,273,o),
(449,215,o),
(447,149,cs),
(445,80,o),
(386,34,o),
(304,34,cs),
(230,34,o),
(169,75,o),
(157,134,cs),
(156,143,o),
(155,235,o),
(155,355,cs),
(155,401,o),
(176,410,o),
(219,413,c),
(219,439,l),
(23,439,l),
(23,408,l),
(47,403,o),
(79,399,o),
(79,360,cs),
(79,343,o),
(79,260,o),
(79,144,cs),
(79,53,o),
(163,-12,o),
(281,-12,cs)
);
}
);
width = 578;
}
);
},
{
glyphname = v.sc;
lastChange = "2025-01-27 09:18:17 +0000";
layers = (
{
anchors = (
{
name = bottom;
pos = (290,0);
},
{
name = top;
pos = (290,434);
}
);
color = 4;
layerId = m005;
shapes = (
{
closed = 1;
nodes = (
(297,-22,l),
(351,104,o),
(453,312,o),
(474,355,cs),
(495,398,o),
(521,403,o),
(571,410,c),
(571,436,l),
(361,436,l),
(361,413,l),
(405,408,o),
(428,403,o),
(428,383,cs),
(428,368,o),
(423,345,o),
(411,320,cs),
(276,27,l),
(316,64,l),
(270,158,o),
(195,340,o),
(190,351,cs),
(185,362,o),
(181,373,o),
(181,383,cs),
(181,394,o),
(179,406,o),
(249,412,c),
(249,436,l),
(9,436,l),
(9,410,l),
(46,404,o),
(83,402,o),
(109,344,cs),
(273,-22,l)
);
}
);
width = 587;
}
);
},
{
glyphname = w.sc;
lastChange = "2025-01-27 09:18:17 +0000";
layers = (
{
anchors = (
{
name = bottom;
pos = (388,0);
},
{
name = top;
pos = (388,434);
}
);
color = 4;
layerId = m005;
shapes = (
{
closed = 1;
nodes = (
(421,371,l),
(274,36,l),
(316,68,l),
(190,351,ls),
(168,397,o),
(157,406,o),
(221,412,c),
(221,436,l),
(23,436,l),
(23,413,l),
(48,403,o),
(83,402,o),
(109,344,cs),
(274,-22,l),
(298,-22,l),
(331,73,o),
(408,235,o),
(441,321,c)
);
},
{
closed = 1;
nodes = (
(541,-22,l),
(594,104,o),
(681,312,o),
(699,355,cs),
(718,400,o),
(714,402,o),
(768,410,c),
(768,436,l),
(598,436,l),
(598,412,l),
(659,401,o),
(665,377,o),
(641,320,cs),
(519,27,l),
(564,69,l),
(526,164,o),
(462,340,o),
(458,351,cs),
(439,404,o),
(438,406,o),
(493,412,c),
(493,436,l),
(310,436,l),
(310,412,l),
(334,408,o),
(357,403,o),
(379,344,cs),
(518,-22,l)
);
}
);
width = 795;
}
);
},
{
glyphname = x.sc;
lastChange = "2025-01-27 09:18:17 +0000";
layers = (
{
anchors = (
{
name = bottom;
pos = (262,0);
},
{
name = top;
pos = (262,434);
}
);
color = 4;
guides = (
{
angle = 53;
pos = (584,661);
}
);
layerId = m005;
shapes = (
{
closed = 1;
nodes = (
(501,-3,l),
(501,25,l),
(461,28,o),
(462,28,o),
(418,84,cs),
(294,239,o),
(296,240,o),
(197,365,c),
(180,383,o),
(176,391,o),
(176,399,cs),
(176,407,o),
(186,408,o),
(213,412,c),
(213,436,l),
(23,436,l),
(23,410,l),
(53,410,o),
(61,414,o),
(113,345,cs),
(230,191,o),
(235,192,o),
(329,70,c),
(346,52,o),
(353,40,o),
(353,33,cs),
(353,26,o),
(334,25,o),
(299,22,c),
(299,-3,l)
);
},
{
closed = 1;
nodes = (
(193,-3,l),
(193,22,l),
(168,25,o),
(151,26,o),
(151,38,cs),
(151,48,o),
(144,55,o),
(161,75,cs),
(268,215,l),
(242,241,l),
(106,75,ls),
(63,20,o),
(66,30,o),
(23,25,c),
(23,-3,l)
);
},
{
closed = 1;
nodes = (
(394,351,ls),
(444,411,o),
(459,408,o),
(491,410,c),
(491,436,l),
(322,436,l),
(322,412,l),
(343,410,o),
(357,409,o),
(357,400,cs),
(357,388,o),
(356,366,o),
(324,331,c),
(251,238,l),
(274,211,l)
);
}
);
width = 524;
}
);
},
{
glyphname = y.sc;
lastChange = "2025-01-27 09:18:17 +0000";
layers = (
{
anchors = (
{
name = bottom;
pos = (218,0);
},
{
name = top;
pos = (218,434);
},
{
name = topleft;
pos = (23,434);
}
);
color = 4;
layerId = m005;
shapes = (
{
closed = 1;
nodes = (
(337,-2,l),
(337,25,l),
(295,28,o),
(260,25,o),
(260,66,cs),
(260,241,l),
(219,127,l),
(353,356,ls),
(391,419,o),
(431,408,o),
(435,410,c),
(435,437,l),
(266,437,l),
(266,412,l),
(325,405,o),
(338,398,o),
(313,359,c),
(229,211,l),
(247,212,l),
(225,263,o),
(169,350,o),
(158,371,cs),
(137,410,o),
(139,408,o),
(197,412,c),
(197,437,l),
(13,437,l),
(13,409,l),
(22,413,o),
(52,409,o),
(63,390,cs),
(210,129,l),
(181,301,l),
(181,66,ls),
(181,28,o),
(134,28,o),
(97,25,c),
(97,-2,l)
);
}
);
width = 441;
}
);
},
{
glyphname = z.sc;
lastChange = "2025-01-27 09:18:17 +0000";
layers = (
{
anchors = (
{
name = bottom;
pos = (259,0);
},
{
name = center;
pos = (259,218);
},
{
name = top;
pos = (259,434);
}
);
color = 4;
layerId = m005;
shapes = (
{
closed = 1;
nodes = (
(133,-5,o),
(292,-4,o),
(315,-4,cs),
(338,-4,o),
(390,-4,o),
(415,-7,c),
(439,39,o),
(457,101,o),
(464,153,c),
(435,153,l),
(428,111,o),
(401,35,o),
(287,33,cs),
(113,32,l),
(117,0,l),
(450,419,l),
(437,443,l),
(385,439,o),
(253,439,o),
(221,439,cs),
(172,439,o),
(94,436,o),
(71,440,c),
(65,395,o),
(59,343,o),
(59,297,c),
(83,297,l),
(92,331,o),
(78,402,o),
(180,402,cs),
(239,402,o),
(342,400,o),
(381,398,c),
(365,433,l),
(26,8,l),
(38,-5,l)
);
}
);
width = 504;
}
);
},
{
glyphname = zero;
lastChange = "2025-01-27 16:26:08 +0000";
layers = (
{
hints = (
{
horizontal = 1;
place = (414,37);
type = Stem;
},
{
horizontal = 1;
place = (-8,37);
type = Stem;
},
{
place = (402,84);
type = Stem;
},
{
place = (34,84);
type = Stem;
}
);
layerId = m005;
shapes = (
{
closed = 1;
nodes = (
(388,-11,o),
(486,127,o),
(486,321,cs),
(486,500,o),
(388,626,o),
(250,626,cs),
(115,626,o),
(19,500,o),
(19,321,cs),
(19,127,o),
(115,-11,o),
(250,-11,cs)
);
},
{
closed = 1;
nodes = (
(192,21,o),
(115,137,o),
(101,308,cs),
(91,462,o),
(144,577,o),
(220,585,cs),
(313,592,o),
(395,487,o),
(404,332,cs),
(416,162,o),
(358,37,o),
(278,28,cs)
);
}
);
width = 504;
}
);
unicode = 48;
},
{
glyphname = one;
lastChange = "2025-01-27 16:25:36 +0000";
layers = (
{
hints = (
{
horizontal = 1;
place = (415,33);
type = Stem;
},
{
horizontal = 1;
place = (0,34);
type = Stem;
},
{
place = (119,75);
type = Stem;
}
);
layerId = m005;
shapes = (
{
closed = 1;
nodes = (
(191,3,o),
(330,3,o),
(429,0,c),
(429,24,l),
(377,28,o),
(342,32,o),
(332,39,cs),
(314,51,o),
(301,58,o),
(300,100,cs),
(299,133,o),
(300,392,o),
(300,465,cs),
(300,516,o),
(302,588,o),
(306,628,c),
(88,557,l),
(88,529,l),
(144,545,o),
(224,559,o),
(224,499,cs),
(224,439,o),
(225,119,o),
(224,96,cs),
(223,63,o),
(207,53,o),
(190,42,cs),
(179,35,o),
(162,29,o),
(111,24,c),
(111,0,l)
);
}
);
width = 504;
}
);
unicode = 49;
},
{
glyphname = two;
lastChange = "2025-01-27 16:26:25 +0000";
layers = (
{
background = {
hints = (
{
horizontal = 1;
place = (392,61);
type = Stem;
},
{
horizontal = 1;
place = (0,65);
type = Stem;
},
{
place = (247,-165);
type = Stem;
},
{
horizontal = 1;
place = (392,61);
type = Stem;
},
{
horizontal = 1;
place = (0,65);
type = Stem;
},
{
place = (247,-165);
type = Stem;
}
);
shapes = (
{
closed = 1;
nodes = (
(249,7,o),
(369,143,o),
(369,270,cs),
(369,341,o),
(324,391,o),
(260,391,cs),
(234,391,o),
(198,384,o),
(173,372,cs),
(199,387,o),
(178,381,o),
(122,362,c),
(138,332,l),
(154,340,o),
(180,346,o),
(200,346,cs),
(253,346,o),
(291,302,o),
(291,239,cs),
(291,143,o),
(210,52,o),
(72,1,c),
(80,-32,l)
);
},
{
closed = 1;
nodes = (
(149,339,o),
(168,364,o),
(190,375,cs),
(278,420,o),
(350,498,o),
(350,560,cs),
(350,614,o),
(299,652,o),
(242,652,cs),
(197,652,o),
(136,617,o),
(94,567,c),
(110,545,l),
(138,571,o),
(184,590,o),
(211,590,cs),
(241,590,o),
(263,565,o),
(263,530,cs),
(263,483,o),
(205,414,o),
(122,362,c),
(138,332,l)
);
}
);
};
hints = (
{
horizontal = 1;
place = (392,61);
type = Stem;
},
{
horizontal = 1;
place = (0,65);
type = Stem;
},
{
place = (247,92);
type = Stem;
}
);
layerId = m005;
shapes = (
{
closed = 1;
nodes = (
(175,4,o),
(368,4,o),
(439,-4,c),
(468,91,l),
(458,90,l),
(396,60,o),
(194,60,o),
(101,60,c),
(100,43,l),
(335,251,o),
(441,339,o),
(441,480,cs),
(441,567,o),
(373,628,o),
(278,628,cs),
(202,628,o),
(114,579,o),
(65,509,c),
(86,494,l),
(128,539,o),
(185,571,o),
(222,571,cs),
(307,571,o),
(364,522,o),
(364,453,cs),
(364,322,o),
(280,256,o),
(32,26,c),
(43,-4,l)
);
}
);
width = 504;
}
);
unicode = 50;
},
{
glyphname = three;
lastChange = "2025-01-27 16:26:45 +0000";
layers = (
{
hints = (
{
horizontal = 1;
place = (387,62);
type = Stem;
},
{
horizontal = 1;
place = (145,47);
type = Stem;
},
{
horizontal = 1;
place = (-238,77);
type = Stem;
},
{
place = (213,88);
type = Stem;
}
);
layerId = m005;
shapes = (
{
closed = 1;
nodes = (
(284,4,o),
(439,124,o),
(439,258,cs),
(439,326,o),
(384,374,o),
(306,374,cs),
(266,374,o),
(218,367,o),
(189,356,cs),
(210,365,o),
(182,362,o),
(121,347,c),
(142,318,l),
(171,327,o),
(206,334,o),
(225,334,cs),
(307,334,o),
(358,290,o),
(358,228,cs),
(358,125,o),
(236,32,o),
(53,2,c),
(65,-32,l)
);
},
{
closed = 1;
nodes = (
(157,324,o),
(182,348,o),
(211,359,cs),
(329,402,o),
(413,476,o),
(413,537,cs),
(413,589,o),
(359,625,o),
(282,625,cs),
(221,625,o),
(138,591,o),
(83,544,c),
(104,519,l),
(146,547,o),
(202,569,o),
(240,569,cs),
(291,569,o),
(324,544,o),
(324,508,cs),
(324,448,o),
(242,382,o),
(121,347,c),
(142,318,l)
);
}
);
width = 504;
}
);
unicode = 51;
},
{
glyphname = four;
lastChange = "2025-01-27 16:26:51 +0000";
layers = (
{
hints = (
{
horizontal = 1;
place = (0,54);
type = Stem;
},
{
horizontal = 1;
place = (420,21);
target = up;
type = BottomGhost;
},
{
place = (309,77);
type = Stem;
}
);
layerId = m005;
shapes = (
{
closed = 1;
nodes = (
(384,1,l),
(384,167,o),
(384,411,o),
(389,616,c),
(340,616,l),
(18,210,l),
(18,173,l),
(180,173,o),
(308,167,o),
(470,164,c),
(470,219,l),
(319,216,o),
(201,213,o),
(50,213,c),
(54,196,l),
(338,557,l),
(318,554,l),
(307,376,o),
(307,155,o),
(307,1,c)
);
}
);
width = 504;
}
);
unicode = 52;
},
{
glyphname = five;
lastChange = "2025-01-27 16:27:03 +0000";
layers = (
{
background = {
shapes = (
{
closed = 0;
nodes = (
(60,647,l),
(421,647,l)
);
},
{
closed = 0;
nodes = (
(113,579,l),
(197,579,o),
(380,579,o),
(442,540,c)
);
},
{
closed = 0;
nodes = (
(60,0,l),
(421,0,l)
);
},
{
closed = 0;
nodes = (
(442,107,l),
(380,68,o),
(197,68,o),
(113,68,c)
);
}
);
};
hints = (
{
horizontal = 1;
place = (376,68);
type = Stem;
},
{
place = (188,77);
type = Stem;
}
);
layerId = m005;
shapes = (
{
closed = 1;
nodes = (
(248,4,o),
(379,115,o),
(379,247,cs),
(379,343,o),
(278,418,o),
(130,458,c),
(132,434,l),
(194,595,l),
(157,558,l),
(207,565,o),
(362,555,o),
(415,538,c),
(425,532,l),
(459,625,l),
(362,621,o),
(212,619,o),
(168,625,c),
(80,401,l),
(223,357,o),
(305,281,o),
(305,215,cs),
(305,120,o),
(198,38,o),
(53,-4,c),
(69,-35,l)
);
}
);
width = 504;
}
);
unicode = 53;
},
{
glyphname = six;
lastChange = "2025-01-27 16:27:18 +0000";
layers = (
{
background = {
hints = (
{
horizontal = 1;
place = (411,37);
type = Stem;
},
{
horizontal = 1;
place = (82,51);
type = Stem;
},
{
place = (331,87);
type = Stem;
},
{
place = (33,79);
type = Stem;
}
);
shapes = (
{
closed = 1;
nodes = (
(372,-11,o),
(454,75,o),
(454,197,cs),
(454,302,o),
(374,377,o),
(260,377,cs),
(220,377,o),
(175,362,o),
(151,340,c),
(166,319,l),
(181,328,o),
(204,335,o),
(223,335,cs),
(304,335,o),
(366,268,o),
(366,173,cs),
(366,89,o),
(318,30,o),
(256,30,cs),
(182,30,o),
(125,141,o),
(125,297,cs),
(125,421,o),
(233,541,o),
(379,587,c),
(363,627,l),
(169,566,o),
(32,416,o),
(32,265,cs),
(32,103,o),
(125,-11,o),
(257,-11,cs)
);
}
);
};
hints = (
{
horizontal = 1;
place = (317,50);
type = Stem;
},
{
horizontal = 1;
place = (-5,36);
type = Stem;
},
{
horizontal = 1;
place = (685,21);
target = up;
type = BottomGhost;
},
{
place = (347,80);
type = Stem;
},
{
place = (37,87);
type = Stem;
}
);
layerId = m005;
shapes = (
{
closed = 1;
nodes = (
(381,-11,o),
(463,75,o),
(463,197,cs),
(463,302,o),
(383,377,o),
(269,377,cs),
(229,377,o),
(184,362,o),
(160,340,c),
(175,321,l),
(191,330,o),
(214,337,o),
(232,337,cs),
(316,337,o),
(377,268,o),
(377,173,cs),
(377,89,o),
(329,30,o),
(265,30,cs),
(188,30,o),
(127,133,o),
(127,279,cs),
(127,413,o),
(234,546,o),
(383,593,c),
(372,627,l),
(178,566,o),
(41,409,o),
(41,247,cs),
(41,96,o),
(134,-11,o),
(266,-11,cs)
);
}
);
width = 504;
}
);
unicode = 54;
},
{
glyphname = seven;
lastChange = "2025-01-27 16:28:29 +0000";
layers = (
{
background = {
shapes = (
{
closed = 0;
nodes = (
(372,579,l),
(288,579,o),
(105,579,o),
(43,540,c)
);
}
);
};
hints = (
{
horizontal = 1;
place = (375,66);
type = Stem;
}
);
layerId = m005;
shapes = (
{
closed = 1;
nodes = (
(143,-75,l),
(470,608,l),
(463,623,l),
(341,613,o),
(145,613,o),
(74,621,c),
(36,516,l),
(45,512,l),
(111,539,o),
(207,553,o),
(407,539,c),
(421,579,l),
(92,-44,l)
);
}
);
width = 504;
}
);
unicode = 55;
},
{
glyphname = eight;
lastChange = "2025-01-27 16:28:17 +0000";
layers = (
{
hints = (
{
horizontal = 1;
place = (659,47);
type = Stem;
},
{
horizontal = 1;
place = (-9,38);
type = Stem;
},
{
place = (309,70);
type = Stem;
},
{
place = (6,81);
type = Stem;
}
);
layerId = m005;
shapes = (
{
closed = 1;
nodes = (
(369,-11,o),
(456,64,o),
(456,159,c),
(456,306,o),
(137,385,o),
(137,500,cs),
(137,557,o),
(185,591,o),
(252,591,c),
(252,625,l),
(149,625,o),
(76,562,o),
(76,468,cs),
(76,313,o),
(397,225,o),
(397,128,c),
(397,69,o),
(334,24,o),
(245,24,c),
(245,-11,l)
);
},
{
closed = 1;
nodes = (
(245,24,l),
(171,24,o),
(119,85,o),
(119,165,cs),
(119,211,o),
(170,270,o),
(243,309,c),
(207,323,l),
(114,277,o),
(48,201,o),
(48,139,cs),
(48,54,o),
(130,-11,o),
(245,-11,c)
);
},
{
closed = 1;
nodes = (
(252,591,l),
(315,591,o),
(359,546,o),
(359,476,cs),
(359,433,o),
(318,377,o),
(250,341,c),
(287,327,l),
(371,368,o),
(431,441,o),
(431,502,cs),
(431,577,o),
(357,625,o),
(252,625,c)
);
}
);
width = 504;
}
);
unicode = 56;
},
{
glyphname = nine;
lastChange = "2025-01-27 16:27:41 +0000";
layers = (
{
hints = (
{
horizontal = 1;
place = (411,37);
type = Stem;
},
{
horizontal = 1;
place = (82,51);
type = Stem;
},
{
place = (331,87);
type = Stem;
},
{
place = (33,79);
type = Stem;
}
);
layerId = m005;
shapes = (
{
closed = 1;
nodes = (
(123,627,o),
(41,541,o),
(41,419,cs),
(41,314,o),
(121,239,o),
(235,239,cs),
(275,239,o),
(320,254,o),
(344,276,c),
(329,295,l),
(313,286,o),
(290,279,o),
(272,279,cs),
(188,279,o),
(127,348,o),
(127,443,cs),
(127,527,o),
(175,586,o),
(239,586,cs),
(316,586,o),
(376,483,o),
(376,337,cs),
(376,203,o),
(268,69,o),
(119,22,c),
(132,-11,l),
(326,50,o),
(463,207,o),
(463,369,cs),
(463,520,o),
(370,627,o),
(238,627,cs)
);
}
);
width = 504;
}
);
unicode = 57;
},
{
glyphname = zero.bsf;
lastChange = "2025-01-27 09:18:17 +0000";
layers = (
{
color = 4;
layerId = m005;
shapes = (
{
closed = 1;
nodes = (
(363,-11,o),
(450,81,o),
(450,212,cs),
(450,343,o),
(363,435,o),
(243,435,cs),
(120,435,o),
(36,344,o),
(36,213,cs),
(36,82,o),
(120,-11,o),
(243,-11,cs)
);
},
{
closed = 1;
nodes = (
(166,17,o),
(124,86,o),
(124,210,cs),
(124,337,o),
(166,407,o),
(243,407,cs),
(317,407,o),
(362,339,o),
(362,217,cs),
(362,88,o),
(317,17,o),
(243,17,cs)
);
}
);
width = 486;
}
);
},
{
glyphname = one.bsf;
lastChange = "2025-01-27 09:18:17 +0000";
layers = (
{
background = {
shapes = (
{
closed = 0;
nodes = (
(215,68,ls),
(213,39,o),
(191,32,o),
(150,18,c),
(150,0,l),
(353,0,l),
(353,18,l),
(312,32,o),
(287,39,o),
(287,68,cs)
);
}
);
};
color = 1;
layerId = m005;
shapes = (
{
closed = 1;
nodes = (
(373,0,l),
(373,20,l),
(324,39,o),
(293,25,o),
(291,89,cs),
(286,264,o),
(286,268,o),
(298,443,c),
(276,449,l),
(80,381,l),
(88,346,l),
(252,369,l),
(212,389,l),
(216,236,o),
(218,127,o),
(215,89,cs),
(210,25,o),
(194,39,o),
(132,20,c),
(132,0,l)
);
}
);
width = 486;
}
);
},
{
glyphname = two.bsf;
lastChange = "2025-01-27 09:18:17 +0000";
layers = (
{
background = {
shapes = (
{
closed = 1;
nodes = (
(101,439,o),
(26,397,o),
(26,338,cs),
(26,314,o),
(48,297,o),
(80,297,cs),
(108,297,o),
(127,310,o),
(127,329,cs),
(127,344,o),
(96,338,o),
(96,360,cs),
(96,390,o),
(135,411,o),
(190,411,c),
(207,439,l)
);
},
{
closed = 1;
nodes = (
(414,0,l),
(430,118,l),
(414,118,l),
(412,103,o),
(397,73,o),
(390,73,c)
);
}
);
};
color = 4;
layerId = m005;
shapes = (
{
closed = 1;
nodes = (
(407,0,l),
(432,134,l),
(409,134,l),
(401,109,o),
(377,74,o),
(361,73,cs),
(67,55,l),
(75,49,l),
(73,127,o),
(400,143,o),
(406,312,cs),
(409,386,o),
(324,439,o),
(207,439,c),
(208,399,l),
(271,399,o),
(318,363,o),
(318,311,cs),
(318,193,o),
(18,127,o),
(18,49,c),
(18,0,l)
);
},
{
closed = 1;
nodes = (
(101,439,o),
(26,379,o),
(26,295,cs),
(26,260,o),
(48,236,o),
(80,236,cs),
(108,236,o),
(127,255,o),
(127,282,cs),
(127,303,o),
(96,295,o),
(96,326,cs),
(96,369,o),
(142,399,o),
(208,399,c),
(207,439,l)
);
}
);
width = 468;
}
);
},
{
glyphname = three.bsf;
lastChange = "2025-01-27 09:18:17 +0000";
layers = (
{
background = {
shapes = (
{
closed = 1;
nodes = (
(41,472,o),
(50,439,o),
(68,421,cs),
(91,399,o),
(160,461,o),
(139,484,cs),
(130,495,o),
(113,499,o),
(100,508,cs),
(89,517,o),
(82,526,o),
(82,549,c),
(41,513,l)
);
}
);
};
color = 4;
layerId = m005;
shapes = (
{
closed = 1;
nodes = (
(342,-199,o),
(432,-130,o),
(432,-32,cs),
(432,62,o),
(357,128,o),
(254,128,c),
(253,123,l),
(346,123,o),
(414,194,o),
(414,294,cs),
(414,379,o),
(339,439,o),
(235,439,c),
(218,399,l),
(279,399,o),
(326,352,o),
(326,286,cs),
(326,203,o),
(256,144,o),
(164,144,c),
(164,105,l),
(267,105,o),
(344,52,o),
(344,-22,cs),
(344,-102,o),
(286,-159,o),
(211,-159,cs),
(150,-159,o),
(106,-129,o),
(106,-86,cs),
(106,-55,o),
(137,-63,o),
(137,-42,cs),
(137,-15,o),
(118,4,o),
(90,4,cs),
(58,4,o),
(36,-20,o),
(36,-55,cs),
(36,-139,o),
(111,-199,o),
(217,-199,cs)
);
},
{
closed = 1;
nodes = (
(129,439,o),
(54,379,o),
(54,295,cs),
(54,260,o),
(76,236,o),
(108,236,cs),
(136,236,o),
(155,255,o),
(155,282,cs),
(155,303,o),
(124,295,o),
(124,326,cs),
(124,369,o),
(157,399,o),
(218,399,c),
(235,439,l)
);
}
);
width = 486;
}
);
},
{
glyphname = four.bsf;
lastChange = "2025-01-27 09:18:17 +0000";
layers = (
{
color = 4;
guides = (
{
pos = (339,-171);
}
);
layerId = m005;
shapes = (
{
closed = 1;
nodes = (
(373,-171,l),
(373,460,l),
(276,435,l),
(18,0,l),
(486,0,l),
(486,60,l),
(74,60,l),
(85,44,l),
(313,418,l),
(301,420,l),
(295,257,o),
(295,-149,o),
(293,-171,c)
);
}
);
width = 522;
}
);
},
{
glyphname = five.bsf;
lastChange = "2025-01-27 09:18:17 +0000";
layers = (
{
background = {
shapes = (
{
closed = 1;
nodes = (
(369,-11,o),
(463,81,o),
(463,210,cs),
(463,318,o),
(383,395,o),
(269,395,cs),
(158,395,o),
(80,310,o),
(80,190,c),
(118,208,l),
(118,294,o),
(174,354,o),
(252,354,cs),
(323,354,o),
(373,291,o),
(373,201,cs),
(373,100,o),
(323,29,o),
(252,29,cs),
(174,29,o),
(118,103,o),
(118,208,cs),
(118,373,o),
(229,534,o),
(386,597,c),
(368,642,l),
(170,563,o),
(30,383,o),
(30,208,cs),
(30,80,o),
(115,-11,o),
(236,-11,cs)
);
}
);
};
color = 4;
layerId = m005;
shapes = (
{
closed = 1;
nodes = (
(355,-188,o),
(450,-94,o),
(450,39,cs),
(450,143,o),
(372,217,o),
(274,217,cs),
(202,217,o),
(145,183,o),
(124,144,c),
(135,144,l),
(160,395,l),
(143,376,l),
(397,367,l),
(421,501,l),
(405,501,l),
(401,475,o),
(383,440,o),
(373,440,c),
(119,439,l),
(87,111,l),
(141,113,l),
(157,146,o),
(199,176,o),
(254,176,cs),
(311,176,o),
(362,111,o),
(362,20,cs),
(362,-78,o),
(308,-148,o),
(246,-148,c),
(233,-188,l)
);
},
{
closed = 1;
nodes = (
(246,-148,l),
(185,-148,o),
(142,-118,o),
(142,-75,cs),
(142,-44,o),
(173,-52,o),
(173,-31,cs),
(173,-4,o),
(154,15,o),
(126,15,cs),
(94,15,o),
(72,-9,o),
(72,-44,cs),
(72,-128,o),
(139,-188,o),
(233,-188,c)
);
},
{
closed = 1;
nodes = (
(397,367,l),
(422,501,l),
(399,501,l),
(391,475,o),
(366,441,o),
(351,440,c)
);
}
);
width = 522;
}
);
},
{
glyphname = six.bsf;
lastChange = "2025-01-27 09:18:17 +0000";
layers = (
{
color = 4;
layerId = m005;
shapes = (
{
closed = 1;
nodes = (
(374,-11,o),
(468,81,o),
(468,210,cs),
(468,318,o),
(388,395,o),
(274,395,cs),
(163,395,o),
(84,310,o),
(84,190,c),
(122,208,l),
(122,294,o),
(179,354,o),
(257,354,cs),
(328,354,o),
(380,291,o),
(380,201,cs),
(380,100,o),
(328,29,o),
(257,29,cs),
(179,29,o),
(122,103,o),
(122,208,cs),
(122,373,o),
(234,534,o),
(391,597,c),
(373,642,l),
(175,563,o),
(36,383,o),
(36,208,cs),
(36,80,o),
(120,-11,o),
(241,-11,cs)
);
}
);
width = 504;
}
);
},
{
glyphname = seven.bsf;
lastChange = "2025-01-27 09:18:17 +0000";
layers = (
{
color = 4;
layerId = m005;
shapes = (
{
closed = 1;
nodes = (
(238,-177,l),
(281,75,o),
(364,318,o),
(486,411,c),
(470,439,l),
(36,439,l),
(55,273,l),
(82,277,l),
(71,334,o),
(90,369,o),
(122,369,cs),
(401,369,l),
(403,392,l),
(259,214,o),
(174,-22,o),
(149,-177,c)
);
}
);
width = 504;
}
);
},
{
glyphname = eight.bsf;
lastChange = "2025-01-27 09:18:17 +0000";
layers = (
{
color = 4;
layerId = m005;
shapes = (
{
closed = 1;
nodes = (
(377,-11,o),
(468,66,o),
(468,176,cs),
(468,270,o),
(379,337,o),
(259,337,cs),
(136,337,o),
(54,268,o),
(54,171,cs),
(54,64,o),
(134,-11,o),
(254,-11,cs)
);
},
{
closed = 1;
nodes = (
(192,29,o),
(142,89,o),
(142,174,cs),
(142,247,o),
(189,299,o),
(259,299,cs),
(326,299,o),
(380,246,o),
(380,170,cs),
(380,87,o),
(329,29,o),
(266,29,cs)
);
},
{
closed = 1;
nodes = (
(364,303,o),
(440,375,o),
(440,476,cs),
(440,564,o),
(363,626,o),
(260,626,cs),
(149,626,o),
(76,560,o),
(76,466,cs),
(76,371,o),
(151,303,o),
(263,303,cs)
);
},
{
closed = 1;
nodes = (
(194,340,o),
(156,394,o),
(156,470,cs),
(156,538,o),
(192,586,o),
(250,586,cs),
(312,586,o),
(360,538,o),
(360,470,cs),
(360,394,o),
(314,340,o),
(255,340,cs)
);
}
);
width = 522;
}
);
},
{
glyphname = nine.bsf;
lastChange = "2025-01-27 09:18:17 +0000";
layers = (
{
background = {
shapes = (
{
closed = 1;
nodes = (
(148,627,o),
(54,535,o),
(54,406,cs),
(54,298,o),
(134,221,o),
(248,221,cs),
(359,221,o),
(437,306,o),
(437,426,c),
(399,408,l),
(399,322,o),
(343,262,o),
(265,262,cs),
(194,262,o),
(144,325,o),
(144,415,cs),
(144,516,o),
(194,587,o),
(265,587,cs),
(343,587,o),
(399,513,o),
(399,408,cs),
(399,243,o),
(288,82,o),
(131,19,c),
(149,-26,l),
(347,53,o),
(487,233,o),
(487,408,cs),
(487,536,o),
(402,627,o),
(281,627,cs)
);
}
);
};
color = 4;
layerId = m005;
shapes = (
{
closed = 1;
nodes = (
(147,439,o),
(54,347,o),
(54,218,cs),
(54,110,o),
(133,33,o),
(247,33,cs),
(358,33,o),
(438,118,o),
(438,238,c),
(400,220,l),
(400,134,o),
(342,74,o),
(264,74,cs),
(193,74,o),
(142,137,o),
(142,227,cs),
(142,328,o),
(193,399,o),
(264,399,cs),
(342,399,o),
(400,325,o),
(400,220,cs),
(400,55,o),
(287,-106,o),
(131,-169,c),
(149,-214,l),
(346,-135,o),
(486,45,o),
(486,220,cs),
(486,348,o),
(401,439,o),
(280,439,cs)
);
}
);
width = 540;
},
{
associatedMasterId = m005;
background = {
shapes = (
{
closed = 1;
nodes = (
(182,627,o),
(88,535,o),
(88,406,cs),
(88,298,o),
(168,221,o),
(282,221,cs),
(393,221,o),
(471,306,o),
(471,426,c),
(433,408,l),
(433,322,o),
(377,262,o),
(299,262,cs),
(228,262,o),
(178,325,o),
(178,415,cs),
(178,516,o),
(228,587,o),
(299,587,cs),
(377,587,o),
(433,513,o),
(433,408,cs),
(433,243,o),
(322,82,o),
(165,19,c),
(183,-26,l),
(381,53,o),
(521,233,o),
(521,408,cs),
(521,536,o),
(436,627,o),
(315,627,cs)
);
}
);
};
layerId = "8880FCC1-7A68-4D74-A1C2-63291C007941";
name = "29. Dez. 24, 15:16";
shapes = (
{
closed = 1;
nodes = (
(384,48,o),
(523,228,o),
(523,397,cs),
(523,530,o),
(432,624,o),
(303,624,cs),
(174,624,o),
(83,530,o),
(83,397,cs),
(83,283,o),
(159,203,o),
(266,203,cs),
(397,203,o),
(489,263,o),
(489,347,c),
(441,351,l),
(441,290,o),
(385,246,o),
(305,246,cs),
(226,246,o),
(170,319,o),
(170,423,cs),
(170,517,o),
(224,584,o),
(301,584,cs),
(379,584,o),
(434,497,o),
(434,373,cs),
(434,211,o),
(326,66,o),
(173,21,c),
(187,-39,l)
);
}
);
width = 600;
}
);
},
{
glyphname = zero.btf;
lastChange = "2025-01-27 09:18:17 +0000";
layers = (
{
layerId = m005;
shapes = (
{
closed = 1;
nodes = (
(442,-11,o),
(539,121,o),
(539,308,cs),
(539,495,o),
(442,627,o),
(305,627,cs),
(159,627,o),
(55,496,o),
(55,310,cs),
(55,122,o),
(159,-11,o),
(305,-11,cs)
);
},
{
closed = 1;
nodes = (
(194,85,o),
(98,185,o),
(98,330,cs),
(98,449,o),
(174,531,o),
(281,531,cs),
(407,531,o),
(496,432,o),
(496,288,cs),
(496,167,o),
(427,85,o),
(329,85,cs)
);
}
);
width = 594;
},
{
associatedMasterId = m005;
layerId = "60AE473C-F1EF-4626-9DDE-73952520C9B0";
name = "9. Jan. 25, 20:25";
shapes = (
{
closed = 1;
nodes = (
(442,-11,o),
(539,121,o),
(539,308,cs),
(539,495,o),
(442,627,o),
(305,627,cs),
(159,627,o),
(55,496,o),
(55,310,cs),
(55,122,o),
(159,-11,o),
(305,-11,cs)
);
},
{
closed = 1;
nodes = (
(211,29,o),
(145,143,o),
(145,305,cs),
(145,470,o),
(211,587,o),
(305,587,cs),
(389,587,o),
(449,474,o),
(449,315,cs),
(449,147,o),
(389,29,o),
(305,29,cs)
);
}
);
width = 594;
}
);
},
{
glyphname = one.btf;
lastChange = "2025-01-27 09:18:17 +0000";
layers = (
{
background = {
shapes = (
{
closed = 0;
nodes = (
(371,553,l),
(372,635,l),
(357,641,l),
(238,600,l)
);
}
);
};
layerId = m005;
shapes = (
{
closed = 1;
nodes = (
(465,0,l),
(465,20,l),
(416,31,o),
(343,31,o),
(341,103,cs),
(337,278,o),
(337,460,o),
(348,635,c),
(328,641,l),
(131,573,l),
(139,538,l),
(304,561,l),
(263,581,l),
(267,428,o),
(269,132,o),
(266,94,cs),
(261,32,o),
(197,37,o),
(135,20,c),
(135,0,l)
);
}
);
width = 594;
}
);
},
{
glyphname = two.btf;
lastChange = "2025-01-27 09:18:17 +0000";
layers = (
{
background = {
shapes = (
{
closed = 1;
nodes = (
(496,0,l),
(521,134,l),
(498,134,l),
(490,109,o),
(466,74,o),
(450,73,cs),
(150,55,l),
(158,49,l),
(156,127,o),
(489,143,o),
(489,312,cs),
(489,386,o),
(407,439,o),
(290,439,c),
(291,399,l),
(354,399,o),
(399,363,o),
(399,311,cs),
(399,193,o),
(101,127,o),
(101,49,c),
(101,0,l)
);
},
{
closed = 1;
nodes = (
(184,439,o),
(109,379,o),
(109,295,cs),
(109,260,o),
(131,236,o),
(163,236,cs),
(191,236,o),
(210,255,o),
(210,282,cs),
(210,303,o),
(179,295,o),
(179,326,cs),
(179,369,o),
(225,399,o),
(291,399,c),
(290,439,l)
);
}
);
};
guides = (
{
angle = 160;
lockAngle = 1;
pos = (609,-25);
},
{
angle = 160;
lockAngle = 1;
pos = (364,-93);
},
{
angle = 70;
pos = (340,-12);
},
{
angle = 70;
pos = (-32,121);
},
{
angle = 70;
pos = (109,429);
},
{
angle = 160;
lockAngle = 1;
pos = (586,525);
},
{
angle = 160;
lockAngle = 1;
pos = (582,365);
},
{
angle = 70;
pos = (61,-264);
},
{
angle = 73.2591;
pos = (13,-285);
}
);
layerId = m005;
shapes = (
{
closed = 1;
nodes = (
(496,0,l),
(521,134,l),
(498,134,l),
(485,98,o),
(463,74,o),
(447,73,cs),
(157,55,l),
(165,52,l),
(163,163,o),
(490,203,o),
(496,444,cs),
(499,549,o),
(414,625,o),
(297,625,c),
(298,585,l),
(361,585,o),
(408,516,o),
(408,442,cs),
(408,275,o),
(108,181,o),
(108,70,c),
(108,0,l)
);
},
{
closed = 1;
nodes = (
(191,625,o),
(116,557,o),
(116,449,cs),
(116,412,o),
(138,387,o),
(170,387,cs),
(198,387,o),
(217,407,o),
(217,435,cs),
(217,457,o),
(186,449,o),
(186,482,cs),
(186,543,o),
(232,585,o),
(298,585,c),
(297,625,l)
);
}
);
width = 594;
},
{
associatedMasterId = m005;
background = {
shapes = (
{
closed = 1;
nodes = (
(496,0,l),
(521,134,l),
(498,134,l),
(490,109,o),
(466,74,o),
(450,73,cs),
(150,55,l),
(158,49,l),
(156,127,o),
(489,143,o),
(489,312,cs),
(489,386,o),
(407,439,o),
(290,439,c),
(291,399,l),
(354,399,o),
(399,363,o),
(399,311,cs),
(399,193,o),
(101,127,o),
(101,49,c),
(101,0,l)
);
},
{
closed = 1;
nodes = (
(184,439,o),
(109,379,o),
(109,295,cs),
(109,260,o),
(131,236,o),
(163,236,cs),
(191,236,o),
(210,255,o),
(210,282,cs),
(210,303,o),
(179,295,o),
(179,326,cs),
(179,369,o),
(225,399,o),
(291,399,c),
(290,439,l)
);
}
);
};
layerId = "49480446-0703-4247-935C-64FD8A4C9124";
name = "9. Jan. 25, 19:41";
shapes = (
{
closed = 1;
nodes = (
(498,0,l),
(509,164,l),
(488,164,l),
(472,112,o),
(443,77,o),
(418,75,cs),
(160,55,l),
(168,49,l),
(166,97,o),
(491,279,o),
(491,468,cs),
(491,566,o),
(417,627,o),
(300,627,c),
(283,587,l),
(357,587,o),
(401,543,o),
(401,468,cs),
(401,280,o),
(103,97,o),
(103,49,c),
(103,0,l)
);
},
{
closed = 1;
nodes = (
(194,627,o),
(119,567,o),
(119,483,cs),
(119,448,o),
(141,424,o),
(173,424,cs),
(201,424,o),
(220,443,o),
(220,470,cs),
(220,491,o),
(189,483,o),
(189,514,cs),
(189,557,o),
(228,587,o),
(283,587,c),
(300,627,l)
);
}
);
width = 594;
}
);
},
{
glyphname = three.btf;
lastChange = "2025-01-27 09:18:17 +0000";
layers = (
{
background = {
shapes = (
{
closed = 1;
nodes = (
(414,-11,o),
(504,58,o),
(504,156,cs),
(504,250,o),
(429,316,o),
(323,316,c),
(322,311,l),
(418,311,o),
(486,382,o),
(486,482,cs),
(486,567,o),
(411,627,o),
(304,627,c),
(287,587,l),
(351,587,o),
(396,540,o),
(396,474,cs),
(396,391,o),
(328,332,o),
(233,332,c),
(233,293,l),
(339,293,o),
(414,240,o),
(414,166,cs),
(414,86,o),
(358,29,o),
(280,29,cs),
(219,29,o),
(175,59,o),
(175,102,cs),
(175,133,o),
(206,125,o),
(206,146,cs),
(206,173,o),
(187,192,o),
(159,192,cs),
(127,192,o),
(105,168,o),
(105,133,cs),
(105,49,o),
(180,-11,o),
(286,-11,cs)
);
},
{
closed = 1;
nodes = (
(198,627,o),
(123,567,o),
(123,483,cs),
(123,448,o),
(145,424,o),
(177,424,cs),
(205,424,o),
(224,443,o),
(224,470,cs),
(224,491,o),
(193,483,o),
(193,514,cs),
(193,557,o),
(226,587,o),
(287,587,c),
(304,627,l)
);
}
);
};
layerId = m005;
shapes = (
{
closed = 1;
nodes = (
(418,-11,o),
(508,58,o),
(508,156,cs),
(508,250,o),
(433,316,o),
(327,316,c),
(326,311,l),
(422,311,o),
(490,382,o),
(490,482,cs),
(490,567,o),
(415,627,o),
(308,627,c),
(291,587,l),
(355,587,o),
(400,540,o),
(400,474,cs),
(400,391,o),
(332,332,o),
(237,332,c),
(237,293,l),
(343,293,o),
(418,240,o),
(418,166,cs),
(418,86,o),
(362,29,o),
(284,29,cs),
(223,29,o),
(179,59,o),
(179,102,cs),
(179,133,o),
(210,125,o),
(210,146,cs),
(210,173,o),
(191,192,o),
(163,192,cs),
(131,192,o),
(109,168,o),
(109,133,cs),
(109,49,o),
(184,-11,o),
(290,-11,cs)
);
},
{
closed = 1;
nodes = (
(202,627,o),
(127,567,o),
(127,483,cs),
(127,448,o),
(149,424,o),
(181,424,cs),
(209,424,o),
(228,443,o),
(228,470,cs),
(228,491,o),
(197,483,o),
(197,514,cs),
(197,557,o),
(230,587,o),
(291,587,c),
(308,627,l)
);
}
);
width = 594;
}
);
},
{
glyphname = four.btf;
lastChange = "2025-01-27 09:18:17 +0000";
layers = (
{
background = {
shapes = (
{
closed = 1;
nodes = (
(478,0,l),
(478,24,l),
(432,32,o),
(401,46,o),
(401,73,cs),
(401,631,l),
(304,606,l),
(37,176,l),
(527,171,l),
(503,244,l),
(93,244,l),
(104,215,l),
(341,589,l),
(334,591,l),
(328,428,o),
(328,104,o),
(326,82,cs),
(322,30,o),
(270,33,o),
(238,25,c),
(238,0,l)
);
},
{
closed = 1;
nodes = (
(527,171,l),
(543,289,l),
(527,289,l),
(525,274,o),
(510,244,o),
(503,244,c)
);
}
);
};
layerId = m005;
shapes = (
{
closed = 1;
nodes = (
(410,0,l),
(410,631,l),
(313,606,l),
(46,171,l),
(523,171,l),
(523,231,l),
(102,231,l),
(113,215,l),
(350,589,l),
(338,591,l),
(332,428,o),
(332,22,o),
(330,0,c)
);
}
);
width = 594;
}
);
},
{
glyphname = five.btf;
lastChange = "2025-01-27 09:18:17 +0000";
layers = (
{
background = {
shapes = (
{
closed = 1;
nodes = (
(417,-11,o),
(512,83,o),
(512,216,cs),
(512,320,o),
(434,394,o),
(324,394,cs),
(252,394,o),
(195,360,o),
(174,321,c),
(185,321,l),
(210,572,l),
(193,553,l),
(459,544,l),
(475,662,l),
(459,662,l),
(455,636,o),
(445,617,o),
(435,617,c),
(169,616,l),
(137,288,l),
(191,290,l),
(207,323,o),
(249,353,o),
(304,353,cs),
(373,353,o),
(422,288,o),
(422,197,cs),
(422,99,o),
(370,29,o),
(296,29,c),
(283,-11,l)
);
},
{
closed = 1;
nodes = (
(296,29,l),
(235,29,o),
(192,59,o),
(192,102,cs),
(192,133,o),
(223,125,o),
(223,146,cs),
(223,173,o),
(204,192,o),
(176,192,cs),
(144,192,o),
(122,168,o),
(122,133,cs),
(122,49,o),
(189,-11,o),
(283,-11,c)
);
}
);
};
layerId = m005;
shapes = (
{
closed = 1;
nodes = (
(421,-11,o),
(516,83,o),
(516,216,cs),
(516,320,o),
(438,394,o),
(328,394,cs),
(256,394,o),
(199,360,o),
(178,321,c),
(189,321,l),
(214,572,l),
(197,553,l),
(463,544,l),
(487,678,l),
(471,678,l),
(467,652,o),
(449,617,o),
(439,617,c),
(173,616,l),
(141,288,l),
(195,290,l),
(211,323,o),
(253,353,o),
(308,353,cs),
(377,353,o),
(426,288,o),
(426,197,cs),
(426,99,o),
(374,29,o),
(300,29,c),
(287,-11,l)
);
},
{
closed = 1;
nodes = (
(300,29,l),
(239,29,o),
(196,59,o),
(196,102,cs),
(196,133,o),
(227,125,o),
(227,146,cs),
(227,173,o),
(208,192,o),
(180,192,cs),
(148,192,o),
(126,168,o),
(126,133,cs),
(126,49,o),
(193,-11,o),
(287,-11,c)
);
},
{
closed = 1;
nodes = (
(463,544,l),
(488,678,l),
(465,678,l),
(457,652,o),
(432,618,o),
(417,617,c)
);
}
);
width = 594;
}
);
},
{
glyphname = six.btf;
lastChange = "2025-01-27 09:18:17 +0000";
layers = (
{
background = {
shapes = (
{
closed = 1;
nodes = (
(419,-11,o),
(513,81,o),
(513,210,cs),
(513,318,o),
(433,395,o),
(319,395,cs),
(208,395,o),
(130,310,o),
(130,190,c),
(168,208,l),
(168,294,o),
(224,354,o),
(302,354,cs),
(373,354,o),
(423,291,o),
(423,201,cs),
(423,100,o),
(373,29,o),
(302,29,cs),
(224,29,o),
(168,103,o),
(168,208,cs),
(168,373,o),
(279,534,o),
(436,597,c),
(418,642,l),
(220,563,o),
(80,383,o),
(80,208,cs),
(80,80,o),
(165,-11,o),
(286,-11,cs)
);
}
);
};
layerId = m005;
shapes = (
{
closed = 1;
nodes = (
(423,-11,o),
(517,81,o),
(517,210,cs),
(517,318,o),
(437,395,o),
(323,395,cs),
(212,395,o),
(134,310,o),
(134,190,c),
(172,208,l),
(172,294,o),
(228,354,o),
(306,354,cs),
(377,354,o),
(427,291,o),
(427,201,cs),
(427,100,o),
(377,29,o),
(306,29,cs),
(228,29,o),
(172,103,o),
(172,208,cs),
(172,373,o),
(283,534,o),
(440,597,c),
(422,642,l),
(224,563,o),
(84,383,o),
(84,208,cs),
(84,80,o),
(169,-11,o),
(290,-11,cs)
);
}
);
width = 594;
}
);
},
{
glyphname = seven.btf;
lastChange = "2025-01-27 09:18:17 +0000";
layers = (
{
background = {
shapes = (
{
closed = 1;
nodes = (
(293,0,l),
(337,252,o),
(420,495,o),
(542,588,c),
(526,616,l),
(91,616,l),
(121,452,l),
(158,462,l),
(149,511,o),
(157,546,o),
(190,546,cs),
(457,546,l),
(459,569,l),
(315,391,o),
(229,155,o),
(204,0,c)
);
}
);
};
layerId = m005;
shapes = (
{
closed = 1;
nodes = (
(297,-1,l),
(341,251,o),
(424,494,o),
(546,587,c),
(530,615,l),
(95,615,l),
(114,449,l),
(141,453,l),
(130,510,o),
(149,545,o),
(181,545,cs),
(461,545,l),
(463,568,l),
(319,390,o),
(233,154,o),
(208,-1,c)
);
}
);
width = 594;
}
);
},
{
glyphname = eight.btf;
lastChange = "2025-01-27 09:18:17 +0000";
layers = (
{
background = {
shapes = (
{
closed = 1;
nodes = (
(424,-11,o),
(515,66,o),
(515,176,cs),
(515,270,o),
(426,337,o),
(300,337,cs),
(177,337,o),
(90,268,o),
(90,171,cs),
(90,64,o),
(175,-11,o),
(295,-11,cs)
);
},
{
closed = 1;
nodes = (
(233,29,o),
(180,89,o),
(180,174,cs),
(180,247,o),
(230,299,o),
(300,299,cs),
(373,299,o),
(425,246,o),
(425,170,cs),
(425,87,o),
(376,29,o),
(307,29,cs)
);
},
{
closed = 1;
nodes = (
(411,303,o),
(487,375,o),
(487,476,cs),
(487,564,o),
(410,626,o),
(301,626,cs),
(190,626,o),
(112,560,o),
(112,466,cs),
(112,371,o),
(192,303,o),
(304,303,cs)
);
},
{
closed = 1;
nodes = (
(235,340,o),
(192,394,o),
(192,470,cs),
(192,538,o),
(233,586,o),
(291,586,cs),
(359,586,o),
(407,538,o),
(407,470,cs),
(407,394,o),
(361,340,o),
(296,340,cs)
);
}
);
};
layerId = m005;
shapes = (
{
closed = 1;
nodes = (
(428,-11,o),
(519,66,o),
(519,176,cs),
(519,270,o),
(430,337,o),
(304,337,cs),
(181,337,o),
(94,268,o),
(94,171,cs),
(94,64,o),
(179,-11,o),
(299,-11,cs)
);
},
{
closed = 1;
nodes = (
(237,29,o),
(184,89,o),
(184,174,cs),
(184,247,o),
(234,299,o),
(304,299,cs),
(377,299,o),
(429,246,o),
(429,170,cs),
(429,87,o),
(380,29,o),
(311,29,cs)
);
},
{
closed = 1;
nodes = (
(415,303,o),
(491,375,o),
(491,476,cs),
(491,564,o),
(414,626,o),
(305,626,cs),
(194,626,o),
(116,560,o),
(116,466,cs),
(116,371,o),
(196,303,o),
(308,303,cs)
);
},
{
closed = 1;
nodes = (
(239,340,o),
(196,394,o),
(196,470,cs),
(196,538,o),
(237,586,o),
(295,586,cs),
(363,586,o),
(411,538,o),
(411,470,cs),
(411,394,o),
(365,340,o),
(300,340,cs)
);
}
);
width = 594;
}
);
},
{
glyphname = nine.btf;
lastChange = "2025-01-27 09:18:17 +0000";
layers = (
{
background = {
shapes = (
{
closed = 1;
nodes = (
(182,627,o),
(88,535,o),
(88,406,cs),
(88,298,o),
(168,221,o),
(282,221,cs),
(393,221,o),
(471,306,o),
(471,426,c),
(433,408,l),
(433,322,o),
(377,262,o),
(299,262,cs),
(228,262,o),
(178,325,o),
(178,415,cs),
(178,516,o),
(228,587,o),
(299,587,cs),
(377,587,o),
(433,513,o),
(433,408,cs),
(433,243,o),
(322,82,o),
(165,19,c),
(183,-26,l),
(381,53,o),
(521,233,o),
(521,408,cs),
(521,536,o),
(436,627,o),
(315,627,cs)
);
},
{
closed = 1;
nodes = (
(182,627,o),
(88,535,o),
(88,406,cs),
(88,298,o),
(168,221,o),
(282,221,cs),
(393,221,o),
(471,306,o),
(471,426,c),
(433,408,l),
(433,322,o),
(377,262,o),
(299,262,cs),
(228,262,o),
(178,325,o),
(178,415,cs),
(178,516,o),
(228,587,o),
(299,587,cs),
(377,587,o),
(433,513,o),
(433,408,cs),
(433,243,o),
(322,82,o),
(165,19,c),
(183,-26,l),
(381,53,o),
(521,233,o),
(521,408,cs),
(521,536,o),
(436,627,o),
(315,627,cs)
);
}
);
};
layerId = m005;
shapes = (
{
closed = 1;
nodes = (
(186,627,o),
(92,535,o),
(92,406,cs),
(92,298,o),
(172,221,o),
(286,221,cs),
(397,221,o),
(475,306,o),
(475,426,c),
(437,408,l),
(437,322,o),
(381,262,o),
(303,262,cs),
(232,262,o),
(182,325,o),
(182,415,cs),
(182,516,o),
(232,587,o),
(303,587,cs),
(381,587,o),
(437,513,o),
(437,408,cs),
(437,243,o),
(326,82,o),
(169,19,c),
(187,-26,l),
(385,53,o),
(525,233,o),
(525,408,cs),
(525,536,o),
(440,627,o),
(319,627,cs)
);
}
);
width = 594;
},
{
associatedMasterId = m005;
background = {
shapes = (
{
closed = 1;
nodes = (
(182,627,o),
(88,535,o),
(88,406,cs),
(88,298,o),
(168,221,o),
(282,221,cs),
(393,221,o),
(471,306,o),
(471,426,c),
(433,408,l),
(433,322,o),
(377,262,o),
(299,262,cs),
(228,262,o),
(178,325,o),
(178,415,cs),
(178,516,o),
(228,587,o),
(299,587,cs),
(377,587,o),
(433,513,o),
(433,408,cs),
(433,243,o),
(322,82,o),
(165,19,c),
(183,-26,l),
(381,53,o),
(521,233,o),
(521,408,cs),
(521,536,o),
(436,627,o),
(315,627,cs)
);
}
);
};
layerId = "8880FCC1-7A68-4D74-A1C2-63291C007941";
name = "29. Dez. 24, 15:16";
shapes = (
{
closed = 1;
nodes = (
(384,48,o),
(523,228,o),
(523,397,cs),
(523,530,o),
(432,624,o),
(303,624,cs),
(174,624,o),
(83,530,o),
(83,397,cs),
(83,283,o),
(159,203,o),
(266,203,cs),
(397,203,o),
(489,263,o),
(489,347,c),
(441,351,l),
(441,290,o),
(385,246,o),
(305,246,cs),
(226,246,o),
(170,319,o),
(170,423,cs),
(170,517,o),
(224,584,o),
(301,584,cs),
(379,584,o),
(434,497,o),
(434,373,cs),
(434,211,o),
(326,66,o),
(173,21,c),
(187,-39,l)
);
}
);
width = 600;
}
);
},
